<mxfile host="app.diagrams.net" modified="2023-09-05T23:11:06.676Z" agent="Mozilla/5.0 (X11; Linux x86_64; rv:109.0) Gecko/20100101 Firefox/117.0" etag="DXIoNM9QyUo-ogKvwCAl" version="21.7.2" type="device">
  <diagram name="Page-1" id="Q5-L7R8M0dqIQsOcgJur">
    <mxGraphModel dx="1958" dy="590" grid="1" gridSize="10" guides="1" tooltips="1" connect="1" arrows="1" fold="1" page="1" pageScale="1" pageWidth="850" pageHeight="1100" math="0" shadow="0">
      <root>
        <mxCell id="0" />
        <mxCell id="1" parent="0" />
        <mxCell id="zpTVTdFHTJqUsnKjDufD-12" value="Vagrant host" style="rounded=1;whiteSpace=wrap;html=1;fillColor=none;labelPosition=center;verticalLabelPosition=bottom;align=center;verticalAlign=top;fontSize=19;" vertex="1" parent="1">
          <mxGeometry x="-30" y="30" width="940" height="730" as="geometry" />
        </mxCell>
        <mxCell id="zpTVTdFHTJqUsnKjDufD-8" value="" style="group" vertex="1" connectable="0" parent="1">
          <mxGeometry x="90" y="36.67" width="700" height="683.3299999999999" as="geometry" />
        </mxCell>
        <mxCell id="zpTVTdFHTJqUsnKjDufD-4" value="Lab VM" style="rounded=1;whiteSpace=wrap;html=1;fillColor=none;labelPosition=center;verticalLabelPosition=bottom;align=center;verticalAlign=top;fontSize=18;" vertex="1" parent="zpTVTdFHTJqUsnKjDufD-8">
          <mxGeometry y="29.996666666666655" width="700" height="653.3333333333333" as="geometry" />
        </mxCell>
        <mxCell id="zpTVTdFHTJqUsnKjDufD-7" value="" style="shape=image;verticalLabelPosition=bottom;labelBackgroundColor=default;verticalAlign=top;aspect=fixed;imageAspect=0;image=data:image/svg+xml,PHN2ZyB2aWV3Qm94PSIwIDAgMjIzIDYwIiB4bWxucz0iaHR0cDovL3d3dy53My5vcmcvMjAwMC9zdmciPiYjeGE7ICA8cGF0aCBkPSJNOTkuODggMTQuMWg2LjI5bC05LjU2IDMyaC04LjkzbC05LjU2LTMyaDYuMjlsNy43MyAyNi42NiA3Ljc0LTI2LjY2em0yMy43OCAzMmgtNC44bC0uNDMtMS41OWMtMi4wODMgMS4zNTUtNC41MTUgMi4wNzQtNyAyLjA3LTQuMjggMC02LjEtMi45My02LjEtNyAwLTQuNzYgMi4wNy02LjU4IDYuODItNi41OGg1LjYydi0yLjQyYzAtMi41OS0uNzItMy41MS00LjQ3LTMuNTEtMi4xODIuMDIzLTQuMzU2LjI2NC02LjQ5LjcybC0uNzItNC40N2MyLjYwNi0uNzIzIDUuMjk2LTEuMDk2IDgtMS4xMSA3LjM1IDAgOS41MSAyLjU5IDkuNTEgOC40NmwuMDYgMTUuNDN6bS01Ljg2LTguODRoLTQuMzJjLTEuOTIgMC0yLjQ1LjUzLTIuNDUgMi4zMXMuNTMgMi4zNSAyLjM1IDIuMzVjMS41NS0uMDIyIDMuMDctLjQzNSA0LjQyLTEuMnYtMy40NnptMTcuMDUgMi41NGMtLjc0LjM2LTEuMjYgMS4wNTctMS4zOSAxLjg3IDAgLjYyLjM4LjkxIDEuMyAxIDIuNTkuMjkgNCAuNDMgNi43Ny43MiAzLjguNDMgNSAyLjMxIDUgNS42NyAwIDUtMS44MyA3LTEwLjU3IDctMy4wNC4wMDMtNi4wNjctLjQtOS0xLjJsLjcyLTQuMzdjMi41NzYuNjU0IDUuMjIyLjk5IDcuODggMSA0LjY2IDAgNS41Ny0uMzQgNS41Ny0xLjg3cy0uNDMtMS42OC0yLjIxLTEuODdjLTIuNjktLjI5LTMuOC0uNDMtNi43Ny0uNzctMy4zMS0uMzgtNC42MS0xLjQ5LTQuNjEtNC40Ny4xMDItMS42NTcgMS4wMi0zLjE1NiAyLjQ1LTQtMi4xNi0xLjMtMy4xNy0zLjQ2LTMuMTctNi4yOVYzMGMuMS00Ljg1IDIuNjQtNy43OCA5LjQyLTcuNzggMS4zNDgtLjAxIDIuNjkyLjE1IDQgLjQ4aDcuMjF2Mi45M2MtLjgyLjI0LTEuNzguNDgtMi41OS43Mi41NTggMS4xMzUuODQgMi4zODYuODIgMy42NXYyLjIxYzAgNC43Ni0yLjg4IDcuNjQtOS40MiA3LjY0LS40Ny4wMS0uOTQtLjAwNi0xLjQxLS4wNXptMS4zNC0xMi44OGMtMi44OCAwLTMuODkgMS4wNi0zLjg5IDMuMjdWMzJjMCAyLjMxIDEuMTUgMy4xNyAzLjg5IDMuMTdzMy45NC0uOTEgMy45NC0zLjE3di0xLjgxYy4wMS0yLjE5LTEtMy4yNi0zLjkzLTMuMjZsLS4wMS0uMDF6bTI1LjkuNjhjLTIuMTQ4Ljk3My00LjIxNyAyLjExLTYuMTkgMy40djE1LjFIMTUwVjIyLjdoNWwuMzggMi41OWMxLjkwNi0xLjI5IDMuOTc0LTIuMzIgNi4xNS0zLjA3bC41NiA1LjM4em0xOS42IDE4LjVoLTQuOGwtLjQzLTEuNTljLTIuMDgzIDEuMzU1LTQuNTE1IDIuMDc0LTcgMi4wNy00LjI4IDAtNi4xLTIuOTMtNi4xLTcgMC00Ljc2IDIuMDctNi41OCA2LjgyLTYuNThoNS42MnYtMi40MmMwLTIuNTktLjcyLTMuNTEtNC40Ny0zLjUxLTIuMTgyLjAyMy00LjM1Ni4yNjQtNi40OS43MmwtLjcyLTQuNDdjMi42MDYtLjcyMyA1LjI5Ni0xLjA5NiA4LTEuMTEgNy4zNSAwIDkuNTEgMi41OSA5LjUxIDguNDZsLjA2IDE1LjQzem0tNS44Ni04Ljg0aC00LjMyYy0xLjkyIDAtMi40NS41My0yLjQ1IDIuMzFzLjUzIDIuMzUgMi4zNSAyLjM1YzEuNTUtLjAyMiAzLjA3LS40MzUgNC40Mi0xLjJ2LTMuNDZ6bTIzLjMgOC44NFYyOS43NmMwLTEuMjUtLjUzLTEuODctMS44Ny0xLjg3LTIuMTQ3LjI1Mi00LjIyLjkzMi02LjEgMlY0Ni4xaC01Ljg2VjIyLjdoNC40N2wuNTggMmMyLjkyLTEuNDYgNi4xMS0yLjI5NSA5LjM3LTIuNDUgMy44OSAwIDUuMjggMi43NCA1LjI4IDYuOTJ2MTdsLTUuODctLjA3em0yMy4xMS0uNDRjLTEuNjUzLjU3OC0zLjM5Ljg4Ni01LjE0LjkxLTQuMjggMC02LjQ0LTItNi40NC02LjJ2LTEzaC0zLjUxVjIyLjdoMy41MXYtNS44MWw1Ljg2LS44MnY2LjYzaDZsLS4zOCA0LjY2aC01LjYydjEyLjI1Yy0uMDc2LjU3Ni4xMjQgMS4xNTQuNTQgMS41Ni40MTQuNDA4Ljk5NS41OTcgMS41Ny41MS45OTQtLjAzIDEuOTgtLjE5IDIuOTMtLjQ4bC42OCA0LjQ2eiIgZmlsbD0iIzAwMDAwMCIgY2xhc3M9InRleHQiLz4mI3hhOyAgPHBhdGggZD0iTTU4LjAzIDEwLjEyVjQuNjNMNDQuODQgMTIuM3Y0LjY0TDM0LjI5IDM5LjdsLTUuMjggMy42NHYxNi42N2wxMS4zMS02LjUyIDE3LjcxLTQzLjM3ek0yOS4wMSAzMS40N0wyMS4xIDEzVjcuNzhsLS4wNS0uMDItNy44NiA0LjU0djQuNjRMMjMuNzQgNDAuN2w1LjI3LTIuNjF2LTYuNjJ6IiBmaWxsPSIjMTU2M0ZGIiBjbGFzcz0iZnJvbnQiLz4mI3hhOyAgPHBhdGggZD0iTTUwLjEyLjAxTDM2Ljk0IDcuNzNoLS4wMVYxM2wtNy45MiAxOC40N3Y2LjE3bC01LjI3IDMuMDYtMTAuNTUtMjMuNzZ2LTQuNjVsNy45Mi00LjU1TDcuOTEuMDEgMCA0LjYzdjUuNjZsMTcuODEgNDMuMjUgMTEuMiA2LjQ3VjQzLjc2bDUuMjgtMy4wNi0uMDctLjA0IDEwLjYyLTIzLjcydi00LjY1bDEzLjE5LTcuNjYiIGZpbGw9IiMxMDRFQjIiIGNsYXNzPSJzaGFkb3ciLz4mI3hhOzwvc3ZnPg==;" vertex="1" parent="zpTVTdFHTJqUsnKjDufD-8">
          <mxGeometry x="238.5" width="223" height="60" as="geometry" />
        </mxCell>
        <mxCell id="zpTVTdFHTJqUsnKjDufD-6" value="" style="shape=image;verticalLabelPosition=bottom;labelBackgroundColor=default;verticalAlign=top;aspect=fixed;imageAspect=0;image=data:image/svg+xml,PHN2ZyB4bWxucz0iaHR0cDovL3d3dy53My5vcmcvMjAwMC9zdmciIHdpZHRoPSIyNTUuNjE1MjQ5NjMzNzg5MDYiIHZpZXdCb3g9IjAuMjYzNzUxMDI5OTY4MjYxNyAwLjMwMTk5NDMyMzczMDQ2ODc1IDI1NS42MTUyNDk2MzM3ODkwNiAzMTMuODM1OTk4NTM1MTU2MjUiIHByZXNlcnZlQXNwZWN0UmF0aW89InhNaWRZTWlkIiBoZWlnaHQ9IjMxMy44MzU5OTg1MzUxNTYyNSI+JiN4YTsgPGcgdHJhbnNmb3JtPSJ0cmFuc2xhdGUoMCAyODEuODYpIiBmaWxsPSIjMWExOTE4Ij4mI3hhOyAgPHBhdGggZD0ibTY3LjUxNjggMzIuMDAzNWMtLjU0MTUyIDAtMS4xMjYxNy0uMTM2ODUtMS41MzIxMi0uNjg1ODNsLTE3LjM4MzUtMjIuODYxMnYyMy4zMTg3aC0zLjk2NDMxdi0yOC43MTQyYzAtMS4xNDI1My45NDU5Mi0yLjA1NzEgMi4wMjc4LTIuMDU3MS42Mjk3MSAwIDEuMTcwODQuMTgyNiAxLjU3NDg1LjczMTU4bDE3LjMzOTYgMjIuODE1OXYtMjMuMjI3NmgzLjk2MzkydjI4LjY2ODFjMCAxLjE4OTA3LS45NDU5MiAyLjAxMTc1LTIuMDI2MjUgMi4wMTE3NSIvPiYjeGE7ICA8cGF0aCBkPSJtMTAwLjMwNiAzMi4yNzhjLTMuOTYyNzYgMC04LjEwNjkzLS44MjM0Ny0xMS45ODAzLTIuMjg1ODRsLjk0NjMxLTMuMjkyN2MzLjU1Nzk3IDEuMTQzMzIgNy40MzA5OSAxLjk2NjM5IDExLjAzNCAxLjk2NjM5IDQuOTk5NTggMCA3LjYxMTYzLTEuNzgzNCA3LjYxMTYzLTQuMjk3NTkgMC0yLjI4NjYzLTIuMDI3NDEtMy40Mjk1Ni05LjAwODE3LTYuNzIxODctNi45ODA3Ni0zLjI5MTkyLTkuNzI3MjItNS4zOTQ3Ny05LjcyNzIyLTkuNTEwNTUgMC01LjE2NTYzIDMuOTYyNzYtNy4yNzAwNiAxMS40Mzg0LTcuMjcwMDYgMy4xMDgxMyAwIDcuODgxNjIuNjQwODcgMTAuNjMgMS40NjM5NWwtLjYzMDg3IDMuMzgzMDJjLTMuMDE4MzktLjczMTE5LTYuODAwNTEtMS4yMzQwMi05LjkwODY0LTEuMjM0MDItNS4yNjgzOSAwLTcuNDMwNiAxLjAwNTI4LTcuNDMwNiAzLjUyMDY2IDAgMi40Njg0NCAxLjU3NTYyIDMuNTIwMjYgOC45NjE5NCA2Ljk0OTgyIDcuNzkxODggMy42MTIxNiA5Ljc3MzQ1IDUuNDQxMyA5Ljc3MzQ1IDkuMTg5OTIgMCA1LjQ0MTctNS4xMzUxNSA4LjEzODg4LTExLjcxIDguMTM4ODgiLz4mI3hhOyAgPHBhdGggZD0ibTEzMC43OTggMS4zMjM2N2g0LjA5ODMzdjMwLjQ1MTFoLTQuMDk4MzN6Ii8+JiN4YTsgIDxwYXRoIGQ9Im0xNjkuNzU4IDE3Ljk2NjloLTEwLjE3OTh2MTAuMzM0aDEwLjE3OThjMy40Njc0NiAwIDUuNTg0MjItMi4xOTUxNCA1LjU4NDIyLTUuMjU5MSAwLTIuODgwNTctMi4yMDY1LTUuMDc0OTItNS41ODQyMi01LjA3NDkybS0xLjk4Mjc0LTEzLjE2ODVoLTguMTk3MDV2OS43MzkyOWg4LjE5NzA1YzMuMjg4MzggMCA1LjY3NTEyLTIuMTAzNjQgNS42NzUxMi01LjAyOTU3IDAtMi44ODA1Ny0yLjA3MjA4LTQuNzA5NzItNS42NzUxMi00LjcwOTcybTIuMDI3NDEgMjYuOTc2NmgtMTIuMjQ5OWMtMS4xNzE2MiAwLTIuMDcyNDctLjkxNDk3LTIuMDcyNDctMi4wNTc1di0yNi4zMzYxYzAtMS4wOTc5Ni45MDA4Ni0yLjA1NzUgMi4wNzI0Ny0yLjA1NzVoMTAuMTMzMmM2LjIxNTA5IDAgOS45MDc4NiAzLjA2MzE3IDkuOTA3ODYgNy44NjQzOSAwIDIuNjA1NjktMS41MzEzNCA1LjAyOTE3LTMuODczOCA2LjQ0NjU5IDMuNDY5NCAxLjA1MTgyIDUuODA5OTIgMy45MzIgNS44MDk5MiA3LjQwNjkxIDAgNC44NDY1Ny00LjAwNzQzIDguNzMzMjItOS43MjcyMiA4LjczMzIyIi8+JiN4YTsgIDxwYXRoIGQ9Im0xOTkuMjEyIDMxLjc3NTFjLTEuMTI0MjIgMC0yLjAyNTQ3LS45NjAzMi0yLjAyNTQ3LTIuMDU3NXYtMjguMzkzNmg0LjA5NzU1djI2Ljc0NzloMTYuMzA0djMuNzAzMjZoLTE4LjM3NjF6Ii8+JiN4YTsgIDxwYXRoIGQ9Im0yNDUuNTI2IDMyLjI3OGMtOC4zNzczIDAtMTMuNDIxNS0zLjEwODkyLTEzLjQyMTUtOS4zNzI5MSAwLTIuOTcyMDcgMS42NjY5MS01LjgwNjkgNC45MDk4NC03LjEzMjgxLTIuNjEyNDQtMS42NDYxNi0zLjk2MzE0LTMuOTc4MTQtMy45NjMxNC02LjUzODQ4IDAtNS42NjkyNiA0LjM2OTg3LTguMzY4MDIgMTIuNTY1OC04LjM2ODAyIDIuNzQ3NjMgMCA2LjYyMDI2LjMyMDYzIDkuODYzNTggMS4wNTI2MWwtLjQ1MTAxIDMuMzgzMDJjLTMuNDIyMDEtLjU0ODk4LTYuNjIxMDQtLjg2ODA0LTkuNzI4MzktLjg2ODA0LTUuMzE0NjIgMC04LjE1MjM4IDEuNDYyMzctOC4xNTIzOCA0Ljk4MzQzIDAgMi43ODk0NyAyLjYxMjgzIDQuOTgzODIgNi4wODE0NiA0Ljk4MzgyaDcuMDI1MDRjLjk5MDk4IDAgMS43NTYyNi43NzczMyAxLjc1NjI2IDEuNzM3MjYgMCAxLjAwNTY4LS43NjUyOCAxLjc4MzAxLTEuNzU2MjYgMS43ODMwMWgtNy41NjUwMWMtMy45NjQ3IDAtNi40ODU0NiAxLjk2NTYxLTYuNDg1NDYgNC45ODQyMSAwIDQuNDM0ODQgNC4wOTgzMyA1Ljc2MDc1IDkuMjMyMzIgNS43NjA3NSAyLjc5MjY5IDAgNi41NzQ0Mi0uMzY0OCA5LjYzNjcxLTEuMDk2NzhsLjU4Njk3IDMuMzM3MjdjLTIuOTI4MjcuODIzNDctNi43NTcgMS4zNzE2Ni0xMC4xMzQ3IDEuMzcxNjYiLz4mI3hhOyAgPHBhdGggZD0ibTE0LjEzOCA3LjAzNDcgNy4xNzc3MSAxNy45ODQzLTEwLjg0MDYtOC42NjkzMyAzLjY2Mjg2LTkuMzE0OTN6bTEyLjc1MTQgMjIuMTI3Ny0xMS4wMzk5LTI2Ljk3NDZjLS4zMTUwNS0uNzc3MzMtLjk0NTkyLTEuMTg5MDctMS43MTE1OS0xLjE4OTA3cy0xLjQ0MTIxLjQxMTc0LTEuNzU2MjYgMS4xODkwN2wtMTIuMTE3OSAyOS41ODc0aDQuMTQ0NTZsNC43OTc1Ny0xMi4xOTgzIDE0LjMxNDIgMTEuNzQwOGMuNTc1NzEuNDcyMDguOTkwOTguNjg1ODMgMS41MzIxMi42ODU4MyAxLjA4MDMzIDAgMi4wMjYyNS0uODIyNjggMi4wMjYyNS0yLjAxMTM1IDAtLjE5Mjg1LS4wNjc5OC0uNDk5NjgtLjE4OTE4LS44Mjk3OHoiLz4mI3hhOyA8L2c+JiN4YTsgPHBhdGggZmlsbD0iIzFhMTkxOCIgZD0ibTI1NS44NzkgMTI3Ljg2OGMwIDcwLjQ1NTEtNTcuMTEwMSAxMjcuNTY1LTEyNy41NjYgMTI3LjU2NS03MC40NTAxIDAtMTI3LjU2Ni01Ny4xMDk2LTEyNy41NjYtMTI3LjU2NSAwLTcwLjQ1MDEgNTcuMTE2MS0xMjcuNTY2IDEyNy41NjYtMTI3LjU2NiA3MC40NTYxIDAgMTI3LjU2NiA1Ny4xMTYxIDEyNy41NjYgMTI3LjU2NiIvPiYjeGE7IDxwYXRoIGZpbGw9IiNmZmYiIGQ9Im0xMzAuNDYgNzguMjI4OSAzMy4wMTE2IDgxLjQ3NjMtNDkuODYzNS0zOS4yNzc4IDE2Ljg1MTktNDIuMTk4NHptNTguNjQ0NSAxMDAuMjQ1LTUwLjc3ODYtMTIyLjIwMmMtMS40NDk1Mi0zLjUyNDM2LTQuMzQ4MDctNS4zODkyNi03Ljg2NTkxLTUuMzg5MjYtMy41MjQzNiAwLTYuNjMzODYgMS44NjQ4OS04LjA4MzM5IDUuMzg5MjZsLTU1LjczMjkgMTM0LjA0aDE5LjA2NTNsMjIuMDYyMy01NS4yNjUzIDY1LjgzODkgNTMuMTg5OWMyLjY0NzkyIDIuMTQxMTQgNC41NTg1MiAzLjEwOTUgNy4wNDIyIDMuMTA5NSA0Ljk3Mzg5IDAgOS4zMjE0Ni0zLjcyODc4IDkuMzIxNDYtOS4xMTEwMSAwLS44NzU5NC0uMzA5MzktMi4yNjYyLS44Njk0MS0zLjc2MTQzeiIvPiYjeGE7PC9zdmc+;" vertex="1" parent="zpTVTdFHTJqUsnKjDufD-8">
          <mxGeometry x="314.67" y="123.33" width="70.66" height="86.67" as="geometry" />
        </mxCell>
        <mxCell id="zpTVTdFHTJqUsnKjDufD-1" value="Jenkins" style="shape=image;verticalLabelPosition=bottom;labelBackgroundColor=default;verticalAlign=top;aspect=fixed;imageAspect=0;image=data:image/svg+xml,PHN2ZyB4bWxuczp4bGluaz0iaHR0cDovL3d3dy53My5vcmcvMTk5OS94bGluayIgeG1sbnM9Imh0dHA6Ly93d3cudzMub3JnLzIwMDAvc3ZnIiB2ZXJzaW9uPSIxLjEiIHZpZXdCb3g9IjAgMCA0MTMgNDYzIiBoZWlnaHQ9IjQ2M3B4IiB3aWR0aD0iNDEzcHgiPiYjeGE7ICAgIDxnIGZpbGwtcnVsZT0iZXZlbm9kZCIgZmlsbD0ibm9uZSIgc3Ryb2tlLXdpZHRoPSIxIiBzdHJva2U9Im5vbmUiPiYjeGE7ICAgICAgICA8cGF0aCBmaWxsLXJ1bGU9Im5vbnplcm8iIGZpbGw9ImN1cnJlbnRDb2xvciIgc3Ryb2tlLXdpZHRoPSI1IiBzdHJva2U9ImN1cnJlbnRDb2xvciIgZD0iTTMyNC45LDI3LjY3NDU0MTggQzMyNS4yMTQsMjcuOTEyNTQxOCAzMjUuNTMxNzYsMjguMTU1NzgxOCAzMjUuODUzMDc2LDI4LjQwNDEwMjYgTDMyNi44Mjc0ODgsMjkuMTY0MTQ4MiBDMzI2Ljk5MTYsMjkuMjkzMzA5OCAzMjcuMTU2NTUsMjkuNDIzNzAxOCAzMjcuMzIyMzEzLDI5LjU1NTMwNDMgTDMyOC4zMjY0MzQsMzAuMzU5Mjg2MSBMMzI4LjMyNjQzNCwzMC4zNTkyODYxIEwzMjkuMzQ4ODMxLDMxLjE5MTM2NDcgTDMyOS4zNDg4MzEsMzEuMTkxMzY0NyBMMzMwLjM4ODI4LDMyLjA1MDU4NDkgQzMzMC41NjI4NzQsMzIuMTk1OTk3IDMzMC43MzgxMjgsMzIuMzQyNTAwMiAzMzAuOTE0MDE2LDMyLjQ5MDA3NDYgTDMzMS45NzY3NDgsMzMuMzg4MjE2MiBMMzMxLjk3Njc0OCwzMy4zODgyMTYyIEwzMzMuMDUzNDcyLDM0LjMxMTExMTQgTDMzMy4wNTM0NzIsMzQuMzExMTExNCBMMzM0LjE0Mjk2NCwzNS4yNTc4MDUgTDMzNC4xNDI5NjQsMzUuMjU3ODA1IEwzMzUuMjQ0LDM2LjIyNzM0MTggTDMzNS4yNDQsMzYuMjI3MzQxOCBMMzM2LjM1NTM1NiwzNy4yMTg3NjY2IEMzMzYuNTQxMzc0LDM3LjM4NTc3NSAzMzYuNzI3NzcxLDM3LjU1MzY1NTYgMzM2LjkxNDUyMiwzNy43MjIzODg1IEwzMzguMDM5MDYyLDM4Ljc0NDg1NDMgQzMzOC4yMjcxMjUsMzguOTE2OTE2OCAzMzguNDE1NDksMzkuMDg5NzkxOCAzMzguNjA0MTMyLDM5LjI2MzQ1OTQgTDMzOS43MzkxMDQsNDAuMzE0ODE3IEwzMzkuNzM5MTA0LDQwLjMxNDgxNyBMMzQwLjg3OTUsNDEuMzg0MjQxOCBDMzQxLjA2OTk1LDQxLjU2MzkzMTggMzQxLjI2MDU3NSw0MS43NDQzMzQ4IDM0MS40NTEzNDksNDEuOTI1NDMwOSBMMzQyLjU5NzU4Nyw0My4wMjAxNjU1IEMzNDIuNzg4ODU3LDQzLjIwMzk1NDQgMzQyLjk4MDIyNiw0My4zODgzOTY2IDM0My4xNzE2NjgsNDMuNTczNDcyMiBMMzQ0LjMyMDk5Miw0NC42OTEzNjc0IEwzNDQuMzIwOTkyLDQ0LjY5MTM2NzQgTDM0NS40NzA4NDQsNDUuODIzNTA5IEwzNDUuNDcwODQ0LDQ1LjgyMzUwOSBMMzQ2LjYyLDQ2Ljk2ODk0MTggTDM0Ni42Miw0Ni45Njg5NDE4IEwzNDcuNzY3MjM2LDQ4LjEyNjcxMDYgTDM0Ny43NjcyMzYsNDguMTI2NzEwNiBMMzQ4LjkxMTMyOCw0OS4yOTU4NjAyIEwzNDguOTExMzI4LDQ5LjI5NTg2MDIgTDM1MC4wNTEwNTIsNTAuNDc1NDM1NCBMMzUwLjA1MTA1Miw1MC40NzU0MzU0IEwzNTEuMTg1MTg0LDUxLjY2NDQ4MSBMMzUxLjE4NTE4NCw1MS42NjQ0ODEgTDM1Mi4zMTI1LDUyLjg2MjA0MTggQzM1Mi40OTk3NSw1My4wNjIyOTE4IDM1Mi42ODY2NjUsNTMuMjYyODU2OCAzNTIuODczMjIsNTMuNDYzNzE2OSBMMzUzLjk4ODAxNyw1NC42NzIyNTk1IEwzNTMuOTg4MDE3LDU0LjY3MjI1OTUgTDM1NS4wOTI5MzgsNTUuODg2OTI5MyBDMzU1LjI3NjIsNTYuMDg5ODMxOCAzNTUuNDU5LDU2LjI5Mjk0OTggMzU1LjY0MTMxMiw1Ni40OTYyNjM0IEwzNTYuNzI5MTI0LDU3LjcxODMzMyBMMzU2LjcyOTEyNCw1Ny43MTgzMzMgTDM1Ny44MDQsNTguOTQ0MTQxOCBDMzU3Ljk4Miw1OS4xNDg3MDE4IDM1OC4xNTk0MSw1OS4zNTMzNzc4IDM1OC4zMzYyMDUsNTkuNTU4MTQ5OSBMMzU5LjM4OTM4Miw2MC43ODc3NzY1IEMzNTkuNTYzNjEyLDYwLjk5Mjg1MzQgMzU5LjczNzE3Niw2MS4xOTc5ODY2IDM1OS45MTAwNDgsNjEuNDAzMTU2MiBMMzYwLjkzODc3Miw2Mi42MzQ0NTE0IEMzNjEuMTA4Nzc0LDYyLjgzOTY4NyAzNjEuMjc4MDMzLDYzLjA0NDkxOTIgMzYxLjQ0NjUyNCw2My4yNTAxMjgxIEwzNjIuNDQ4MDQxLDY0LjQ4MDk0MjcgQzM2Mi45NDM5ODQsNjUuMDk2MDUxIDM2My40MzI1NTIsNjUuNzEwNTkxNCAzNjMuOTEzMDU2LDY2LjMyNDAyNjYgTDM2NC44NjMxMDgsNjcuNTQ5MjY0MiBDMzY4LjkzMTY0LDcyLjg1MDg2MTggMzcyLjM2LDc4LjA0MjU0MTggMzc0LjcsODIuNzc0NTQxOCBDMzk4LjQsMTMwLjY3NDU0MiAzOTYuNiwyMTAuNzc0NTQyIDM4MCwyNjkuMDc0NTQyIEwzNzguMTE0MDYzLDI3NS41Mjc2NjcgTDM3OC4xMTQwNjMsMjc1LjUyNzY2NyBMMzc3LjQwNzQwNywyNzcuODkzMDYgTDM3Ny40MDc0MDcsMjc3Ljg5MzA2IEwzNzYuOTEyNTM0LDI3OS41MTIxMjggQzM3NS4wNjIwMzcsMjg1LjUwMTM5NCAzNzIuODExMTExLDI5Mi4wMzAwOTcgMzcwLDI5Ny43NzQ1NDIgQzM2OS44NjExOTQsMjk4LjA2NTU4NyAzNjkuNzA4NzU1LDI5OC4zNzAwNjQgMzY5LjU0NDI5OCwyOTguNjg2NzA5IEwzNjkuMTk5ODQsMjk5LjMzNTg0NiBMMzY5LjE5OTg0LDI5OS4zMzU4NDYgTDM2OC44MjYyMDgsMzAwLjAxNTE3OCBMMzY4LjgyNjIwOCwzMDAuMDE1MTc4IEwzNjguNDI2Mjc2LDMwMC43MjI0NTUgTDM2OC40MjYyNzYsMzAwLjcyMjQ1NSBMMzY3Ljc4MzM0NiwzMDEuODMwODQ1IEwzNjcuNzgzMzQ2LDMwMS44MzA4NDUgTDM2Ny4wOTczOTcsMzAyLjk4OTQ1NCBMMzY3LjA5NzM5NywzMDIuOTg5NDU0IEwzNjQuNjI0Njk2LDMwNy4xMTY2NTcgTDM2NC42MjQ2OTYsMzA3LjExNjY1NyBMMzYzLjg2NDM2OSwzMDguNDA1MTE3IEwzNjMuODY0MzY5LDMwOC40MDUxMTcgTDM2My4zNjE3MTMsMzA5LjI2OTk1NSBMMzYzLjM2MTcxMywzMDkuMjY5OTU1IEwzNjIuODY1NzkzLDMxMC4xMzY4NiBMMzYyLjg2NTc5MywzMTAuMTM2ODYgTDM2Mi4zNzk0OCwzMTEuMDAzNTgyIEMzNjIuMjk5Mzg4LDMxMS4xNDc4OTUgMzYyLjIxOTgxNiwzMTEuMjkyMTA3IDM2Mi4xNDA4MjQsMzExLjQzNjE3MSBMMzYxLjY3NDMwOCwzMTIuMjk4Mzk4IEMzNTkuMzgxMzEsMzE2LjU5Njg4NSAzNTcuNzE3OTEsMzIwLjY3NzUyNyAzNTguMywzMjMuMjc0NTQyIEMzNTguNTI2ODUxLDMyNC4zODk4OTMgMzU5LjQ2NDg3LDMyNS44Njk3NjEgMzYwLjg2NzQ2OCwzMjcuNTY0ODQ1IEwzNjEuMzAxOTM5LDMyOC4wNzk2NzcgTDM2MS4zMDE5MzksMzI4LjA3OTY3NyBMMzYxLjc2MjgwNCwzMjguNjA2NTI2IEMzNjEuODQxNzMzLDMyOC42OTUyODYgMzYxLjkyMTY5OSwzMjguNzg0NTA5IDM2Mi4wMDI2NzMsMzI4Ljg3NDE3NyBMMzYyLjUwMDM1OCwzMjkuNDE3MzcyIEMzNjIuNTg1MjM3LDMyOS41MDg3NDQgMzYyLjY3MTA2MywzMjkuNjAwNTI0IDM2Mi43NTc4MDMsMzI5LjY5MjY5MiBMMzYzLjI4ODk3OCwzMzAuMjUwMjE3IEwzNjMuMjg4OTc4LDMzMC4yNTAyMTcgTDM2My44NDA2MjksMzMwLjgxNjE3NiBMMzYzLjg0MDYyOSwzMzAuODE2MTc2IEwzNjQuNDExMjc5LDMzMS4zODk2NzMgTDM2NC40MTEyNzksMzMxLjM4OTY3MyBMMzY0Ljk5OTQ0NiwzMzEuOTY5ODEyIEwzNjQuOTk5NDQ2LDMzMS45Njk4MTIgTDM2NS42MDM2NTIsMzMyLjU1NTY5OCBMMzY1LjYwMzY1MiwzMzIuNTU1Njk4IEwzNjYuNTM2Nzk3LDMzMy40NDMzNCBMMzY2LjUzNjc5NywzMzMuNDQzMzQgTDM2Ny4xNzQ2MjYsMzM0LjAzOTY3MiBMMzY3LjE3NDYyNiwzMzQuMDM5NjcyIEwzNjguMTUxMjcxLDMzNC45Mzg3ODYgTDM2OC4xNTEyNzEsMzM0LjkzODc4NiBMMzY5LjE0NzM1OCwzMzUuODQwNzUgTDM2OS4xNDczNTgsMzM1Ljg0MDc1IEwzNzAuMTU3ODk0LDMzNi43NDI1NDIgTDM3MC4xNTc4OTQsMzM2Ljc0MjU0MiBMMzcxLjE3Nzg4NSwzMzcuNjQxMTM5IEwzNzEuMTc3ODg1LDMzNy42NDExMzkgTDM3Mi42MjI3NTcsMzM4Ljg5NzExOCBMMzcyLjYyMjc1NywzMzguODk3MTE4IEwzNzQuMDE1NjA1LDM0MC4wOTIyNDQgTDM3NC4wMTU2MDUsMzQwLjA5MjI0NCBMMzc1Ljk2MTc5NSwzNDEuNzQxOTcyIEwzNzUuOTYxNzk1LDM0MS43NDE5NzIgTDM3OC40Mzg5NTMsMzQzLjgxODE2NSBMMzc4LjQzODk1MywzNDMuODE4MTY1IEwzODIuMTQxMTA4LDM0Ni45MDkxNjIgTDM4Mi4xNDExMDgsMzQ2LjkwOTE2MiBMMzgzLjI0MDIyNCwzNDcuODM4NDgyIEwzODMuMjQwMjI0LDM0Ny44Mzg0ODIgTDM4My45NjEyMTcsMzQ4LjQ1Nzg5MyBMMzgzLjk2MTIxNywzNDguNDU3ODkzIEwzODQuNTg0MDI1LDM0OS4wMDQ5OTEgTDM4NC41ODQwMjUsMzQ5LjAwNDk5MSBMMzg0Ljk0MDQxMiwzNDkuMzI2OTY0IEMzODQuOTk1NzExLDM0OS4zNzc2NjggMzg1LjA0ODkyNSwzNDkuNDI2ODcyIDM4NS4xLDM0OS40NzQ1NDIgTDM4NS43MTMzODYsMzUwLjA2NDI1MyBMMzg1LjcxMzM4NiwzNTAuMDY0MjUzIEwzODYuMzUyMjIsMzUwLjY2MjgyOSBMMzg2LjM1MjIyLDM1MC42NjI4MjkgTDM4Ny4wMTQ1MTUsMzUxLjI2OTk5IEMzODcuMTI2NzQyLDM1MS4zNzE4ODMgMzg3LjIzOTg2NCwzNTEuNDc0MTIyIDM4Ny4zNTM4MzksMzUxLjU3NjcwMiBMMzg4LjQwMTUzOSwzNTIuNTA4OTQ2IEwzODguNDAxNTM5LDM1Mi41MDg5NDYgTDM4OS40ODg2MTIsMzUzLjQ1ODYxNyBMMzg5LjQ4ODYxMiwzNTMuNDU4NjE3IEwzOTEuMzY5Njg0LDM1NS4wNzc1NiBMMzkxLjM2OTY4NCwzNTUuMDc3NTYgTDM5NC40OTA2NTMsMzU3Ljc1MjE3MyBMMzk0LjQ5MDY1MywzNTcuNzUyMTczIEwzOTUuNjc0NDU5LDM1OC43Nzg4MjQgTDM5NS42NzQ0NTksMzU4Ljc3ODgyNCBMMzk2Ljg1NTE2NywzNTkuODE2OTE2IEwzOTYuODU1MTY3LDM1OS44MTY5MTYgTDM5OC4wMjYwNjksMzYwLjg2NTUwNCBMMzk4LjAyNjA2OSwzNjAuODY1NTA0IEwzOTguNzk3OTExLDM2MS41Njk5MjggTDM5OC43OTc5MTEsMzYxLjU2OTkyOCBMMzk5LjU2MDQyOCwzNjIuMjc4MzE3IEwzOTkuNTYwNDI4LDM2Mi4yNzgzMTcgTDQwMC4zMTE2MzIsMzYyLjk5MDM5IEw0MDAuMzExNjMyLDM2Mi45OTAzOSBMNDAxLjA0OTUzNiwzNjMuNzA1ODY5IEw0MDEuMDQ5NTM2LDM2My43MDU4NjkgTDQwMS43NzIxNTQsMzY0LjQyNDQ3MyBDNDA2LjA1ODAyNSwzNjguNzQ0OTEyIDQwOS40MTExMTEsMzczLjIxODk4NiA0MDkuOSwzNzcuNTc0NTQyIEM0MTAuNTAzNTcxLDM4Mi40NDk1NDIgNDA5LjU1NTEwMiwzODguMTg2Nzg3IDQwOC4wNTU0MTIsMzkzLjk1NTU5NiBMNDA3LjcsMzk1LjI4NzA0MiBDNDA3LjQ1NzE0MywzOTYuMTc0NTQyIDQwNy4yMDMwNjEsMzk3LjA2MTI3NyA0MDYuOTQxMzk5LDM5Ny45NDQyMjEgTDQwNi41NDM2NzcsMzk5LjI2NTQxNyBMNDA2LjU0MzY3NywzOTkuMjY1NDE3IEw0MDYuMTM3MzE4LDQwMC41Nzg2NiBMNDA2LjEzNzMxOCw0MDAuNTc4NjYgTDQwNS43MjUwNTUsNDAxLjg4MTY4IEw0MDUuNzI1MDU1LDQwMS44ODE2OCBMNDA1LjEwMTU2OSw0MDMuODEyMDgxIEw0MDUuMTAxNTY5LDQwMy44MTIwODEgTDQwMy4yODA1NTgsNDA5LjM1ODA5MiBMNDAzLjI4MDU1OCw0MDkuMzU4MDkyIEw0MDIuNzIwNzg0LDQxMS4wOTk1MTEgTDQwMi43MjA3ODQsNDExLjA5OTUxMSBMNDAyLjM2ODY5Myw0MTIuMjI0MDQ3IEM0MDIuMzExNjA3LDQxMi40MDg4ODUgNDAyLjI1NTM1Nyw0MTIuNTkyMzk5IDQwMi4yLDQxMi43NzQ1NDIgTDQwMC4xOTIxMyw0MTkuNTIyMjI3IEMzOTYuODMzMzMzLDQzMC43NjA2NTMgMzkzLjQxNjY2Nyw0NDEuOTQxMjA5IDM5MCw0NTIuNzc0NTQyIEwyMzMuMDM0MjcsNDUyLjc3NDU5NCBMMjI1LjYwNzE2Myw0NTQuNzQ2ODcxIEwyMjUuNjA3MTYzLDQ1NC43NDY4NzEgTDIyMC45OTkxMDEsNDU1Ljk1MDY2MyBMMjIwLjk5OTEwMSw0NTUuOTUwNjYzIEwyMTcuNTE1MTY4LDQ1Ni44NDQ2OTIgTDIxNy41MTUxNjgsNDU2Ljg0NDY5MiBMMjE1Ljc1NDAzOCw0NTcuMjg4ODE2IEwyMTUuNzU0MDM4LDQ1Ny4yODg4MTYgTDIxMy40MDk0NzEsNDU3Ljg2Nzg5IEwyMTMuNDA5NDcxLDQ1Ny44Njc4OSBMMjExLjk2NDM1OCw0NTguMjE0NTc4IEwyMTEuOTY0MzU4LDQ1OC4yMTQ1NzggTDIxMC40MzMzNDEsNDU4LjU2NzkxMiBMMjEwLjQzMzM0MSw0NTguNTY3OTEyIEwyMDkuNDI4ODI1LDQ1OC43ODY1NTkgTDIwOS40Mjg4MjUsNDU4Ljc4NjU1OSBMMjA4Ljc4MTcwNCw0NTguOTE2NjIgTDIwOC43ODE3MDQsNDU4LjkxNjYyIEwyMDcuNTg0MDAxLDQ1OS4xMzY2MzMgTDIwNy41ODQwMDEsNDU5LjEzNjYzMyBMMjA2LjExNDI0NSw0NTkuMzg5ODczIEwyMDYuMTE0MjQ1LDQ1OS4zODk4NzMgTDIwNS4wODM2MTEsNDU5LjU1MzEyMiBMMjA1LjA4MzYxMSw0NTkuNTUzMTIyIEwyMDQuNTkwNDIzLDQ1OS42MjQ4NyBMMjA0LjU5MDQyMyw0NTkuNjI0ODcgTDIwNC4xMjg1OTYsNDU5LjY4NjM4OCBMMjA0LjEyODU5Niw0NTkuNjg2Mzg4IEwyMDMuNzEwNTg2LDQ1OS43MzQ5NCBMMjAzLjcxMDU4Niw0NTkuNzM0OTQgTDIwMy4zNDg4NSw0NTkuNzY3Nzk0IEMyMDMuMTg0MTI2LDQ1OS43ODI2NDcgMjAzLjA0NTE3NSw0NTkuNzgyNjQ3IDIwMi45MzkwMDQsNDU5Ljc4MjY0NyBDMjAxLjE3NDQwOSw0NTkuNzI2NTM2IDE5OC40NDI4MDksNDU4LjU3Njc5MSAxOTcuOTk2NzI5LDQ1Ny45ODEyODggTDE5Ny44NTM1ODUsNDU3Ljc4MDU2NyBDMTk3LjgyNzcxNyw0NTcuNzQyODI1IDE5Ny44MDA4NDQsNDU3LjcwMjkzOCAxOTcuNzcyOTY2LDQ1Ny42NjA5MDYgTDE5Ny41OTM2MzIsNDU3LjM4Mjk4NCBMMTk3LjU5MzYzMiw0NTcuMzgyOTg0IEwxOTcuMzkwMTcyLDQ1Ny4wNTM1OTUgTDE5Ny4zOTAxNzIsNDU3LjA1MzU5NSBMMTk3LjA3MzcwMyw0NTYuNTIxMjQ1IEwxOTcuMDczNzAzLDQ1Ni41MjEyNDUgTDE5Ni42ODMxMTMsNDU1Ljg0MTU5NiBMMTk2LjY4MzExMyw0NTUuODQxNTk2IEwxOTYuMjQwNTU3LDQ1NS4wNTEwOTMgTDE5Ni4yNDA1NTcsNDU1LjA1MTA5MyBMMTk1LjU2OTY0Nyw0NTMuODI0NjUyIEwxOTUuNTY5NjQ3LDQ1My44MjQ2NTIgTDE5NS4wMDU4MzcsNDUyLjc3NTQ5MyBMMTk1LjAwNTgzNyw0NTIuNzc1NDkzIEwzNS4zLDQ1Mi43NzQ1NDIgTDM1LjMsNDUyLjg3NDU0MiBMMTcuMSw0NTIuODc0NTQyIEMxNi44LDQ1Mi4xNTQ1NDIgMTYuNTM2LDQ1MS4zOTg1NDIgMTYuMjg2NCw0NTAuNjQ5NzQyIEwxNS44LDQ0OS4xNzQ1NDIgTDE1LjgsNDQ5LjE3NDU0MiBDMTUuMDM4MDk1Miw0NDYuNzkzNTg5IDE0LjE2MzcxODgsNDQ0LjMwMzc5NCAxMy4yMzQyMjk2LDQ0MS43NDczMDkgTDEyLjUyNzY3NTIsNDM5LjgxODEwMSBMMTIuNTI3Njc1Miw0MzkuODE4MTAxIEw5Ljk2OTYxNTg2LDQzMi45MjU5OSBMOS45Njk2MTU4Niw0MzIuOTI1OTkgTDkuMjM2NjAzNzcsNDMwLjkzMzE1MiBMOS4yMzY2MDM3Nyw0MzAuOTMzMTUyIEw4LjUxMjUsNDI4LjkzNzA0MiBDNiw0MjEuOTQ5NTQyIDMuNzUsNDE0Ljk3NDU0MiAyLjgsNDA4Ljc3NDU0MiBDMS4yODgsMzk4LjgzODU0MiA1LjY2NjMyLDM5My45NDcyMjIgMTEuNzc3OTEwNCwzOTAuMzA1Njk5IEwxMi40NjM4OTc2LDM4OS45MDYwMzYgTDEyLjQ2Mzg5NzYsMzg5LjkwNjAzNiBMMTMuMTYyODgzMiwzODkuNTE1NTAzIEMxMy4yODAzOTM2LDM4OS40NTExMSAxMy4zOTgzOTI4LDM4OS4zODcwNSAxMy41MTY4NTQ0LDM4OS4zMjMyOTggTDE0LjIzMjk2MTYsMzg4Ljk0NDI5IEwxNC4yMzI5NjE2LDM4OC45NDQyOSBMMTQuOTU4ODk5MiwzODguNTcxNTE5IEwxNC45NTg4OTkyLDM4OC41NzE1MTkgTDE2LjA2MzQ2NTYsMzg4LjAyMTUyOCBMMTYuMDYzNDY1NiwzODguMDIxNTI4IEwxNy41NTg4LDM4Ny4yOTkyNDIgTDE3LjU1ODgsMzg3LjI5OTI0MiBMMjAuMjA5MjY4OCwzODYuMDM5NjA3IEwyMC4yMDkyNjg4LDM4Ni4wMzk2MDcgTDIxLjM0NzIsMzg1LjQ5MTM0MiBMMjEuMzQ3MiwzODUuNDkxMzQyIEwyMi4xMDMzMjQ4LDM4NS4xMjAxMzMgTDIyLjEwMzMyNDgsMzg1LjEyMDEzMyBMMjIuODU1OTc0NCwzODQuNzQzMDE1IEwyMi44NTU5NzQ0LDM4NC43NDMwMTUgTDIzLjYwMzg4MTYsMzg0LjM1ODgzMiBDMjMuNzI4MDY3MiwzODQuMjk0MTQ5IDIzLjg1MjAwMjQsMzg0LjIyOTEyMiAyMy45NzU2NjA4LDM4NC4xNjM3MyBMMjQuNzE0MDc4NCwzODMuNzY2Nzc5IEMyNi4wNjA5OCwzODMuMDMwMjYyIDI3LjM2OCwzODIuMjQzNTQyIDI4LjYsMzgxLjM3NDU0MiBDMzUuODc2NTk1NywzNzYuMDk3OTQ2IDQyLjUwMTMxMjgsMzcxLjgzNTM4NCA0OS4xNDQ1MjI5LDM2Ny44MTYzMTMgTDUxLjEzODcxMTEsMzY2LjYxNzEyNiBMNTEuMTM4NzExMSwzNjYuNjE3MTI2IEw1My4xMzgwMzExLDM2NS40Mjc5MjUgTDUzLjEzODAzMTEsMzY1LjQyNzkyNSBMNTUuMTQ2NTA1MSwzNjQuMjQ0MDg3IEw1NS4xNDY1MDUxLDM2NC4yNDQwODcgTDU4LjE4NTE3ODYsMzYyLjQ2ODI3MyBMNTguMTg1MTc4NiwzNjIuNDY4MjczIEw2Ny42MTQ4MjkxLDM1Ni45OTQ3OCBMNjcuNjE0ODI5MSwzNTYuOTk0NzggTDY5LjgwMDAwMzksMzU1LjcxOTAzMiBMNjkuODAwMDAzOSwzNTUuNzE5MDMyIEw3Mi4wMjY1MTA1LDM1NC40MTE2NjEgTDcyLjAyNjUxMDUsMzU0LjQxMTY2MSBMNzQuMjk4MzcxMywzNTMuMDY4MDQzIEw3NC4yOTgzNzEzLDM1My4wNjgwNDMgTDc2LjYxOTYwODQsMzUxLjY4MzU1NiBDNzcuMDEwODE5NCwzNTEuNDQ5MTQ2IDc3LjQwNDI1NTMsMzUxLjIxMjg0IDc3LjgsMzUwLjk3NDU0MiBMNzguMjg0NTEzNSwzNTAuNjkyMjQzIEw3OC4yODQ1MTM1LDM1MC42OTIyNDMgTDc5LjA5NzIwODEsMzUwLjIyOTExIEw3OS4wOTcyMDgxLDM1MC4yMjkxMSBMODAuOTkyNTI5OSwzNDkuMTc0MzMzIEw4MC45OTI1Mjk5LDM0OS4xNzQzMzMgTDg1LjU2MjA3MjEsMzQ2LjY2MDMzOCBMODUuNTYyMDcyMSwzNDYuNjYwMzM4IEw4OC4wNjQzODg0LDM0NS4yNjM3NTIgTDg4LjA2NDM4ODQsMzQ1LjI2Mzc1MiBMODkuMzMyMzI4OSwzNDQuNTQ0MjYyIEw4OS4zMzIzMjg5LDM0NC41NDQyNjIgTDkwLjU5NzEzMjMsMzQzLjgxNTg2MSBMOTAuNTk3MTMyMywzNDMuODE1ODYxIEw5MS44NDgwNTQ1LDM0My4wODI0NjMgQzkxLjk4NTg3NjcsMzQzLjAwMDg0MSA5Mi4xMjMyNDI5LDM0Mi45MTkyIDkyLjI2MDA4NjgsMzQyLjgzNzU2MiBMOTMuMDc0MzUxNSwzNDIuMzQ3OTgxIEw5My4wNzQzNTE1LDM0Mi4zNDc5ODEgTDkzLjg3Mjg5NjYsMzQxLjg1OTY1OSBMOTMuODcyODk2NiwzNDEuODU5NjU5IEw5NC42NTI1Mzg2LDM0MS4zNzM3NTQgTDk0LjY1MjUzODYsMzQxLjM3Mzc1NCBMOTUuNDEwMDk0MiwzNDAuODkxNDI5IEw5NS40MTAwOTQyLDM0MC44OTE0MjkgTDk2LjE0MjM3OTksMzQwLjQxMzg0MSBMOTYuMTQyMzc5OSwzNDAuNDEzODQxIEw5Ni44NDYyMTI0LDMzOS45NDIxNTEgQzk2Ljk2MDk2OTgsMzM5Ljg2NDA5MiA5Ny4wNzQ0MDkxLDMzOS43ODYzMjcgOTcuMTg2NDYzOCwzMzkuNzA4ODggTDk3Ljg0MTY0NzUsMzM5LjI0ODIxMiBDOTkuODYwNDI0MSwzMzcuODAyNzQ2IDEwMS4zMzE1MDcsMzM2LjQ4OTYxIDEwMS44LDMzNS40NzQ1NDIgQzEwMy41MzI5MTEsMzMxLjkxNTA0OCAxMDIuMjE2Nzc2LDMyNy42NTM2MTYgMTAwLjA1MDE1MSwzMjMuNTEyMTM1IEw5OS42OTE2OTg2LDMyMi44NDE3MjUgTDk5LjY5MTY5ODYsMzIyLjg0MTcyNSBMOTkuMzIwNDE5NywzMjIuMTc0MTk2IEw5OS4zMjA0MTk3LDMyMi4xNzQxOTYgTDk4LjkzODM5NzYsMzIxLjUxMDMyOCBDOTguODczOTQ3NywzMjEuNDAwMDMyIDk4LjgwOTEzNywzMjEuMjg5OTIgOTguNzQ0MDA4OSwzMjEuMTgwMDEgTDk4LjM0OTc3ODQsMzIwLjUyMzA5MyBMOTguMzQ5Nzc4NCwzMjAuNTIzMDkzIEw5Ny45NTAwMTMzLDMxOS44NzE3ODQgTDk3Ljk1MDAxMzMsMzE5Ljg3MTc4NCBMOTcuMzQ0NTQ1NiwzMTguOTA3MDM5IEw5Ny4zNDQ1NDU2LDMxOC45MDcwMzkgTDk0Ljk4NTY1MTQsMzE1LjI0NDMyNSBMOTQuOTg1NjUxNCwzMTUuMjQ0MzI1IEw5NC40NDY4Mjk2LDMxNC4zOTA4NTYgTDk0LjQ0NjgyOTYsMzE0LjM5MDg1NiBMOTQuMTA2MzA1MiwzMTMuODM4NDYgTDk0LjEwNjMwNTIsMzEzLjgzODQ2IEw5My43ODMxNjM2LDMxMy4zMDAyMzkgQzkzLjczMDg3MSwzMTMuMjExNzYgOTMuNjc5Mzg5NSwzMTMuMTIzOTA0IDkzLjYyODc2MjQsMzEzLjAzNjY4OCBMOTMuMzM1NjAxNCwzMTIuNTIxMTg5IEM5My4xMDA0MjQzLDMxMi4wOTgyMTcgOTIuODg4Nzc5OCwzMTEuNjkyMDM4IDkyLjcwNjA5MzQsMzExLjMwNDY4MSBMOTIuNiwzMTEuMDc0NTQyIEM4OC4zLDMwMS42NzQ1NDIgODYuMSwyOTMuNDc0NTQyIDg1LjUsMjg0LjE3NDU0MiBDNzAsMjgxLjY3NDU0MiA1OC4zLDI3Mi4zNzQ1NDIgNTAuOSwyNjEuOTc0NTQyIEMzOS4xLDI0NC42NzQ1NDIgMzAuOSwyMTIuNTc0NTQyIDQxLjEsMTg4LjE3NDU0MiBDNDEuMzEzMzMzMywxODcuNjY3ODc1IDQxLjc1NDIyMjIsMTg3LjAyNjA5NyA0Mi4yOTU2MTQ4LDE4Ni4zMDA0MDkgTDQzLjYyOTc0ODEsMTg0LjU0NzYwOSBMNDMuNjI5NzQ4MSwxODQuNTQ3NjA5IEw0NC4wOTQyNTE5LDE4My45MjI4MDkgQzQ1LjE3MTExMTEsMTgyLjQ0ODc2NCA0Ni4xNjY2NjY3LDE4MC44NzQ1NDIgNDYuNCwxNzkuNDc0NTQyIEM0Ni44ODEwNzQyLDE3Ni45Mzc5NjkgNDYuNTU4ODI5NCwxNzQuMDM3OTkgNDYuMDE4ODA1MSwxNzEuMDY3Mzc0IEw0NS44MzE1MzQzLDE3MC4wNzQ5NTUgQzQ1Ljc5OTI0NTksMTY5LjkwOTI0OSA0NS43NjY0ODYyLDE2OS43NDM0MjYgNDUuNzMzMzU1NSwxNjkuNTc3NTM2IEw0NS41MzA5MjMxLDE2OC41ODE3ODUgTDQ1LjUzMDkyMzEsMTY4LjU4MTc4NSBMNDUuMTQ1OTM3OCwxNjYuNzI3NDY3IEw0NS4xNDU5Mzc4LDE2Ni43Mjc0NjcgTDQ0Ljg4Mzc4MTIsMTY1LjQzNDUyMyBDNDQuNTAyMzE0LDE2My41MDQ2NDYgNDQuMTg2MDI5NCwxNjEuNjIzODA3IDQ0LjEsMTU5Ljg3NDU0MiBDNDIuOSwxMjguMTc0NTQyIDQ5LjQsMTAwLjg3NDU0MiA3MC44LDkxLjI3NDU0MTggQzc1Ljc3MDgsNzEuMzMzNTQxOCA4OC4yMjUwODE2LDU5LjA3NjQ3MzggMTAzLjQ4OTgxMSw0OC45ODA2NjIxIEwxMDQuODQzODc0LDQ4LjA5NTMyMzQgTDEwNC44NDM4NzQsNDguMDk1MzIzNCBMMTA2LjIxMTgxLDQ3LjIyMDM1OTMgQzEwNy4xMjgyMzQsNDYuNjQwMzIwNyAxMDguMDUzNDMxLDQ2LjA2NjYzNjQgMTA4Ljk4NjQ1MSw0NS40OTgxODI0IEwxMTAuMzkxNzI4LDQ0LjY0OTI4MzQgQzExMC42MjY4NzksNDQuNTA4NDA3MiAxMTAuODYyNDg5LDQ0LjM2NzgyMjcgMTExLjA5ODU0NCw0NC4yMjc1MTI0IEwxMTIuNTIwMDg0LDQzLjM4ODgwMDcgTDExMi41MjAwODQsNDMuMzg4ODAwNyBMMTEzLjk1MTU3NCw0Mi41NTU4MjY1IEMxMTQuMTkwOTQ2LDQyLjQxNzQyODggMTE0LjQzMDcwMiw0Mi4yNzkyMzUgMTE0LjY3MDgyOCw0Mi4xNDEyMjc2IEwxMTYuMTE1OTA2LDQxLjMxNTI3OTIgTDExNi4xMTU5MDYsNDEuMzE1Mjc5MiBMMTE4LjI5ODYxMyw0MC4wODI4OTkyIEwxMTguMjk4NjEzLDQwLjA4Mjg5OTIgTDExOS43NjI3NzEsMzkuMjY0NDQ0OSBMMTE5Ljc2Mjc3MSwzOS4yNjQ0NDQ5IEwxMjIuNzA5NTIzLDM3LjYzMTI2IEwxMjIuNzA5NTIzLDM3LjYzMTI2IEwxMjguMTczOTA3LDM0LjYyMjQ1NiBDMTMxLjk3NzU4LDMyLjUyNTkwMTggMTM1LjgwNCwzMC4zOTc1NDE4IDEzOS42LDI4LjE3NDU0MTggQzE0Ny4zMzU0ODQsMjMuNTYxNjM4NiAxNTUuNjc1MzM4LDIwLjE1NzQ3NjMgMTY0LjI5Nzg4MiwxNi45MjU1MjcgTDE2Ny44NDAyNCwxNS42MTAzNDQ2IEwxNjcuODQwMjQsMTUuNjEwMzQ0NiBMMTc1LDEyLjk3NDU0MTggTDE3NSwxMi45NzQ1NDE4IEMyMTkuNCwtMy40MjU0NTgxNSAyODgsLTAuMzI1NDU4MTU0IDMyNC45LDI3LjY3NDU0MTggWiBNMTkwLjYsNDA5LjU3NDU0MiBDMTkwLjg4ODg4OSw0MTUuNDAwNDY4IDE5Mi40NzU5OTUsNDIxLjM0MjMwNiAxOTQuMzU2NzQ0LDQyNi44MzA3OTkgTDE5NC43OTU1MTksNDI4LjA4OTA2NyBDMTk0Ljk0MzIxLDQyOC41MDU2MzUgMTk1LjA5MjE4MSw0MjguOTE5MjYxIDE5NS4yNDE5NzUsNDI5LjMyOTY4NiBMMTk1LjY5MzM3LDQzMC41NTExIEwxOTUuNjkzMzcsNDMwLjU1MTEgTDE5Ni4xNDY5NTksNDMxLjc1MTc1NiBMMTk2LjE0Njk1OSw0MzEuNzUxNzU2IEwxOTcuMDQ5NzQ5LDQzNC4wODQ1NzEgTDE5Ny4wNDk3NDksNDM0LjA4NDU3MSBMMTk4LjU1ODMzMyw0MzcuOTE0ODIgTDE5OC41NTgzMzMsNDM3LjkxNDgyIEwxOTkuMTUzMDg2LDQzOS40NDQ1MDEgTDE5OS4xNTMwODYsNDM5LjQ0NDUwMSBMMTk5LjUyNTQ2OSw0NDAuNDIzMTE3IEMxOTkuNTg1NzM0LDQ0MC41ODMzNjcgMTk5LjY0NTA2Miw0NDAuNzQyMTY5IDE5OS43MDMzOTUsNDQwLjg5OTQ5IEwyMDAuMDQxMDA0LDQ0MS44MjUzOTcgQzIwMC4wOTUxMyw0NDEuOTc2NjY4IDIwMC4xNDgxNDgsNDQyLjEyNjM5NCAyMDAuMiw0NDIuMjc0NTQyIEMyMDAuMzAyNDM5LDQ0Mi41NDUyNzQgMjAwLjM5ODk4OSw0NDIuODE3NjExIDIwMC40OTExNzcsNDQzLjA5MDE0NSBMMjAwLjY3MDE5MSw0NDMuNjM1MDU2IEwyMDAuNjcwMTkxLDQ0My42MzUwNTYgTDIwMC44NDAyOSw0NDQuMTc3OTgyIEwyMDAuODQwMjksNDQ0LjE3Nzk4MiBMMjAxLjMyNDI2MSw0NDUuNzY5Nzc4IEwyMDEuMzI0MjYxLDQ0NS43Njk3NzggTDIwMS40ODU4NjQsNDQ2LjI3OTY5MyBMMjAxLjQ4NTg2NCw0NDYuMjc5NjkzIEwyMDEuNjUyMTMyLDQ0Ni43NzUwODYgQzIwMi4zMzAxNjEsNDQ4LjcyNDI3NCAyMDMuMTg1MzY2LDQ1MC4yNjQ3ODYgMjA1LDQ1MC42NzQ1NDIgQzIwNy4xNiw0NTEuMTM3Mzk5IDIxMS4yNTQwODIsNDUwLjMyMDc4NyAyMTUuNzczMDI0LDQ0OC45ODIxODUgTDIxNi43ODM2MTMsNDQ4LjY3NjQzMyBDMjE2Ljk1MzAwNiw0NDguNjI0MTQ1IDIxNy4xMjI4MjgsNDQ4LjU3MTIxOCAyMTcuMjkzMDAzLDQ0OC41MTc2OTEgTDIxOC4zMTc2NzIsNDQ4LjE4OTYyNSBDMjE4LjY2MDIzMSw0NDguMDc4MDczIDIxOS4wMDM1ODcsNDQ3Ljk2NDQyNiAyMTkuMzQ3MTI4LDQ0Ny44NDg5OTMgTDIyMC4zNzc2ODksNDQ3LjQ5NzY0MiBMMjIwLjM3NzY4OSw0NDcuNDk3NjQyIEwyMjEuOTE3NTUyLDQ0Ni45NTQ1NTYgTDIyMS45MTc1NTIsNDQ2Ljk1NDU1NiBMMjIzLjQzOTIsNDQ2LjM5Nzc0MiBMMjIzLjQzOTIsNDQ2LjM5Nzc0MiBMMjI0LjQzNzM3OCw0NDYuMDIxOTg0IEwyMjQuNDM3Mzc4LDQ0Ni4wMjE5ODQgTDIyNS40MTgyNiw0NDUuNjQ0NzQ0IEwyMjUuNDE4MjYsNDQ1LjY0NDc0NCBMMjI2LjM3ODE2NCw0NDUuMjY3ODY3IEwyMjYuMzc4MTY0LDQ0NS4yNjc4NjcgTDIyNy4zMTM0MTEsNDQ0Ljg5MzIwMSBMMjI3LjMxMzQxMSw0NDQuODkzMjAxIEwyMjguMjIwMzIsNDQ0LjUyMjU5MyBMMjI4LjIyMDMyLDQ0NC41MjI1OTMgTDIyOS4wOTUyMDksNDQ0LjE1Nzg5MSBMMjI5LjA5NTIwOSw0NDQuMTU3ODkxIEwyMjkuOTM0NCw0NDMuODAwOTQyIEwyMjkuOTM0NCw0NDMuODAwOTQyIEwyMzAuNzM0MjExLDQ0My40NTM1OTMgTDIzMC43MzQyMTEsNDQzLjQ1MzU5MyBMMjMxLjg1MjA0LDQ0Mi45NTQ2MDkgTDIzMS44NTIwNCw0NDIuOTU0NjA5IEwyMzIuODYwNTYyLDQ0Mi40ODc2MTcgTDIzMi44NjA1NjIsNDQyLjQ4NzYxNyBMMjMzLjQ2NjA1LDQ0Mi4xOTcxNCBDMjMzLjU2MjI1Miw0NDIuMTUwMjQ2IDIzMy42NTYwNDYsNDQyLjEwNDEzNiAyMzMuNzQ3MzU2LDQ0Mi4wNTg4NSBMMjM0LjI2NDc5MSw0NDEuNzk3MzIgQzIzNC4zNDU4NTcsNDQxLjc1NTQ4MSAyMzQuNDI0Mjg2LDQ0MS43MTQ1NDIgMjM0LjUsNDQxLjY3NDU0MiBDMjQwLjI2OTY5Nyw0MzguNTMyMTE4IDI0NS4zNzU5NDEsNDM0LjQzNDMyMSAyNTAuMjgzNTUyLDQzMC4zMTA3OTEgTDI1Mi4wMDgxNTksNDI4Ljg1NTg3MyBMMjUyLjAwODE1OSw0MjguODU1ODczIEwyNTMuNzIwODExLDQyNy40MDc5IEMyNTcuMTM3MTksNDI0LjUyNDk1NSAyNjAuNTA5MDkxLDQyMS43MzgxNzggMjY0LDQxOS4zNzQ1NDIgQzI2NC4zLDQxNi4xNzQ1NDIgMjY0LjMsNDEyLjk3NDU0MiAyNjQuNiw0MDkuODc0NTQyIEMyNTksNDA3LjA3NDU0MiAyNTIuNSw0MDUuMDc0NTQyIDI0NCw0MDQuNjc0NTQyIEMyNDYuMjQ1MTYxLDQwMy41NTE5NjEgMjQ4Ljg2NDkzMiw0MDIuODYzOTI4IDI1MS41NDAyOTEsNDAyLjI1MDgxNyBMMjU0LjIyMjM2Miw0MDEuNjQ5MzYgQzI1Ny41Njg1NzQsNDAwLjg5NTQ1OCAyNjAuODM1NDg0LDQwMC4wNzEzMTYgMjYzLjQsMzk4LjQ3NDU0MiBMMjYzLjcsMzk0Ljc3NDU0MiBDMjU4LjY0OTk0OSwzOTQuNTAzMDM0IDI1NS4yODA2MzgsMzkzLjExMTAzMyAyNTIuMjYzMDkzLDM5MS4zNjcxMDIgTDI1MS42NDMzNTcsMzkxLjAwMTUxOSBMMjUxLjY0MzM1NywzOTEuMDAxNTE5IEwyNTEuMDMxMDQzLDM5MC42Mjc0MDUgQzI1MC45Mjk0NjQsMzkwLjU2NDQyNiAyNTAuODI4MDg1LDM5MC41MDExNTUgMjUwLjcyNjg1MywzOTAuNDM3NjIzIEwyNTAuMTIwNzY5LDM5MC4wNTM1NDkgTDI1MC4xMjA3NjksMzkwLjA1MzU0OSBMMjQ4Ljg5MjE4OCwzODkuMjYyMDQyIEMyNDcuNTM3NSwzODguMzg3MDQyIDI0Ni4xNSwzODcuNDk5NTQyIDI0NC42LDM4Ni42NzQ1NDIgTDI0My41LDM4Ni40NzQ1NDIgQzIzMy4zLDM4MC44NzQ1NDIgMjE4LDM3NC44NzQ1NDIgMjA0LjcsMzcyLjI3NDU0MiBDMTkzLjYxNiwzNzAuMTY2NTQyIDE5MC44NTUyLDM4MS4yMzY5NDIgMTkwLjM4MDUwNiwzOTMuMjU0MzM3IEwxOTAuMzQ0NCwzOTQuMzE2ODQyIEMxOTAuMzM5MzIsMzk0LjQ5NDIzMiAxOTAuMzM0Njk2LDM5NC42NzE3NDkgMTkwLjMzMDUwOSwzOTQuODQ5MzU0IEwxOTAuMzEwNDc0LDM5NS45MTU3MzEgTDE5MC4zMTA0NzQsMzk1LjkxNTczMSBMMTkwLjMsMzk2Ljk4MjM1NCBMMTkwLjMsMzk2Ljk4MjM1NCBMMTkwLjI5ODE2NiwzOTguMDQ3MzU4IEwxOTAuMjk4MTY2LDM5OC4wNDczNTggTDE5MC4zMDk2LDM5OS42Mzc3NDIgTDE5MC4zMDk2LDM5OS42Mzc3NDIgTDE5MC4zMzUyOSw0MDEuMjEzOTc4IEwxOTAuMzM1MjksNDAxLjIxMzk3OCBMMTkwLjM1ODgsNDAyLjI1MzgyOSBMMTkwLjM1ODgsNDAyLjI1MzgyOSBMMTkwLjQxNjk5NSw0MDQuMjk4Nzk4IEwxOTAuNDE2OTk1LDQwNC4yOTg3OTggTDE5MC42LDQwOS41NzQ1NDIgTDE5MC42LDQwOS41NzQ1NDIgWiBNMzQ3LjQsMzM4Ljc3NDU0MiBDMzQ1LjMyMzI1NiwzNDEuODY3NTY1IDM0Mi4yMTE3MzYsMzQ0LjQ5MjAxMSAzMzkuMDU3NTM2LDM0Ni45MzI1NjcgTDMzNy41NjQxNTQsMzQ4LjA3NTk4NyBMMzM3LjU2NDE1NCwzNDguMDc1OTg3IEwzMzUuNjAzNTQ3LDM0OS41NjkzOCBMMzM1LjYwMzU0NywzNDkuNTY5MzggTDMzNC42NTE5NjUsMzUwLjMwNzIwMiBDMzMyLjMwNTYyNSwzNTIuMTQ2ODUxIDMzMC4yMjU1ODEsMzUzLjk1NTkzNyAzMjguOSwzNTUuODc0NTQyIEMzNTYuMSwzNDIuOTc0NTQyIDM2MSw0MDUuMDc0NTQyIDM1MC4zLDQyNS4wNzQ1NDIgQzM1MS4xMjU3MTQsNDI4LjAzNzM5OSAzNTIuODcxNTEsNDMwLjEwMzc2NiAzNTQuNzIzODA2LDQzMi4wNjQzMDcgTDM1Ni4wMzg0LDQzMy40NDA5NDIgQzM1Ny41NjgsNDM1LjA1MDU0MiAzNTkuMDQsNDM2LjcxNDU0MiAzNjAsNDM4Ljg3NDU0MiBMMzU4LjQsNDQxLjk3NDU0MiBMMzgyLjYsNDQxLjk3NDU0MiBDMzgyLjgsNDQxLjk3NDU0MiAzODMuMiw0NDEuOTc0NTQyIDM4My40LDQ0Mi4xNzQ1NDIgTDM4My40LDQ0MS41NzQ1NDIgTDM4NC4xNjM1NTcsNDM5LjA5MzgyIEMzODQuNjY3MjAxLDQzNy40NDM2MDIgMzg1LjE1OTc2Nyw0MzUuODAxMTA5IDM4NS42Mzk1MDQsNDM0LjE2OTU0OSBMMzg2LjM0OTI3MSw0MzEuNzMwODEgQzM4OC41NjUwMTUsNDI0LjAzNjY0MSAzOTAuNDcxNTkzLDQxNi42MjUzMjUgMzkxLjg4MTUzMiw0MDkuODQwNTYzIEwzOTIuMjQ5Nzg4LDQwOC4wNTE0NDYgTDM5Mi4yNDk3ODgsNDA4LjA1MTQ0NiBMMzkzLjQxOTM5LDQwMi41OTk1OSBMMzkzLjQxOTM5LDQwMi41OTk1OSBMMzkzLjc0NDU1OCw0MDEuMDM3MTYyIEwzOTMuNzQ0NTU4LDQwMS4wMzcxNjIgTDM5My45NTk3NzYsMzk5Ljk3MzE1OSBMMzkzLjk1OTc3NiwzOTkuOTczMTU5IEwzOTQuMjc0MDIxLDM5OC4zNTkwNjYgTDM5NC4yNzQwMjEsMzk4LjM1OTA2NiBMMzk0LjQ3NDE1NiwzOTcuMjc5OTc5IEwzOTQuNDc0MTU2LDM5Ny4yNzk5NzkgTDM5NC42NjM4ODksMzk2LjIwNTcwMSBDMzk0LjY5NDUwNSwzOTYuMDI3Mzk5IDM5NC43MjQ1ODQsMzk1Ljg0OTU1NiAzOTQuNzU0MDc0LDM5NS42NzIzMDEgTDM5NC45MjM1MjIsMzk0LjYxNjg1IEMzOTUuNDA4MTQ4LDM5MS40Nzc4NDcgMzk1LjY2ODA4NSwzODguNjEyODQgMzk1LjQsMzg2Ljc3NDU0MiBDMzk0Ljg0MTUzOCwzODIuNDA4Mzg4IDM5MS41NTA5MTEsMzc4LjYwOTI4NyAzODcuNjYxMTExLDM3NS4yMjAyMSBMMzg2Ljk0Nzc0NywzNzQuNjA4NDk3IEMzODYuODI3OTExLDM3NC41MDcyODYgMzg2LjcwNzY0MywzNzQuNDA2NDQ0IDM4Ni41ODcwMDMsMzc0LjMwNTk2NCBMMzg1Ljg1OTE3NCwzNzMuNzA3NDEyIEwzODUuODU5MTc0LDM3My43MDc0MTIgTDM4NS4xMjUyNjIsMzczLjExNzM3MyBMMzg1LjEyNTI2MiwzNzMuMTE3MzczIEwzODQuMzg4MTE2LDM3Mi41MzU2MzYgTDM4NC4zODgxMTYsMzcyLjUzNTYzNiBMMzgzLjI4MjU2NywzNzEuNjc4MTM4IEwzODMuMjgyNTY3LDM3MS42NzgxMzggTDM4MC4wNTY4ODIsMzY5LjIwNzgxMyBMMzgwLjA1Njg4MiwzNjkuMjA3ODEzIEwzNzkuMzc2ODczLDM2OC42NzgzMTkgTDM3OS4zNzY4NzMsMzY4LjY3ODMxOSBMMzc4LjcxNjQyMywzNjguMTU1NDQ5IEwzNzguNzE2NDIzLDM2OC4xNTU0NDkgTDM3OC4wNzgzOCwzNjcuNjM4OTkzIEMzNzcuNTU2ODA1LDM2Ny4yMTEyMjggMzc3LjA2MTUzOCwzNjYuNzg5OTI2IDM3Ni42LDM2Ni4zNzQ1NDIgQzM3My41MzQzNzUsMzYzLjU5MDE2NyAzNzAuNzg1MTU2LDM2MC45MjQ0NDQgMzY4LjE2MzI0MiwzNTguMzIzOTggTDM2NS41NzY3NTgsMzU1Ljc0MzI5MiBMMzY1LjU3Njc1OCwzNTUuNzQzMjkyIEwzNjMuMDMzMTIxLDM1My4xOTQyNDQgTDM2My4wMzMxMjEsMzUzLjE5NDI0NCBMMzYxLjM0MDQxNCwzNTEuNTA2NTk4IEMzNTcuMDk4NzMsMzQ3LjI5NTUzOCAzNTIuNzQzNzUsMzQzLjEzMzkxNyAzNDcuNCwzMzguNzc0NTQyIFogTTMxOSw0MzAuODc0NTQyIEwzMTguNCw0NDAuOTc0NTQyIEwzNTAuMzAwNDY0LDQ0MC45NzQgTDM1MC4xMzg5NTEsNDQwLjczNTk2OCBDMzQ5Ljg5ODQ4MSw0NDAuMzg1MTAyIDM0OS42NDkwNjUsNDQwLjAzNjMzNCAzNDkuMzkwOTM3LDQzOS42OTA0NjcgTDM0OC45OTcyNDEsNDM5LjE3Mzk0MSBDMzQ4Ljg2Mzg1MSw0MzkuMDAyNTU3IDM0OC43MjgzMTIsNDM4LjgzMTk5OSAzNDguNTkwNjU0LDQzOC42NjIzNjYgTDM0OC4xNzEzNTMsNDM4LjE1NjM0MyBMMzQ4LjE3MTM1Myw0MzguMTU2MzQzIEwzNDcuNzM5NTEzLDQzNy42NTY0NzQgTDM0Ny43Mzk1MTMsNDM3LjY1NjQ3NCBMMzQ3LjI5NTMxMSw0MzcuMTYzMzU3IEMzNDcuMjIwMjU3LDQzNy4wODE3NjggMzQ3LjE0NDY5NSw0MzcuMDAwNDg0IDM0Ny4wNjg2MjksNDM2LjkxOTUyIEwzNDYuNjA2MjEzLDQzNi40Mzc2NjEgQzM0Ni41MjgxNDYsNDM2LjM1ODAyMiAzNDYuNDQ5NTgxLDQzNi4yNzg3MjggMzQ2LjM3MDUyNCw0MzYuMTk5NzkgTDM0NS44OTAyOTIsNDM1LjczMDU0IEwzNDUuODkwMjkyLDQzNS43MzA1NCBMMzQ1LjM5ODQwMiw0MzUuMjcwNDQ3IEMzNDQuODE3Nzk5LDQzNC43MzkyNDggMzQ0LjIxMzc1NSw0MzQuMjI3OTcxIDM0My41ODc1MjksNDMzLjc0MDkxIEwzNDMuMDQ1MzYsNDMzLjMyOTQ2IEMzMzYuNzQ4NjI3LDQyOC42NjgyOTEgMzI4LjMzMTU2LDQyNi40NzkyNDIgMzE5LDQzMC44NzQ1NDIgWiBNMjU2LjEsNDM3LjM3NDU0MiBMMjUwLjUsNDQwLjk3NDU0MiBMMjU4LjY4NDQ2NCw0NDAuOTc0IEwyNTcuMDI5NzQ1LDQzOC42ODg1MSBDMjU2LjcxNzE0Myw0MzguMjU0MjE1IDI1Ni40MDg1NzEsNDM3LjgyMDI1NiAyNTYuMSw0MzcuMzc0NTQyIFogTTMxLjMsNDQwLjY3NDU0MiBMMTkwLjgxNDQ2NCw0NDAuNjc0NTQyIEwxODguNTEzNzE5LDQzMy4xOTA2MTcgTDE4OC41MTM3MTksNDMzLjE5MDYxNyBMMTg3LjgxMzYzMSw0MzAuODc0MzM0IEwxODcuODEzNjMxLDQzMC44NzQzMzQgTDE4Ny4xNDg2MzQsNDI4LjYyODI3MiBMMTg3LjE0ODYzNCw0MjguNjI4MjcyIEwxODYuNzI0NzM2LDQyNy4xNjkxODYgTDE4Ni43MjQ3MzYsNDI3LjE2OTE4NiBMMTg2LjExNzk1Miw0MjUuMDM2OTA1IEwxODYuMTE3OTUyLDQyNS4wMzY5MDUgTDE4NS43MzI3NSw0MjMuNjUyMzE1IEwxODUuNzMyNzUsNDIzLjY1MjMxNSBMMTg1LjM2Mjk2Myw0MjIuMjk2NzY0IEwxODUuMzYyOTYzLDQyMi4yOTY3NjQgTDE4NS4wMDg1NTUsNDIwLjk2OTgxNyBMMTg1LjAwODU1NSw0MjAuOTY5ODE3IEwxODQuNjY5NDg5LDQxOS42NzEwNDEgTDE4NC42Njk0ODksNDE5LjY3MTA0MSBMMTg0LjM0NTczLDQxOC40IEwxODQuMzQ1NzMsNDE4LjQgTDE4NC4wMzcyNDEsNDE3LjE1NjI2MiBMMTg0LjAzNzI0MSw0MTcuMTU2MjYyIEwxODMuNzQzOTg1LDQxNS45MzkzOSBMMTgzLjc0Mzk4NSw0MTUuOTM5MzkgTDE4My40NjU5MjgsNDE0Ljc0ODk1MiBMMTgzLjQ2NTkyOCw0MTQuNzQ4OTUyIEwxODMuMjAzMDMyLDQxMy41ODQ1MTMgTDE4My4yMDMwMzIsNDEzLjU4NDUxMyBMMTgyLjk1NTI2Miw0MTIuNDQ1NjM5IEwxODIuOTU1MjYyLDQxMi40NDU2MzkgTDE4Mi43MjI1OCw0MTEuMzMxODk1IEwxODIuNzIyNTgsNDExLjMzMTg5NSBMMTgyLjUwNDk1Miw0MTAuMjQyODQ4IEwxODIuNTA0OTUyLDQxMC4yNDI4NDggTDE4Mi4zMDIzNDEsNDA5LjE3ODA2MyBDMTgyLjIzNzMwMiw0MDguODI3MTMgMTgyLjE3NDc2MSw0MDguNDgwMTY5IDE4Mi4xMTQ3MSw0MDguMTM3MTA2IEwxODEuOTQyMDI0LDQwNy4xMTk1NDMgQzE4MS45MTQ0ODYsNDA2Ljk1MTg3NCAxODEuODg3NTcsNDA2Ljc4NTE2MiAxODEuODYxMjc0LDQwNi42MTkzOTggTDE4MS43MTA5MzYsNDA1LjYzNjExMSBMMTgxLjcxMDkzNiw0MDUuNjM2MTExIEwxODEuNTc1NDUzLDQwNC42NzUxMzIgTDE4MS41NzU0NTMsNDA0LjY3NTEzMiBMMTgxLjQ1NDc4Nyw0MDMuNzM2MDI3IEMxODEuNDM1OTA5LDQwMy41ODEzMDggMTgxLjQxNzY0Nyw0MDMuNDI3NDgzIDE4MS40LDQwMy4yNzQ1NDIgTDE3Ny42MzIwODIsNDAxLjQ3NTIwOCBMMTc3LjYzMjA4Miw0MDEuNDc1MjA4IEwxNzAuMDQzMTIzLDM5Ny44NjM2MTIgTDE3MC4wNDMxMjMsMzk3Ljg2MzYxMiBMMTY3LjUwOTQ3OCwzOTYuNjQ5Nzg3IEwxNjcuNTA5NDc4LDM5Ni42NDk3ODcgTDE2NC45NzkxNzUsMzk1LjQyODE5NyBDMTY0LjU1NzkxNCwzOTUuMjIzODU5IDE2NC4xMzY5MjYsMzk1LjAxOTEyOCAxNjMuNzE2Mjc4LDM5NC44MTM5NjggTDE2MS4xOTY5OTcsMzkzLjU3NzU5NiBDMTUxLjE0MDQzOSwzODguNjA5MzM0IDE0MS4zNTYzMzMsMzgzLjM1NDQxMyAxMzIuNzY3MzM0LDM3Ny4zMzE0NDggTDEzMS42MTk5NzYsMzc2LjUxNjgwMSBMMTMxLjYxOTk3NiwzNzYuNTE2ODAxIEwxMzEuNDM5NTIsMzc2LjM3MjIzOCBDMTMxLjQwNzIxOCwzNzYuMzQ0OTc1IDEzMS4zNzM4MTcsMzc2LjMxNjE0OCAxMzEuMzM5MzM4LDM3Ni4yODU3ODkgTDEzMS4xMTk2OTEsMzc2LjA4NTQ4OSBMMTMxLjExOTY5MSwzNzYuMDg1NDg5IEwxMzAuODc1MTcsMzc1Ljg0OTkwMiBMMTMwLjg3NTE3LDM3NS44NDk5MDIgTDEzMC40NjM5MzUsMzc1LjQzMzYyNCBMMTMwLjQ2MzkzNSwzNzUuNDMzNjI0IEwxMjkuODM3ODk5LDM3NC43NjkwMyBMMTI5LjgzNzg5OSwzNzQuNzY5MDMgTDEyOS4zMTQ0NiwzNzQuMTk0OTU1IEwxMjkuMzE0NDYsMzc0LjE5NDk1NSBMMTI4Ljc0ODU2MywzNzMuNTYxNjYzIEwxMjguNzQ4NTYzLDM3My41NjE2NjMgTDEyNy45MzM4MjksMzcyLjYzMzg3NSBMMTI3LjkzMzgyOSwzNzIuNjMzODc1IEwxMjYuNTk4OTgsMzcxLjA4Nzc3NyBMMTI2LjU5ODk4LDM3MS4wODc3NzcgTDEyMC4xMzMxODYsMzYzLjQ4MDQxMiBMMTIwLjEzMzE4NiwzNjMuNDgwNDEyIEwxMTguMDk5MTc3LDM2MS4xMTc4MTYgTDExOC4wOTkxNzcsMzYxLjExNzgxNiBMMTE2Ljg1MzEyMSwzNTkuNjkyMzEyIEwxMTYuODUzMTIxLDM1OS42OTIzMTIgTDExNS42NDIyMzksMzU4LjMyOTcxNCBMMTE1LjY0MjIzOSwzNTguMzI5NzE0IEwxMTQuOTM4MDY4LDM1Ny41NTA1MjUgTDExNC45MzgwNjgsMzU3LjU1MDUyNSBMMTE0LjI1NDE0LDM1Ni44MDUzMDIgTDExNC4yNTQxNCwzNTYuODA1MzAyIEwxMTMuNTkzMjk3LDM1Ni4wOTgyODkgTDExMy41OTMyOTcsMzU2LjA5ODI4OSBMMTEyLjk1ODM4MSwzNTUuNDMzNzMzIEwxMTIuOTU4MzgxLDM1NS40MzM3MzMgTDExMi4zNTIyMzQsMzU0LjgxNTg3NyBMMTEyLjM1MjIzNCwzNTQuODE1ODc3IEwxMTEuOTY1NTIzLDM1NC40MzIwMTQgTDExMS45NjU1MjMsMzU0LjQzMjAxNCBMMTExLjU5MzcwNCwzNTQuMDcyMDUxIEwxMTEuNTkzNzA0LDM1NC4wNzIwNTEgTDExMS4yMzc2MTksMzUzLjczNzI0NiBMMTExLjIzNzYxOSwzNTMuNzM3MjQ2IEwxMTAuODk4MTExLDM1My40Mjg4NTcgTDExMC44OTgxMTEsMzUzLjQyODg1NyBMMTEwLjU3NjAyMSwzNTMuMTQ4MTQyIEwxMTAuNTc2MDIxLDM1My4xNDgxNDIgTDExMC4yNzIxOTEsMzUyLjg5NjM1NyBMMTEwLjI3MjE5MSwzNTIuODk2MzU3IEwxMDkuOTg3NDY1LDM1Mi42NzQ3NjIgQzEwOS4zNDYwNDQsMzUyLjE5MzkwNiAxMDguODY3NTA4LDM1MS45Njk4NjUgMTA4LjYsMzUyLjA3NDU0MiBDODUuMTc5NzI5NywzNjEuMTcwNDg4IDYyLjk5MDU3NzEsMzc1LjEzOTYwOCA0Mi4yNTI5Nzg2LDM5MC4wODc1MjEgTDM5LjkxMTUzODgsMzkxLjc4MzcxIEwzOS45MTE1Mzg4LDM5MS43ODM3MSBMMzcuNTgyNTcyMSwzOTMuNDg3MDA2IEMzNy4xOTU0NTQ0LDM5My43NzE0MTEgMzYuODA4ODU5MywzOTQuMDU2MDYgMzYuNDIyNzg4NCwzOTQuMzQwOTI3IEwzNC4xMTI2NjQ2LDM5Ni4wNTI1MjkgTDM0LjExMjY2NDYsMzk2LjA1MjUyOSBMMzEuODE1MTkxNiwzOTcuNzY4MSBMMzEuODE1MTkxNiwzOTcuNzY4MSBMMjkuNTMwNDQwNCwzOTkuNDg2MzgzIEwyOS41MzA0NDA0LDM5OS40ODYzODMgTDI3LjI1ODQ4MjIsNDAxLjIwNjEyMyBMMjcuMjU4NDgyMiw0MDEuMjA2MTIzIEwyNC45OTkzODgsNDAyLjkyNjA2NSBMMjQuOTk5Mzg4LDQwMi45MjYwNjUgTDIyLjc1MzIyODgsNDA0LjY0NDk1MiBMMjIuNzUzMjI4OCw0MDQuNjQ0OTUyIEwyMC41MjAwNzU4LDQwNi4zNjE1MyBMMjAuNTIwMDc1OCw0MDYuMzYxNTMgTDE4LjMsNDA4LjA3NDU0MiBMMTguMyw0MDguMDc0NTQyIEMyMy4xLDQxOC40NzQ1NDIgMjcuMyw0MjkuNDc0NTQyIDMxLjMsNDQwLjY3NDU0MiBaIE0yODIuMjU2MDc5LDQyMS44MjA3MzEgTDI4MC40NzA0NTIsNDIyLjY3MTI0MSBMMjgwLjQ3MDQ1Miw0MjIuNjcxMjQxIEwyNzkuOTEyNjk0LDQyMi45Mjk2ODIgTDI3OS45MTI2OTQsNDIyLjkyOTY4MiBMMjc5LjM0OTk1NSw0MjMuMTgwOTA4IEMyNzYuNTIyODA0LDQyNC40MTM1ODMgMjczLjQ4NjIwNyw0MjUuMjUzODUyIDI2OS45LDQyMy44NzQ1NDIgQzI2OS40ODQ2MTUsNDI0LjMzNjA4IDI2OS4wNzk4ODIsNDI0LjgxMzU5NSAyNjguNjc5NjU0LDQyNS4yOTQ3OTcgTDI2Ny40ODYzNDUsNDI2LjczNzE3MyBDMjY2LjU1OTE3Miw0MjcuODQ4NTA2IDI2NS42MjMwNzcsNDI4LjkxMzAwMyAyNjQuNiw0MjkuNzc0NTQyIEMyNjcuNSw0MzMuMTc0NTQyIDI3MC4xLDQzNi43NzQ1NDIgMjcyLjUsNDQwLjY3NDU0MiBMMjg3LjgsNDQwLjY3NDU0MiBDMjg4LjEsNDM3LjU3NDU0MiAyOTAuNCw0MzUuMjc0NTQyIDI5My40LDQzNS4yNzQ1NDIgQzI5Ni41LDQzNS4yNzQ1NDIgMjk4LjcsNDM3LjU3NDU0MiAyOTguNyw0NDAuMzc0NTQyIEwzMTAuODQ1NDY0LDQ0MC4zNzQgTDMxMS4xNzUsNDM0LjE3MjAwMyBMMzExLjE3NSw0MzQuMTcyMDAzIEwzMTEuNCw0MzAuMDc0NTQyIEwzMTEuNCw0MzAuMDc0NTQyIEMzMDYuNCw0MzAuMzI0NTQyIDMwMi41MjUsNDI4LjA3NDU0MiAyOTkuMDM3NSw0MjUuNjQ5NTQyIEwyOTcuOTY2Nzk3LDQyNC44OTM5MTEgTDI5Ny45NjY3OTcsNDI0Ljg5MzkxMSBMMjk2LjkxNjA3NSw0MjQuMTQyNDg3IEwyOTYuOTE2MDc1LDQyNC4xNDI0ODcgTDI5Ni4yMjQyNzcsNDIzLjY1MTUwMiBMMjk2LjIyNDI3Nyw0MjMuNjUxNTAyIEwyOTUuNTM3NzMxLDQyMy4xNzM4MjUgQzI5My4zNzA0NTIsNDIxLjY4NzA4NiAyOTEuMjYwMzQ1LDQyMC40NjkzNjkgMjg5LDQyMC4xNzQ1NDIgQzI4Ni42ODYyMDcsNDE5Ljg3MTA5NCAyODQuNTAxOTAyLDQyMC43NjE4MTkgMjgyLjI1NjA3OSw0MjEuODIwNzMxIFogTTI5My4xLDM4Ni43NzQ1NDIgQzI5My4yOCwzODcuMzM0NTQyIDI5My40OTIsMzg3Ljg3MDU0MiAyOTMuNzE4NCwzODguNDAxNzQyIEwyOTMuOTk1ODY2LDM4OS4wMzgxMDcgTDI5My45OTU4NjYsMzg5LjAzODEwNyBMMjk0LjQyMzIsMzkwLjAwMDE0MiBDMjk1LjEzNiwzOTEuNjIyNTQyIDI5NS44MiwzOTMuMzc0NTQyIDI5NiwzOTUuNzc0NTQyIEMzMDEuMywzOTQuMzc0NTQyIDMwOC4xLDM5NS4yNzQ1NDIgMzEyLjgsMzk3LjU3NDU0MiBDMzEyLjE2LDM5Ny42MzE2ODUgMzExLjUxMjE2MywzOTcuNjgyMjk3IDMxMC44NjExMTcsMzk3LjczMTAwNiBMMzA4LjQ2MjU4MSwzOTcuOTA5OTUgTDMwOC40NjI1ODEsMzk3LjkwOTk1IEwzMDcuNTE5NDc4LDM5Ny45ODcwNDcgTDMwNy41MTk0NzgsMzk3Ljk4NzA0NyBMMzA2LjU4Mjk1NywzOTguMDcyNTU3IEMzMDYuNDI3NTkzLDM5OC4wODc2ODQgMzA2LjI3MjYzNCwzOTguMTAzMjkyIDMwNi4xMTgxNDQsMzk4LjExOTQ0NiBMMzA1LjE5NzM3NCwzOTguMjIzNDUzIEMzMDIuMTUwNDMxLDM5OC41OTU0ODUgMjk5LjM0MzgxLDM5OS4yMzgzNTEgMjk3LjMsNDAwLjY3NDU0MiBDMjk2LjY5MzMzMyw0MDIuMjM0NTQyIDI5Ni42Njg3NzgsNDA0LjExMzc2NCAyOTYuNzYyNTIyLDQwNi4xODIwMTYgTDI5Ni44MTI1LDQwNy4xNDk1NDIgTDI5Ni44MTI1LDQwNy4xNDk1NDIgTDI5Ni44OTY4LDQwOC42NDQ5NDIgQzI5Ny4wMDQsNDEwLjY3MDU0MiAyOTcuMDYsNDEyLjgxNDU0MiAyOTYuNyw0MTQuOTc0NTQyIEMzMDkuNyw0MTguNjc0NTQyIDMyNC44LDQyMC42NzQ1NDIgMzQxLjUsNDIxLjE3NDU0MiBDMzQ0LjUzMjYwOSw0MTYuOTY4MDIgMzQ1Ljc0NjkyOCw0MDkuNDEyMDE4IDM0NS41MTc0MzQsNDAxLjQwODcyNSBMMzQ1LjQ5OTQ2NCw0MDAuODc1IEwzNDUuOSw0MDEuNjc0NTQyIEwzNDUuODYyMTc1LDQwMC45OTY5MzcgTDM0NS44NjIxNzUsNDAwLjk5NjkzNyBMMzQ1Ljc2NjIyNywzOTkuNTU0MjQyIEwzNDUuNzY2MjI3LDM5OS41NTQyNDIgTDM0NS42NzYxOSwzOTguNDAzMTkgTDM0NS42NzYxOSwzOTguNDAzMTkgTDM0NS41NzAzNiwzOTcuMjAwMTMxIEwzNDUuNTcwMzYsMzk3LjIwMDEzMSBMMzQ1LjQ0ODQ2NCwzOTUuOTUxNTExIEwzNDUuNDQ4NDY0LDM5NS45NTE1MTEgTDM0NS4zNTgxNDMsMzk1LjA5Njk2OCBMMzQ1LjM1ODE0MywzOTUuMDk2OTY4IEwzNDUuMjYwNDgxLDM5NC4yMjY5NTEgTDM0NS4yNjA0ODEsMzk0LjIyNjk1MSBMMzQ1LjEwMDA0OSwzOTIuODk3MDg2IEwzNDUuMTAwMDQ5LDM5Mi44OTcwODYgTDM0NC45MjI2NTEsMzkxLjU0MzE0NSBMMzQ0LjkyMjY1MSwzOTEuNTQzMTQ1IEwzNDQuNzI4MDE1LDM5MC4xNzE1NzMgTDM0NC43MjgwMTUsMzkwLjE3MTU3MyBMMzQ0LjU4ODU0OCwzODkuMjUwNTggTDM0NC41ODg1NDgsMzg5LjI1MDU4IEwzNDQuNDQxMjIsMzg4LjMyNjUyNiBMMzQ0LjQ0MTIyLDM4OC4zMjY1MjYgTDM0NC4yMDUzMTEsMzg2LjkzODg4MSBMMzQ0LjIwNTMxMSwzODYuOTM4ODgxIEwzNDQuMDM3OTc5LDM4Ni4wMTU1MjggQzM0NC4wMDk0MTMsMzg1Ljg2MTg4NCAzNDMuOTgwNTA5LDM4NS43MDgzOTIgMzQzLjk1MTI2NCwzODUuNTU1MDkgTDM0My43NzE2ODgsMzg0LjYzNzg4NyBMMzQzLjc3MTY4OCwzODQuNjM3ODg3IEwzNDMuNTgzODQ5LDM4My43MjcxNzIgTDM0My41ODM4NDksMzgzLjcyNzE3MiBMMzQzLjM4NzY2OCwzODIuODI0ODU0IEMzNDMuMjg3NDc5LDM4Mi4zNzYxMTMgMzQzLjE4NDEzMSwzODEuOTMxMjM2IDM0My4wNzc1NzksMzgxLjQ5MTI5OSBMMzQyLjg2MDE5MSwzODAuNjE4MzI5IEMzNDIuNzg2Mjk1LDM4MC4zMjk3NDcgMzQyLjcxMDk2MywzODAuMDQzNjc4IDM0Mi42MzQxNzksMzc5Ljc2MDQ0MSBMMzQyLjM5OTQ2NSwzNzguOTE5NTQ0IEMzNDEuMDQ0NjAzLDM3NC4yMDYyMSAzMzkuMjY2NjY3LDM3MC40MDMyNzcgMzM3LDM2OS4wNzQ1NDIgQzMzMC45MjQsMzY1LjQ5NzU0MiAzMjIuNDk1MDIsMzY4LjkzMTQ2MiAzMTQuMzgzNjkyLDM3My43MjkxNSBMMzEzLjM5MjIzOCwzNzQuMzIzMDU0IEMzMTMuMjI3MzIsMzc0LjQyMzA0NiAzMTMuMDYyNTgxLDM3NC41MjM1MSAzMTIuODk4MDQyLDM3NC42MjQzOTggTDMxMS45MTMzOTMsMzc1LjIzNDQzIEwzMTEuOTEzMzkzLDM3NS4yMzQ0MyBMMzEwLjkzNDY0MywzNzUuODUyMzM0IEwzMTAuOTM0NjQzLDM3NS44NTIzMzQgTDMwOS45NjI4ODIsMzc2LjQ3NTgwNiBMMzA5Ljk2Mjg4MiwzNzYuNDc1ODA2IEwzMDguNTIwNzI5LDM3Ny40MTY0MTQgTDMwOC41MjA3MjksMzc3LjQxNjQxNCBMMzA2LjE2NzUxOSwzNzguOTc5Mjk0IEwzMDYuMTY3NTE5LDM3OC45NzkyOTQgTDMwMi41NzExNDUsMzgxLjM4NzU1IEwzMDIuNTcxMTQ1LDM4MS4zODc1NSBMMzAxLjI4ODAzOSwzODIuMjM1OTk4IEwzMDEuMjg4MDM5LDM4Mi4yMzU5OTggTDMwMC40NTU0NDUsMzgyLjc3ODgzIEwzMDAuNDU1NDQ1LDM4Mi43Nzg4MyBMMjk5LjY0MjM3MSwzODMuMzAwNzM0IEwyOTkuNjQyMzcxLDM4My4zMDA3MzQgTDI5OC44NDk5MDUsMzgzLjc5OTQwNiBMMjk4Ljg0OTkwNSwzODMuNzk5NDA2IEwyOTguMDc5MTM4LDM4NC4yNzI1NDIgQzI5Ni4xODAyNSwzODUuNDIxNTQyIDI5NC40OTUsMzg2LjMwOTU0MiAyOTMuMSwzODYuNzc0NTQyIFogTTI2OS4yLDM5NC43NzQ1NDIgTDI2OS41LDM5NC45NzQ1NDIgQzI2OS4wMzk1MzUsMzk4LjU1NTkzNyAyNjkuMjU5NjU0LDQwMC45ODU1NzUgMjY5Ljc3MTk3NCw0MDMuNTg5MzE1IEwyNjkuOTE4NjUsNDA0LjMwNDczOSBDMjY5Ljk0NDIwNiw0MDQuNDI1MDI4IDI2OS45NzAyOTMsNDA0LjU0NTkyNSAyNjkuOTk2ODc0LDQwNC42Njc1NTYgTDI3MC4yNDg0NjcsNDA1Ljc4NTM5NCBMMjcwLjI0ODQ2Nyw0MDUuNzg1Mzk0IEwyNzAuNzExMDU2LDQwNy43OTEyMzYgTDI3MC43MTEwNTYsNDA3Ljc5MTIzNiBMMjcwLjkwNjEyOCw0MDguNjYwOTc4IEwyNzAuOTA2MTI4LDQwOC42NjA5NzggTDI3MS4xMDQzMDksNDA5LjU3ODIwMyBDMjcxLjEzNzUwMSw0MDkuNzM1MzYzIDI3MS4xNzA3NSw0MDkuODk0NzUgMjcxLjIwNDAxOSw0MTAuMDU2NDg5IEwyNzEuNDAzNTgxLDQxMS4wNTYxNDUgQzI3MS41MDMxOTEsNDExLjU3MTA4MSAyNzEuNjAyMzI2LDQxMi4xMDk0MjYgMjcxLjcsNDEyLjY3NDU0MiBDMjk1LjMsNDE5Ljk3NDU0MiAyOTEuMSwzODAuMDc0NTQyIDI2OS4yLDM5NC43NzQ1NDIgWiBNMTQ1LjgsMzY4LjQ3NDU0MiBDMTQwLjUwOCwzNzMuODkyNTQyIDE1MS4zMzAxNCwzODAuNTQwOTMyIDE2Mi42MTM0NzgsMzg0Ljg2OTA0NCBMMTYzLjY4ODk3NSwzODUuMjc0MTE3IEMxNjMuODY4MjksMzg1LjM0MDQyMiAxNjQuMDQ3NTk2LDM4NS40MDYxMTQgMTY0LjIyNjgzLDM4NS40NzExNzkgTDE2NS4zMDA4NzcsMzg1Ljg1MzkyNyBMMTY1LjMwMDg3NywzODUuODUzOTI3IEwxNjYuMzcwMiwzODYuMjIwOTQyIEMxNjcuMDgwODQsMzg2LjQ2MDIyMiAxNjcuNzg2MzI4LDM4Ni42ODg1NTggMTY4LjQ4MjY1OCwzODYuOTA1MDQxIEwxNjkuNTE5NzgyLDM4Ny4yMjA3NjMgQzE2OS44NjI4NjcsMzg3LjMyMjk2NCAxNzAuMjAzMTYyLDM4Ny40MjIwODkgMTcwLjU0MDE2NSwzODcuNTE4MDIzIEwxNzEuNTQwOCwzODcuNzk2MTQyIEMxNzEuNzA1NzYsMzg3Ljg0MDg2MiAxNzEuODY5NzcyLDM4Ny44ODQ3NTYgMTcyLjAzMjc3MywzODcuOTI3ODEgTDE3Mi45OTgxNTQsMzg4LjE3NTkzNiBDMTczLjc5MTY5NywzODguMzc0MTE3IDE3NC41NTY4NDUsMzg4LjU1MDU4MyAxNzUuMjg1NzczLDM4OC43MDM1NTkgTDE3Ni4xNDI2LDM4OC44NzU3NDIgQzE3Ny41NCwzODkuMTQzNTQyIDE3OC43OCwzODkuMzE0NTQyIDE3OS44LDM4OS4zNzQ1NDIgQzE3OS44LDM4Ny4yMTQ1NDIgMTgwLjI5NiwzODUuMTAyNTQyIDE4MC44NTkyLDM4My4wOTYxNDIgTDE4MS4xNDQ0MTUsMzgyLjEwMjAwOSBMMTgxLjE0NDQxNSwzODIuMTAyMDA5IEwxODEuNTY3MTgxLDM4MC42NDczMDkgQzE4Mi4xNTczMzMsMzc4LjU3OTg3NSAxODIuNjE2NjY3LDM3Ni42NjQ1NDIgMTgyLjQsMzc0Ljk3NDU0MiBDMTgwLjMwMzEyNSwzNzQuNTk2NDE3IDE3OC4wOTEwNCwzNzQuMzI3NTk0IDE3NS44MjMxNSwzNzQuMTEyMjIxIEwxNzQuNTgwOTQyLDM3My45OTk3MSBMMTc0LjU4MDk0MiwzNzMuOTk5NzEgTDE3My4zMjk4MDgsMzczLjg5NTc4NyBMMTczLjMyOTgwOCwzNzMuODk1Nzg3IEwxNzIuMDcxODg5LDM3My43OTg0MzggTDE3Mi4wNzE4ODksMzczLjc5ODQzOCBMMTY2LjM4NDc0NCwzNzMuMzg3NzA3IEwxNjYuMzg0NzQ0LDM3My4zODc3MDcgTDE2NC41MDE4ODMsMzczLjIzOTU5MSBMMTY0LjUwMTg4MywzNzMuMjM5NTkxIEwxNjMuMjU2NDYyLDM3My4xMzE4NTkgQzE1Ni40MzMxNTQsMzcyLjUxNDk0NyAxNTAuMDc5Njg4LDM3MS40NjUxNjcgMTQ1LjgsMzY4LjQ3NDU0MiBaIE0zMDIuMywzNjguMTc0NTQyIEMyOTguMjkyODg5LDM2OC41MjI5ODYgMjk0LjAzMTgsMzY5LjQwNDE2NCAyODkuNjQ2MjQzLDM3MC40MjMzODMgTDI4Ny41MjI2NywzNzAuOTIzODUxIEwyODQuNTQ3MzA4LDM3MS42MzYwMTMgQzI4My41NTEzMTYsMzcxLjg3NDE5MSAyODIuNTUxNiwzNzIuMTExNjk3IDI4MS41NDk2LDM3Mi4zNDQxNDIgTDI4MC4zNDYxOTYsMzcyLjYyMDM2NSBMMjc5LjIyNzI2OSwzNzIuODcxMDMzIEwyNzkuMjI3MjY5LDM3Mi44NzEwMzMgTDI3OC4xMDczNzIsMzczLjExNDcwOCBMMjc4LjEwNzM3MiwzNzMuMTE0NzA4IEwyNzYuOTg2OTQ3LDM3My4zNTAwNDEgTDI3Ni45ODY5NDcsMzczLjM1MDA0MSBMMjc1Ljg2NjQzNiwzNzMuNTc1NjgyIEwyNzUuODY2NDM2LDM3My41NzU2ODIgTDI3NC43NDYyODMsMzczLjc5MDI4MSBDMjc0LjU1OTY0NiwzNzMuODI1MDUzIDI3NC4zNzMwNDEsMzczLjg1OTMwOCAyNzQuMTg2NDgsMzczLjg5MzAxOSBMMjczLjA2NzY5NCwzNzQuMDg4NTI1IEMyNjUuMDU0NDQ3LDM3NS40Mzk2MTEgMjU3LjE1NDA0OCwzNzUuNjgwMDk3IDI1MC4xLDM3Mi41NzQ1NDIgQzI1MC4xLDM3Mi45MjQ1NDIgMjQ5Ljg4OTQ1MywzNzMuMDYzOTk1IDI0OS42NDQyMTQsMzczLjE2ODc1NiBMMjQ5LjMyMzYzMywzNzMuMjk4MTc1IEMyNDkuMTE1NjI1LDM3My4zOTAxNjcgMjQ4LjkzNzUsMzczLjUxMjA0MiAyNDguOSwzNzMuNzc0NTQyIEMyNTguNDM3NSwzODEuMjEyMDQyIDI2NS44MzEyNSwzODMuNTE5ODU0IDI3Ny40NDU1MDgsMzgzLjUxMTY3MyBMMjc4LjU2NDU5MiwzODMuNTAzOTU4IEMyNzguOTQyMDA5LDM4My40OTkxMTkgMjc5LjMyMzg4MywzODMuNDkyMDM2IDI3OS43MTA0MTgsMzgzLjQ4MjggTDI4MC44ODQyMDksMzgzLjQ0ODcxNyBMMjgwLjg4NDIwOSwzODMuNDQ4NzE3IEwyODIuMDg3MTg1LDM4My40MDIyNTEgQzI4Mi4yOTAxODEsMzgzLjM5MzUwNCAyODIuNDk0NDQ0LDM4My4zODQyNjQgMjgyLjcsMzgzLjM3NDU0MiBDMjg1LjAyOTQxMiwzODEuNjQ1MTMgMjg3LjI3MTYyNiwzNzkuODI4NTIxIDI4OS41MTAxNzcsMzc3Ljk5NTA1OSBMMjkxLjc1MDYsMzc2LjE1ODU4NCBDMjk1LjExODY4NSwzNzMuNDAzMjYyIDI5OC41NDExNzYsMzcwLjY2Mjc3NyAzMDIuMywzNjguMTc0NTQyIFogTTIwMC4zLDI2LjQ3NDU0MTggTDE5OC43MzQ3NDYsMjcuMjY0NzE5NCBDMTk4LjQ3MjA0LDI3LjM5ODEwODIgMTk4LjIwODQzOSwyNy41MzIzNDE0IDE5Ny45NDM5NzksMjcuNjY3NDE2MiBMMTk2LjM0NzE2MywyOC40ODc5NDE4IEwxOTYuMzQ3MTYzLDI4LjQ4Nzk0MTggTDE5NC43MzEzMDIsMjkuMzI4NTMxNCBMMTk0LjczMTMwMiwyOS4zMjg1MzE0IEwxOTMuMDk3OTk2LDMwLjE4OTA1MDYgTDE5My4wOTc5OTYsMzAuMTg5MDUwNiBMMTkxLjQ0ODg0MiwzMS4wNjkzNjUgTDE5MS40NDg4NDIsMzEuMDY5MzY1IEwxODkuNzg1NDQsMzEuOTY5MzQwMiBMMTg5Ljc4NTQ0LDMxLjk2OTM0MDIgTDE4OC4xMDkzODcsMzIuODg4ODQxOCBDMTg3LjgyOTA4LDMzLjA0MzcxMTggMTg3LjU0ODMxMiwzMy4xOTkzODk4IDE4Ny4yNjcxMTcsMzMuMzU1ODczIEwxODUuNTc1MDg2LDM0LjMwNDQxMjIgQzE2Mi4zODc4OCw0Ny4zOTkyMjE4IDEzNi43NzYsNjUuODcwNTQxOCAxMjcuMSw4OC4xNzQ1NDE4IEMxMzEuODAwMTMsOTkuMDcyMTg3OCAxMzIuMDUzOTg4LDEwOS42MDY1MiAxMzAuNjY4MDM2LDEyMC4xMTU3NTIgTDEzMC40OTQwMywxMjEuMzc2NzYxIEwxMzAuNDk0MDMsMTIxLjM3Njc2MSBMMTMwLjMwNTM2LDEyMi42Mzc2NTkgTDEzMC4zMDUzNiwxMjIuNjM3NjU5IEwxMzAuMTAzMTAzLDEyMy44OTg1NzYgTDEzMC4xMDMxMDMsMTIzLjg5ODU3NiBMMTI5Ljg4ODMzNywxMjUuMTU5NjQxIEwxMjkuODg4MzM3LDEyNS4xNTk2NDEgTDEyOS42NjIxMzksMTI2LjQyMDk4NSBDMTI5LjYyMzU0NiwxMjYuNjMxMjQgMTI5LjU4NDUyMywxMjYuODQxNTExIDEyOS41NDUwOSwxMjcuMDUxODAyIEwxMjkuMzAzNzY2LDEyOC4zMTM4MDggTDEyOS4zMDM3NjYsMTI4LjMxMzgwOCBMMTI5LjA1MzcwNCwxMjkuNTc2NDE2IEwxMjkuMDUzNzA0LDEyOS41NzY0MTYgTDEyOC44MDc1LDEzMC43ODQwMDUgQzEyOC41NTgxMSwxMzEuOTkxOTY2IDEyOC4yOTk2MzQsMTMzLjIwMTEwMyAxMjguMDM2MzA3LDEzNC40MTE5MjUgTDEyNi43NjM4MDgsMTQwLjE4NzI1MiBMMTI2LjQyOCwxNDEuNzE5NjQyIEMxMjQuNzU3LDE0OS4zODg1NDIgMTIzLjIzLDE1Ny4xNjQ1NDIgMTIyLjksMTY1LjE3NDU0MiBDMTIyLjcyMTI3NywxNzEuNTE5MjIzIDEyNC4wMzk4MzcsMTc3LjUyNDUxOSAxMjUuNjA2ODgzLDE4My42MDA3NTEgTDEyNi4wNjAyOTMsMTg1LjMzOTEwMiBMMTI2LjA2MDI5MywxODUuMzM5MTAyIEwxMjYuOTgxNzkyLDE4OC44MzU4OTEgQzEyNy4wNTgzMiwxODkuMTI4NzYxIDEyNy4xMzQ2MDMsMTg5LjQyMjA1NyAxMjcuMjEwNTA1LDE4OS43MTU4MjUgTDEyNy42NjAyNzUsMTkxLjQ4NDQzNSBDMTI4LjkxNTU3MywxOTYuNTEzNTE5IDEyOS45ODI5NzksMjAxLjcwNDMyOSAxMzAuMiwyMDcuMjc0NTQyIEMxMjcuNDM2MzY0LDIxMS44NTYzNiAxMjAuNDk0MjE1LDIxMy41MjkwODcgMTEzLjc1ODgyOCwyMTMuOTQ2ODE4IEwxMTIuOTE4Mjk5LDIxMy45OTI2MTggQzExMi42Mzg2OTMsMjE0LjAwNTc4NSAxMTIuMzU5NzYzLDIxNC4wMTY4OTQgMTEyLjA4MTgyNywyMTQuMDI2MDYzIEwxMTEuMjUxMzE1LDIxNC4wNDc4NyBDMTEwLjk3NTY4MiwyMTQuMDUzMjggMTEwLjcwMTM2MSwyMTQuMDU2ODY5IDExMC40Mjg2NjcsMjE0LjA1ODc1OSBMMTA5LjYxNTc4NiwyMTQuMDU5NDQ2IEwxMDkuNjE1Nzg2LDIxNC4wNTk0NDYgTDEwOC44MTQ1NzYsMjE0LjA1MDY1IEwxMDguODE0NTc2LDIxNC4wNTA2NSBMMTA4LjAyNjkzOSwyMTQuMDMzMDg5IEwxMDguMDI2OTM5LDIxNC4wMzMwODkgTDEwNy4yNTQ3NzksMjE0LjAwNzQ4IEwxMDcuMjU0Nzc5LDIxNC4wMDc0OCBMMTA2LjUsMjEzLjk3NDU0MiBMMTA2LjUsMjEzLjk3NDU0MiBMMTA2LjI1MDg3MSwyMTIuNzM3MzczIEwxMDYuMjUwODcxLDIxMi43MzczNzMgTDEwNi4wNzc2MjUsMjExLjkwODc0MiBMMTA2LjA3NzYyNSwyMTEuOTA4NzQyIEwxMDUuODk4MjU5LDIxMS4wNzc5MDMgTDEwNS44OTgyNTksMjExLjA3NzkwMyBMMTA1LjcxMjQzNywyMTAuMjQ1NjA0IEwxMDUuNzEyNDM3LDIxMC4yNDU2MDQgTDEwNS41MTk4MjMsMjA5LjQxMjU5NSBMMTA1LjUxOTgyMywyMDkuNDEyNTk1IEwxMDUuMzIwMDgxLDIwOC41Nzk2MjUgTDEwNS4zMjAwODEsMjA4LjU3OTYyNSBMMTA1LjExMjg3NSwyMDcuNzQ3NDQyIEMxMDUuMDc3NywyMDcuNjA4ODUyIDEwNS4wNDIyLDIwNy40NzAzMjYgMTA1LjAwNjM2OCwyMDcuMzMxODc5IEwxMDQuNzg3MzM2LDIwNi41MDIyODEgTDEwNC43ODczMzYsMjA2LjUwMjI4MSBMMTA0LjU2LDIwNS42NzUzNDIgQzEwNC40ODI4LDIwNS40MDAyMjIgMTA0LjQwNDE2LDIwNS4xMjU2NyAxMDQuMzI0MDI0LDIwNC44NTE4MTEgTDEwNC4wNzkwNzIsMjA0LjAzMjQzNiBDMTA0LjAzNzQ4LDIwMy44OTYyNjIgMTAzLjk5NTUsMjAzLjc2MDI5MiAxMDMuOTUzMTI1LDIwMy42MjQ1NDIgTDEwMy42OTQwNzksMjAyLjgxMjgwNyBMMTAzLjY5NDA3OSwyMDIuODEyODA3IEwxMDMuNDI1MjE3LDIwMi4wMDcxIEwxMDMuNDI1MjE3LDIwMi4wMDcxIEwxMDMuMTQ2MjAzLDIwMS4yMDgxNzEgQzk5Ljg3Nzg4LDE5Mi4wNjIzMzIgOTQuNTI5LDE4NC40MDk1NDIgODQuOCwxODMuMzc0NTQyIEM2NC45LDE4MS4yNzQ1NDIgNTAuMiwxOTcuNzc0NTQyIDQ5LjQsMjE0Ljk3NDU0MiBDNDguMywyMzUuMjc0NTQyIDY1LjEsMjY4Ljc3NDU0MiA4OC41LDI2Ni40NzQ1NDIgQzkxLjY4MTk1NDksMjY2LjE2MzI2NCA5NC4wMjY1NTMyLDI2NC44NTkxMiA5Ni4xNDYxMTc2LDI2My4yODYxNCBMOTYuNjk0MzQ1MywyNjIuODcwMTc2IEw5Ni42OTQzNDUzLDI2Mi44NzAxNzYgTDk3LjIzNDc3OTIsMjYyLjQ0NDg3MSBDOTcuMzI0MzM2MywyNjIuMzczMzY3IDk3LjQxMzY2OTIsMjYyLjMwMTU5MyA5Ny41MDI4Mjg0LDI2Mi4yMjk2MDggTDk5LjMxMTgyMywyNjAuNzUxODgyIEw5OS4zMTE4MjMsMjYwLjc1MTg4MiBMOTkuODI3OCwyNjAuMzM4ODEzIEw5OS44Mjc4LDI2MC4zMzg4MTMgTDEwMC4zNDk2NDUsMjU5LjkzMjU2NiBDMTAyLjg4OTUyOSwyNTcuOTg5NjE2IDEwNS43MTAxMTQsMjU2LjM3NDU0MiAxMDkuOSwyNTYuMzc0NTQyIEMxMTIuMTg1NDQ1LDI2MC45MDMxMDggMTExLjA0OTYyLDI2NC4xMjQwNjkgMTA4Ljg2NTQwMywyNjYuOTAxNjY3IEwxMDguNTYxMjc5LDI2Ny4yNzc3NjMgTDEwOC41NjEyNzksMjY3LjI3Nzc2MyBMMTA4LjI0NTQ5NywyNjcuNjQ4ODUgTDEwOC4yNDU0OTcsMjY3LjY0ODg1IEwxMDcuOTE5MzkxLDI2OC4wMTU0MTUgTDEwNy45MTkzOTEsMjY4LjAxNTQxNSBMMTA3LjU4NDMwMSwyNjguMzc3OTQ1IEwxMDcuNTg0MzAxLDI2OC4zNzc5NDUgTDEwNy4yNDE1NjIsMjY4LjczNjkyNiBMMTA3LjI0MTU2MiwyNjguNzM2OTI2IEwxMDYuODkyNTEyLDI2OS4wOTI4NDYgTDEwNi44OTI1MTIsMjY5LjA5Mjg0NiBMMTA2LjUzODQ4OCwyNjkuNDQ2MTkyIEwxMDUuNTU1Mjk5LDI3MC40MDM2NjUgTDEwNS41NTUyOTksMjcwLjQwMzY2NSBMMTA0LjY5NzEzMiwyNzEuMjMzNjIzIEwxMDQuNjk3MTMyLDI3MS4yMzM2MjMgTDEwNC4xNjk4NjYsMjcxLjc1MjE0NyBDMTAyLjI1NDk4MywyNzMuNjU3MDE4IDEwMC41NzI0MjEsMjc1LjYxMjQzNyAxMDAuMSwyNzcuOTc0NTQyIEMxMDAuMDYyMDg4LDI3OC4yMjcyODkgMTAwLjA1MTMyNSwyNzguNTY5NDcgMTAwLjA2MzI3MiwyNzguOTgxOTExIEwxMDAuMDgyNjI0LDI3OS40MTcwNjMgQzEwMC4wODcwNTYsMjc5LjQ5MzI1NSAxMDAuMDkyMDc4LDI3OS41NzEyMjEgMTAwLjA5NzY2OSwyNzkuNjUwODcyIEwxMDAuMTM3ODgxLDI4MC4xNDgyOTUgTDEwMC4xMzc4ODEsMjgwLjE0ODI5NSBMMTAwLjE5MDc2NSwyODAuNjgxOTA3IEwxMDAuMTkwNzY1LDI4MC42ODE5MDcgTDEwMC4yNTUzMzYsMjgxLjI0NzQ0NyBMMTAwLjI1NTMzNiwyODEuMjQ3NDQ3IEwxMDAuMzMwNjA2LDI4MS44NDA2NTQgTDEwMC4zMzA2MDYsMjgxLjg0MDY1NCBMMTAwLjQxNTU4OSwyODIuNDU3MjY3IEwxMDAuNDE1NTg5LDI4Mi40NTcyNjcgTDEwMC41NTkxMTcsMjgzLjQxNjc1NCBMMTAwLjU1OTExNywyODMuNDE2NzU0IEwxMDAuNzE4OTQ4LDI4NC40MDQ5NCBMMTAwLjcxODk0OCwyODQuNDA0OTQgTDEwMC45MDcyODMsMjg1LjQ5NDgyMiBMMTAxLjA3NDU4NywyODYuNDExOTUxIEwxMDEuMDc0NTg3LDI4Ni40MTE5NTEgTDEwMS4zMzQ2NDgsMjg3Ljc2MTQ4IEwxMDEuMzM0NjQ4LDI4Ny43NjE0OCBMMTAxLjU5Nzk3OSwyODkuMDQ2NTQ5IEwxMDEuNTk3OTc5LDI4OS4wNDY1NDkgTDEwMS44NTU5NjcsMjkwLjIyOTk2NyBMMTAxLjg1NTk2NywyOTAuMjI5OTY3IEwxMDIuMDIwNzM4LDI5MC45NDQwNzMgTDEwMi4wMjA3MzgsMjkwLjk0NDA3MyBMMTAyLjEsMjkxLjI3NDU0MiBDMTAzLjE1ODQ2MiwyOTUuNjA2ODUgMTA0LjUzODA1OSwzMDAuMjU0MjM0IDEwNi4xNTY3NjEsMzA1LjAwMTkyMSBMMTA2Ljc3NDgyMiwzMDYuNzg2NTg2IEMxMTEuNzAxNTg2LDMyMC43OTY3MTkgMTE4LjYwMzA3NywzMzUuNDQwNjk2IDEyNS40LDM0NS4yNzQ1NDIgQzEzMy40OTIsMzU2LjY5ODU0MiAxNDYuOTQ3ODQsMzYxLjY5NTE4MiAxNjIuNjU0NjQzLDM2NC4yNTc3NDggTDE2NC4wNDYzLDM2NC40Nzc2NDIgQzE2NC4yNzkxOSwzNjQuNTEzMjcyIDE2NC41MTI1NDcsMzY0LjU0ODQwMSAxNjQuNzQ2MzYxLDM2NC41ODMwNDIgTDE2Ni4xNTQ2NTIsMzY0Ljc4NTEyOCBDMTY2LjM5MDI1NSwzNjQuODE3ODY2IDE2Ni42MjYyOTUsMzY0Ljg1MDE0MSAxNjYuODYyNzYyLDM2NC44ODE5NjcgTDE2OC4yODY2MTgsMzY1LjA2NzYxNyBDMTY4LjUyNDc1NSwzNjUuMDk3NjkyIDE2OC43NjMzLDM2NS4xMjczNDMgMTY5LjAwMjI0MywzNjUuMTU2NTgxIEwxNzAuNDQwNTk0LDM2NS4zMjcxNjcgQzE3MC42ODEwODgsMzY1LjM1NDgwOCAxNzAuOTIxOTYsMzY1LjM4MjA2MiAxNzEuMTYzMiwzNjUuNDA4OTQyIEwxNzIuNjE0OTc3LDM2NS41NjU4MzUgTDE3Mi42MTQ5NzcsMzY1LjU2NTgzNSBMMTc0LjA3NTExLDM2NS43MTQzNjMgQzE3NC4zMTkxMzYsMzY1LjczODQ1NCAxNzQuNTYzNDksMzY1Ljc2MjIyMiAxNzQuODA4MTYzLDM2NS43ODU2NzkgTDE3Ni4yNzk5NCwzNjUuOTIyOCBMMTc2LjI3OTk0LDM2NS45MjI4IEwxNzcuNzU4ODg3LDM2Ni4wNTMwNzggTDE3Ny43NTg4ODcsMzY2LjA1MzA3OCBMMTc5LjI0NDUyNywzNjYuMTc3MTI0IEwxNzkuMjQ0NTI3LDM2Ni4xNzcxMjQgTDE4MC43MzYzODYsMzY2LjI5NTU0NiBMMTgwLjczNjM4NiwzNjYuMjk1NTQ2IEwxODIuOTg0Nzk0LDM2Ni40NjM5NjkgTDE4Mi45ODQ3OTQsMzY2LjQ2Mzk2OSBMMTg2LDM2Ni42NzQ1NDIgTDE4NiwzNjYuNjc0NTQyIEMxODguNjgxODE4LDM2MC44MzQxMzggMTk1LjY2MTE2NywzNTguNzU4NTEzIDIwMy4xNzAzOTgsMzU4LjU2Mzg0MiBMMjAzLjkzNTcyOCwzNTguNTUwNDU2IEMyMDQuMDYzNTM5LDM1OC41NDkyODEgMjA0LjE5MTQ2NSwzNTguNTQ4NjI5IDIwNC4zMTk0ODksMzU4LjU0ODQ4OSBMMjA1LjA4ODY0OCwzNTguNTUzNzMgQzIwNS4zNDUzMjUsMzU4LjU1NzQ3OSAyMDUuNjAyMjQ1LDM1OC41NjMyMDYgMjA1Ljg1OTI1OSwzNTguNTcwODM4IEwyMDYuNjMwNDQyLDM1OC41OTkzNzQgTDIwNi42MzA0NDIsMzU4LjU5OTM3NCBMMjA3LjQwMTMxNSwzNTguNjM4ODk3IEwyMDcuNDAxMzE1LDM1OC42Mzg4OTcgTDIwOC4xNzA5OTksMzU4LjY4ODk2NyBMMjA4LjE3MDk5OSwzNTguNjg4OTY3IEwyMDguOTM4NjEzLDM1OC43NDkxNDQgTDIwOC45Mzg2MTMsMzU4Ljc0OTE0NCBMMjA5LjcwMzI3NSwzNTguODE4OTg2IEMyMDkuODMwNDI0LDM1OC44MzE0MDggMjA5Ljk1NzQxNCwzNTguODQ0MjE0IDIxMC4wODQyMjUsMzU4Ljg1NzM5NSBMMjEwLjg0MjgxLDM1OC45NDA5MTIgTDIxMC44NDI4MSwzNTguOTQwOTEyIEwyMTEuNTk2MjQzLDM1OS4wMzI5OTQgTDIxMS41OTYyNDMsMzU5LjAzMjk5NCBMMjEyLjM0MzY0NCwzNTkuMTMzMjAyIEwyMTIuMzQzNjQ0LDM1OS4xMzMyMDIgTDIxMy4wODQxMzEsMzU5LjI0MTA5NSBMMjEzLjA4NDEzMSwzNTkuMjQxMDk1IEwyMTMuODE2ODI0LDM1OS4zNTYyMzIgTDIxMy44MTY4MjQsMzU5LjM1NjIzMiBMMjE0LjU0MDg0MywzNTkuNDc4MTc0IEwyMTQuNTQwODQzLDM1OS40NzgxNzQgTDIxNS4yNTUzMDYsMzU5LjYwNjQ4IEwyMTUuMjU1MzA2LDM1OS42MDY0OCBMMjE1Ljk1OTMzNCwzNTkuNzQwNzEgTDIxNS45NTkzMzQsMzU5Ljc0MDcxIEwyMTYuNjUyMDQ2LDM1OS44ODA0MjQgTDIxNi42NTIwNDYsMzU5Ljg4MDQyNCBMMjE3LjMzMjU2MiwzNjAuMDI1MTgxIEwyMTcuMzMyNTYyLDM2MC4wMjUxODEgTDIxOCwzNjAuMTc0NTQyIEwyMTgsMzYwLjE3NDU0MiBDMjA5LjQwNjc4LDM1Ni44MDMzNTUgMjAxLjI1MDUwMywzNTAuMTU1MDkzIDE5My43NjIyMzEsMzQyLjg1ODA4MiBMMTkyLjYxNTQ5LDM0MS43MzA3IEwxOTIuNjE1NDksMzQxLjczMDcgTDE5MS40Nzk0NzcsMzQwLjU5NTIwOSBDMTkxLjI5MTA0NiwzNDAuNDA1NDAzIDE5MS4xMDMwNywzNDAuMjE1MzQ4IDE5MC45MTU1NTIsMzQwLjAyNTA4NyBMMTg5Ljc5NTk4MSwzMzguODgxNDE5IEwxODkuNzk1OTgxLDMzOC44ODE0MTkgTDE4OC42ODc2MDUsMzM3LjczNDk1OCBMMTg4LjY4NzYwNSwzMzcuNzM0OTU4IEwxODcuNTkwNjExLDMzNi41ODc4MzEgTDE4Ny41OTA2MTEsMzM2LjU4NzgzMSBMMTg1Ljk2Njg2OSwzMzQuODcwNTQ0IEwxODUuOTY2ODY5LDMzNC44NzA1NDQgTDE4NC4zNjk3ODksMzMzLjE2MzcyMiBMMTg0LjM2OTc4OSwzMzMuMTYzNzIyIEwxODIuOCwzMzEuNDc0NTQyIEwxODIuOCwzMzEuNDc0NTQyIEMxODEuMTQyODU3LDMyOS42NjAyNTYgMTc5LjQ4Nzc1NSwzMjcuODI1NTYyIDE3Ny44NjYxODEsMzI1Ljk2NTUwNCBMMTc3LjA1ODMzMywzMjUuMDMzMzM4IEwxNzYuMjA4NjA3LDMyNC4wMzk5MDQgQzE3Ni4wNjc2NDksMzIzLjg3MzkxNCAxNzUuOTI3MDM4LDMyMy43MDc3MTIgMTc1Ljc4Njc5NiwzMjMuNTQxMjk1IEwxNzQuOTQ5OTMsMzIyLjU0MDE4OCBMMTc0Ljk0OTkzLDMyMi41NDAxODggTDE3NC4xMjI5NDMsMzIxLjUzMzc2IEwxNzQuMTIyOTQzLDMyMS41MzM3NiBMMTczLjMwNjg3OCwzMjAuNTIxODQ3IEwxNzMuMzA2ODc4LDMyMC41MjE4NDcgTDE3Mi41MDI3NzgsMzE5LjUwNDI4NSBDMTY1LjE4OTg5MiwzMTAuMTUwMjM2IDE1OS41MTY2NjcsMzAwLjA2MzQzMSAxNTkuMSwyODguNjc0NTQyIEwxNjUuNTEyOSwyOTcuNTc1NzQyIEwxNjUuNTEyOSwyOTcuNTc1NzQyIEwxNjguMDQzOTksMzAxLjA1NzE5NSBMMTY4LjA0Mzk5LDMwMS4wNTcxOTUgTDE2OS4zMDcyMDYsMzAyLjc3OTI5NyBMMTY5LjMwNzIwNiwzMDIuNzc5Mjk3IEwxNzAuNTcwNTI5LDMwNC40ODg0MiBDMTcwLjc4MTE2LDMwNC43NzIxNjkgMTcwLjk5MTg0OCwzMDUuMDU1MzU5IDE3MS4yMDI2MTgsMzA1LjMzNzk4MyBMMTcyLjQ2ODQzLDMwNy4wMjY4NDUgTDE3Mi40Njg0MywzMDcuMDI2ODQ1IEwxNzMuNzM3NDU1LDMwOC43MDE2NzIgQzE3NC4zNzI5NzksMzA5LjUzNTUwNyAxNzUuMDEwMTczLDMxMC4zNjM5MTkgMTc1LjY0OTczOCwzMTEuMTg2NjczIEwxNzYuOTMyMjM3LDMxMi44MjQ1NjQgQzE5Mi4zNjUxMiwzMzIuMzg3MDIyIDIwOS40MzIsMzQ4LjU5ODU0MiAyMzcuOCwzNTguMTc0NTQyIEMyNjcuNiwzNjcuOTc0NTQyIDMwMi41LDM1My4zNzQ1NDIgMzI1LjIsMzM3LjM3NDU0MiBDMzMwLjYsMzMzLjYwNTc5MiAzMzQuNzM0Mzc1LDMyOC41NzE0MTcgMzM4LjUyODYxMywzMjMuMTc5MTA3IEwzMzkuMzY2NTU1LDMyMS45NzUyOTMgQzMzOS41MDU0MDQsMzIxLjc3Mzc5OSAzMzkuNjQzODgsMzIxLjU3MTkwNSAzMzkuNzgyMDMxLDMyMS4zNjk2NTkgTDM0MC42MDc0MDcsMzIwLjE1MjMyIEwzNDAuNjA3NDA3LDMyMC4xNTIzMiBMMzQxLjgzNTc2LDMxOC4zMTUyODMgTDM0My40NjcyODUsMzE1Ljg1NjkzOSBMMzQzLjQ2NzI4NSwzMTUuODU2OTM5IEwzNDQuMjg1NDM1LDMxNC42Mjg5MDcgQzM0NS4yNDIxODgsMzEzLjE5NzkzNiAzNDYuMjA4MzMzLDMxMS43NzQ1NDIgMzQ3LjIsMzEwLjM3NDU0MiBDMzcyLjUsMjc0LjA3NDU0MiAzODQuMywyMjIuMDc0NTQyIDM4MS43LDE3MS43NzQ1NDIgTDM4MS42MTA3MDYsMTcwLjA0MTM1OSBMMzgxLjYxMDcwNiwxNzAuMDQxMzU5IEwzODEuNDQzMjI5LDE2Ni41Nzg1OTMgTDM4MS40NDMyMjksMTY2LjU3ODU5MyBMMzgxLjA4MjQ4NywxNTguODM3ODM4IEwzODEuMDgyNDg3LDE1OC44Mzc4MzggTDM4MC45OTgxODQsMTU3LjEzMzM0OCBMMzgwLjk5ODE4NCwxNTcuMTMzMzQ4IEwzODAuOTEwMTIsMTU1LjQzNjUxMSBMMzgwLjkxMDEyLDE1NS40MzY1MTEgTDM4MC44MTcyNTMsMTUzLjc0ODIyNSBMMzgwLjgxNzI1MywxNTMuNzQ4MjI1IEwzODAuNzE4NTQsMTUyLjA2OTM5MiBMMzgwLjcxODU0LDE1Mi4wNjkzOTIgTDM4MC42MTI5NDEsMTUwLjQwMDkxMSBDMzgwLjU5NDcxLDE1MC4xMjM3NDMgMzgwLjU3NjE0OCwxNDkuODQ3MDQ1IDM4MC41NTcyMzQsMTQ5LjU3MDgzNCBMMzgwLjQzOTM1MiwxNDcuOTE5NTY5IEwzODAuNDM5MzUyLDE0Ny45MTk1NjkgTDM4MC4zMTE5NzksMTQ2LjI4MDkwOCBDMzgwLjI2NzgyNCwxNDUuNzM2ODg4IDM4MC4yMjE5MTQsMTQ1LjE5NTExOCAzODAuMTc0MDc0LDE0NC42NTU3NDkgTDM4MC4wMjQ1OTUsMTQzLjA0NDk5NCBDMzc5LjAzOTA0MywxMzIuODkxMDU0IDM3Ny4yOTQ0NDQsMTIzLjY1Nzg3NSAzNzMuNiwxMTYuMzc0NTQyIEMzNjYuMywxMDEuNzc0NTQyIDM0MS44LDg4Ljc3NDU0MTggMzI3LjIsMTAxLjc3NDU0MiBDMzI0LjQsODcuMzc0NTQxOCAzMzksNzguNjc0NTQxOCAzNTYuMiw4My43NzQ1NDE4IEwzNTUuMTIxMTIxLDgyLjM3NjIyMDMgTDM1NS4xMjExMjEsODIuMzc2MjIwMyBMMzU0LjA0MDU0Niw4MC45NjUwMzM0IEwzNTQuMDQwNTQ2LDgwLjk2NTAzMzQgTDM1MS44NzE1NjYsNzguMTExMDc2OSBMMzUxLjg3MTU2Niw3OC4xMTEwNzY5IEwzNDguNTg4MjE1LDczLjc3NzQ4NjEgTDM0OC41ODgyMTUsNzMuNzc3NDg2MSBMMzQ2LjkyODA3MSw3MS41OTk4MTcgTDM0Ni45MjgwNzEsNzEuNTk5ODE3IEwzNDUuODEyODk1LDcwLjE0ODAyODQgTDM0NS44MTI4OTUsNzAuMTQ4MDI4NCBMMzQ0LjY5MDE4Nyw2OC42OTgyNzgyIEwzNDQuNjkwMTg3LDY4LjY5ODI3ODIgTDM0My41NTkyNTksNjcuMjUyMzE5NiBMMzQzLjU1OTI1OSw2Ny4yNTIzMTk2IEwzNDIuNDE5NDI2LDY1LjgxMTkwNjEgTDM0Mi40MTk0MjYsNjUuODExOTA2MSBMMzQxLjI3MDAwMSw2NC4zNzg3OTEgQzMzMy4xODg4NDcsNTQuMzc2NjIxMiAzMjQuMzUyMTc0LDQ1LjAzOTc1OTIgMzEzLjcsMzkuMDc0NTQxOCBMMzE0LjIsNDAuMTc0NTQxOCBDMjg0LjEsMjMuMTc0NTQxOCAyMzIuNiwxMC4zNzQ1NDE4IDIwMC4zLDI2LjQ3NDU0MTggWiBNMjM1LjgsMjgyLjA3NDU0MiBMMjM2LjEsMjgyLjE3NDU0MiBDMjQ1LjE4NSwzMDUuMDg0NTQyIDI3MS44MDcyMSwzMDcuNzExMjkyIDI5OS4wNTUzOTIsMzA3LjQ1OTA2OSBMMzAxLjEyNTgwNCwzMDcuNDM0NjU5IEwzMDEuMTI1ODA0LDMwNy40MzQ2NTkgTDMwMy4xOTY5NzYsMzA3LjQwMDg3MyBMMzAzLjE5Njk3NiwzMDcuNDAwODczIEwzMDYuMzAxNTU5LDMwNy4zMzYzMTkgTDMwNi4zMDE1NTksMzA3LjMzNjMxOSBMMzExLjQ1NjM0NSwzMDcuMjA1ODQ4IEwzMTEuNDU2MzQ1LDMwNy4yMDU4NDggTDMxNy41NzgxODYsMzA3LjA0NDE0OSBMMzE3LjU3ODE4NiwzMDcuMDQ0MTQ5IEwzMTkuNTk2MTc0LDMwNi45OTYzNDcgQzMxOS45MzEzOCwzMDYuOTg4ODIyIDMyMC4yNjYsMzA2Ljk4MTU0MiAzMjAuNiwzMDYuOTc0NTQyIEMzMTksMzEwLjY3NDU0MiAzMTUuOCwzMTUuMDc0NTQyIDMxMS44LDMxNi42NzQ1NDIgQzMxMC44NDYsMzE3LjA2MTU0MiAzMDkuNzM4MSwzMTcuNDQwNDQyIDMwOC41MDA4NjcsMzE3LjgwMzg3OSBMMzA3LjY1NzE1NSwzMTguMDQzNzk5IEMzMDcuMDgyMjY2LDMxOC4yMDIxMSAzMDYuNDgyOTA4LDMxOC4zNTcwNDQgMzA1Ljg2MTIzOCwzMTguNTA3OTU0IEwzMDQuOTEyMjY4LDMxOC43MzEyMjEgTDMwNC45MTIyNjgsMzE4LjczMTIyMSBMMzAzLjkzMTQ0OCwzMTguOTQ3OTY2IEMzMDIuMTA1MDcxLDMxOS4zMzkwNTkgMzAwLjEyNjI3LDMxOS42OTQ4MzIgMjk4LjAzOTksMzIwLjAwMTg0MiBMMjk2Ljg5MTQ4MiwzMjAuMTY0Mzg1IEMyOTYuMzEyMjA4LDMyMC4yNDMxNTggMjk1LjcyNTU0LDMyMC4zMTgxMjIgMjk1LjEzMjM4NywzMjAuMzg5MDA0IEwyOTMuOTM3NzA2LDMyMC41MjUyNDcgQzI5Mi43MzQ5MTgsMzIwLjY1NTg4NSAyOTEuNTA4NjE4LDMyMC43Njk0NzEgMjkwLjI2NjA4NiwzMjAuODYzODIxIEwyODkuMDE4NDEzLDMyMC45NTE2NzkgQzI3Ny41MzY3NSwzMjEuNjk2NzkyIDI2NC44OTUsMzIwLjc2NDU0MiAyNTYuNywzMTYuNDc0NTQyIEMyNTEuNTM5MjE2LDMxMy42NzQ1NDIgMjQ3LjM3MzEyNiwzMDkuMDA1NzIyIDI0My44MDQ1NjIsMzA0LjI3MTg5IEwyNDMuMDQ4ODcsMzAzLjI1NzE1OSBMMjQzLjA0ODg3LDMwMy4yNTcxNTkgTDI0Mi4zMTA2MDIsMzAyLjI0NDM4MyBMMjQyLjMxMDYwMiwzMDIuMjQ0MzgzIEwyNDEuNTg4ODg5LDMwMS4yMzc1MDUgTDI0MS41ODg4ODksMzAxLjIzNzUwNSBMMjQwLjE5MTY1MywyOTkuMjU3MjIgTDI0MC4xOTE2NTMsMjk5LjI1NzIyIEwyMzguODUwMjE0LDI5Ny4zNDc4NTggTDIzOC44NTAyMTQsMjk3LjM0Nzg1OCBMMjM4LjE5ODI0NywyOTYuNDI5NjMzIEMyMzguMDkwNTU2LDI5Ni4yNzg5NSAyMzcuOTgzMzM3LDI5Ni4xMjk0OTggMjM3Ljg3NjU3MiwyOTUuOTgxMzYgTDIzNy4yNDEyOTYsMjk1LjEwODk2IEMyMzYuODIxMjIzLDI5NC41Mzg3NDggMjM2LjQwNzg0MywyOTMuOTkyMTg5IDIzNiwyOTMuNDc0NTQyIEMyMzUuNzc0NjY3LDI5My4xOTcyMDkgMjM1LjQ3NjQ3NiwyOTIuODgyMzIgMjM1LjEyOTMxNywyOTIuNTM4NDY4IEwyMzQuNjkwNzUxLDI5Mi4xMTI0OTQgTDIzNC42OTA3NTEsMjkyLjExMjQ5NCBMMjM0LjIxNDM1MSwyOTEuNjYyMDE1IEwyMzQuMjE0MzUxLDI5MS42NjIwMTUgTDIzMy4xODQ3NDEsMjkwLjcwMDc0MSBMMjMzLjE4NDc0MSwyOTAuNzAwNzQxIEwyMzIuNjQ5ODc5LDI5MC4xOTY1NDUgTDIzMi42NDk4NzksMjkwLjE5NjU0NSBMMjMyLjAzMTksMjg5LjYwMDk0MiBMMjMxLjM3MDg4OSwyODguOTM4MjUgTDIzMS4zNzA4ODksMjg4LjkzODI1IEwyMzAuOTQ3NjgsMjg4LjQ5MzA5NiBMMjMwLjk0NzY4LDI4OC40OTMwOTYgTDIzMC41NDQ4MTUsMjg4LjA0NzU0NiBMMjMwLjU0NDgxNSwyODguMDQ3NTQ2IEwyMzAuMTY3NzYsMjg3LjYwMzU2NSBMMjMwLjE2Nzc2LDI4Ny42MDM1NjUgTDIyOS45OTA2MTgsMjg3LjM4Mjc3NyBMMjI5Ljk5MDYxOCwyODcuMzgyNzc3IEwyMjkuODIxOTc3LDI4Ny4xNjMxMTkgTDIyOS44MjE5NzcsMjg3LjE2MzExOSBMMjI5LjY2MjUyLDI4Ni45NDQ4MzYgTDIyOS42NjI1MiwyODYuOTQ0ODM2IEwyMjkuNTEyOTMxLDI4Ni43MjgxNzMgTDIyOS41MTI5MzEsMjg2LjcyODE3MyBMMjI5LjM3Mzg5MSwyODYuNTEzMzc2IEwyMjkuMzczODkxLDI4Ni41MTMzNzYgTDIyOS4yNDYwODQsMjg2LjMwMDY5MSBDMjI5LjIyNTc1NywyODYuMjY1NDM0IDIyOS4yMDU5MjYsMjg2LjIzMDI3NCAyMjkuMTg2NjA2LDI4Ni4xOTUyMTggTDIyOS4wNzY5MjksMjg1Ljk4NjE2MSBDMjI5LjA1OTcwOSwyODUuOTUxNTM5IDIyOS4wNDMwMjgsMjg1LjkxNzAzIDIyOS4wMjY5LDI4NS44ODI2NCBMMjI4LjkzNjg5LDI4NS42Nzc3NjUgTDIyOC45MzY4OSwyODUuNjc3NzY1IEwyMjguODYwODQ0LDI4NS40NzU5ODQgTDIyOC44NjA4NDQsMjg1LjQ3NTk4NCBMMjI4Ljc5OTQ0NSwyODUuMjc3NTQzIEMyMjguNDc2MzY0LDI4NC4wOTc0MDggMjI4Ljk4MTEzNSwyODMuMTEwOSAyMzAuOTc3NTgyLDI4Mi41NTY3NzkgTDIzMS4zMjQyNDgsMjgyLjQ2ODQ3IEMyMzEuNDQ0NDg0LDI4Mi40NDAzOTYgMjMxLjU2OTQzNywyODIuNDEzNjk3IDIzMS42OTkyMjIsMjgyLjM4ODQxNCBMMjMyLjEwMzE4NSwyODIuMzE2ODU2IEMyMzIuMzgyMzA4LDI4Mi4yNzIwMzkgMjMyLjY4MTIxMywyODIuMjMzMDUgMjMzLjAwMDgxMSwyODIuMjAwMjE5IEwyMzMuNDk1ODQsMjgyLjE1NTYzIEwyMzMuNDk1ODQsMjgyLjE1NTYzIEwyMzQuMDIyNTkxLDI4Mi4xMjA1MjIgTDIzNC4wMjI1OTEsMjgyLjEyMDUyMiBMMjM0LjU4MTc0NiwyODIuMDk1MTQxIEMyMzQuNjc3Njc2LDI4Mi4wOTE3MzUgMjM0Ljc3NDk4NiwyODIuMDg4NzQ1IDIzNC44NzM2ODgsMjgyLjA4NjE3NSBMMjM1LjQ4MjczLDI4Mi4wNzU4NDUgQzIzNS41ODcwNjEsMjgyLjA3NDk3OCAyMzUuNjkyODEzLDI4Mi4wNzQ1NDIgMjM1LjgsMjgyLjA3NDU0MiBaIE0yMzkuMiwyNjUuNzc0NTQyIEMyNDguMDYxNTM4LDI3MC4zNjM1NTMgMjYwLjcwNjk2OCwyNzIuODEwMjE0IDI3NC4wMjUwMzQsMjczLjk5NTA2OCBMMjc1LjY5MzA3MSwyNzQuMTM2NjY3IEMyNzUuOTcxNTg2LDI3NC4xNTkxOTMgMjc2LjI1MDMzNywyNzQuMTgxMTg3IDI3Ni41MjkyOTUsMjc0LjIwMjY1NyBMMjc4LjIwNTMwOSwyNzQuMzI1MjU2IEMyNzguNzY0NjYxLDI3NC4zNjQwNyAyNzkuMzI0NjE4LDI3NC40MDA4NTMgMjc5Ljg4NDk1NSwyNzQuNDM1NjY3IEwyODEuNTY2ODgsMjc0LjUzNDI3MiBDMjgxLjg0NzMxNiwyNzQuNTQ5NzQ0IDI4Mi4xMjc3OTEsMjc0LjU2NDczOSAyODIuNDA4Mjc2LDI3NC41NzkyNjcgTDI4NC4wOTEwOTEsMjc0LjY2MDg3OSBDMjg0LjY1MTkyMSwyNzQuNjg2MjUzIDI4NS4yMTI1NjksMjc0LjcwOTgxOSAyODUuNzcyODA5LDI3NC43MzE2NDEgTDI4Ny40NTIwODIsMjc0Ljc5MTkzMyBMMjg3LjQ1MjA4MiwyNzQuNzkxOTMzIEwyODkuMTI3NTU4LDI3NC44NDIxNCBDMjg5LjY4NTI2OCwyNzQuODU3MjM3IDI5MC4yNDIxMTksMjc0Ljg3MDcxNiAyOTAuNzk3ODg4LDI3NC44ODI2NDIgTDI5Mi40NjE3MjEsMjc0LjkxMzgyMyBMMjkyLjQ2MTcyMSwyNzQuOTEzODIzIEwyOTQuMTE3NzA2LDI3NC45MzYwNjMgTDI5NC4xMTc3MDYsMjc0LjkzNjA2MyBMMjk1Ljc2NDQ5MywyNzQuOTQ5NzQ2IEwyOTUuNzY0NDkzLDI3NC45NDk3NDYgTDI5Ny40MDA3MzIsMjc0Ljk1NTI1MyBMMjk3LjQwMDczMiwyNzQuOTU1MjUzIEwyOTkuMDI1MDczLDI3NC45NTI5NjggTDI5OS4wMjUwNzMsMjc0Ljk1Mjk2OCBMMzAxLjQzNjMyLDI3NC45MzU3NjIgTDMwMS40MzYzMiwyNzQuOTM1NzYyIEwzMDMuMDI1MDA3LDI3NC45MTU2NjUgTDMwMy4wMjUwMDcsMjc0LjkxNTY2NSBMMzA0LjU5NzA2OCwyNzQuODg5MTEyIEwzMDQuNTk3MDY4LDI3NC44ODkxMTIgTDMwNi45MjEwMzUsMjc0LjgzODAxNSBMMzA2LjkyMTAzNSwyNzQuODM4MDE1IEwzMDkuMiwyNzQuNzc0NTQyIEwzMDkuMiwyNzQuNzc0NTQyIEMzMDkuOTgyNjA5LDI3OC4wMzU0MTEgMzEwLjI1NDgyLDI4MS43NjQxNDUgMzEwLjM3NzI0MiwyODUuNjI3ODc1IEwzMTAuNDE5MDc2LDI4Ny4xNzk3NzcgTDMxMC40MTkwNzYsMjg3LjE3OTc3NyBMMzEwLjQ1MDA2MiwyODguNzQxMzQ1IEwzMTAuNDUwMDYyLDI4OC43NDEzNDUgTDMxMC41LDI5MS44NzQ1NDIgTDMxMC41LDI5MS44NzQ1NDIgQzI4MS40LDI5My40NzQ1NDIgMjQ3LDI4Ni4yNzQ1NDIgMjM5LjIsMjY1Ljc3NDU0MiBaIE0zNjQuNCwyNTQuODc0NTQyIEwzNjMuNTg4NzQ1LDI1Ni4zOTk2IEwzNjMuNTg4NzQ1LDI1Ni4zOTk2IEwzNjMuMDM2MDI1LDI1Ny40MTk4MjkgTDM2My4wMzYwMjUsMjU3LjQxOTgyOSBMMzYyLjQ3MzI0OSwyNTguNDQxNzc1IEwzNjIuNDczMjQ5LDI1OC40NDE3NzUgTDM2MS44OTk5NDYsMjU5LjQ2NDQ5MSBDMzYxLjgwMzQ5MiwyNTkuNjM0OTU1IDM2MS43MDY1OCwyNTkuODA1NDEyIDM2MS42MDkyLDI1OS45NzU4NDIgTDM2MS4wMTkyMjYsMjYwLjk5Nzk0IEwzNjEuMDE5MjI2LDI2MC45OTc5NCBMMzYwLjQxNzU0OSwyNjIuMDE4NDQ1IEMzNjAuMzE2MjY4LDI2Mi4xODgzNDQgMzYwLjIxNDQ4LDI2Mi4zNTgxMzcgMzYwLjExMjE3NSwyNjIuNTI3ODA0IEwzNTkuNDkyMDYzLDI2My41NDQxNDYgQzM1MC44MjU4NSwyNzcuNTc4MzQyIDMzOC40NjMsMjkwLjQ3NjU0MiAzMTYuOCwyOTAuOTc0NTQyIEwzMTYuNjg2NzUxLDI4OS4zODA2MSBMMzE2LjY4Njc1MSwyODkuMzgwNjEgTDMxNi41Nzk3MjEsMjg3LjY1NzEwMyBMMzE2LjU3OTcyMSwyODcuNjU3MTAzIEwzMTYuNTA3MjcyLDI4Ni4zMDYyNTMgTDMxNi41MDcyNzIsMjg2LjMwNjI1MyBMMzE2LjQ0NDQ0NCwyODQuOTI2Mzk0IEwzMTYuNDQ0NDQ0LDI4NC45MjYzOTQgTDMxNi4zOTM4NjEsMjgzLjUzNjMzMSBMMzE2LjM5Mzg2MSwyODMuNTM2MzMxIEwzMTYuMzY4MjM4LDI4Mi42MTMyMzkgTDMxNi4zNjgyMzgsMjgyLjYxMzIzOSBMMzE2LjM1LDI4MS42OTk1NDIgTDMxNi4zNSwyODEuNjk5NTQyIEwzMTYuMzM5OTI1LDI4MC44MDA4MTEgTDMxNi4zMzk5MjUsMjgwLjgwMDgxMSBMMzE2LjMzODc5MiwyNzkuOTIyNjE3IEMzMTYuMzM5MzkxLDI3OS43NzgyNzMgMzE2LjM0MDM5NSwyNzkuNjM1MDE2IDMxNi4zNDE4MjEsMjc5LjQ5Mjk2MyBMMzE2LjM1NTU1NiwyNzguNjU2MDIzIEMzMTYuMzU4NzMsMjc4LjUxOTI1MSAzMTYuMzYyMzU4LDI3OC4zODM5MTQgMzE2LjM2NjQ1NiwyNzguMjUwMTMgTDMxNi4zOTY4MDksMjc3LjQ2Njk4MSBDMzE2LjQ2MzI2NSwyNzYuMDY4NzYgMzE2LjU5MDQ3NiwyNzQuODg2NDQ3IDMxNi44LDI3NC4wNzQ1NDIgQzMyNy4wMTI3ODUsMjczLjA0ODEzMSAzMzUuMjUwMjIzLDI2OS44ODgzNDUgMzQyLjkxODA1OCwyNjYuMDk1NTQ3IEwzNDQuMTI0MjQxLDI2NS40OTE2NDMgTDM0NC4xMjQyNDEsMjY1LjQ5MTY0MyBMMzQ1LjMyMjE4NiwyNjQuODc4NTMgQzM0NS41MjEyMjUsMjY0Ljc3NTY1IDM0NS43MTk5NzIsMjY0LjY3MjQ0MSAzNDUuOTE4NDUzLDI2NC41Njg5MyBMMzQ3LjEwNjM0OCwyNjMuOTQ0NDY1IEwzNDcuMTA2MzQ4LDI2My45NDQ0NjUgTDM0OC4yODkwNzksMjYzLjMxNDA3MyBMMzQ4LjI4OTA3OSwyNjMuMzE0MDczIEwzNDkuNDY3ODc3LDI2Mi42NzkwNjUgTDM0OS40Njc4NzcsMjYyLjY3OTA2NSBMMzU0LjIzMDc3NSwyNjAuMDg1MTg2IEMzNTcuNTUxNzU4LDI1OC4yNzk4OTkgMzYwLjksMjU2LjQ5ODcyNSAzNjQuNCwyNTQuODc0NTQyIFogTTMwNS4zNzE3OTgsMTU1LjgwMzg2OCBMMzA1LjQsMTU1Ljg3NDU0MiBDMzA4Ljc1NTg0NCwxNjMuODIyNTk0IDMxNC4zNTM4ODgsMTcyLjcwNjUyIDMyMC43NzM2MDcsMTgxLjQ3NTk5NSBMMzIxLjkxNDczOSwxODMuMDIyMTQ3IEMzMjIuNDg5MjgsMTgzLjc5NDQxNSAzMjMuMDY5NTY4LDE4NC41NjUzMTIgMzIzLjY1NDYyNywxODUuMzM0MTE0IEwzMjQuODMwODE3LDE4Ni44Njg3MTQgTDMyNC44MzA4MTcsMTg2Ljg2ODcxNCBMMzI2LjAxNzk5NCwxODguMzk2NDQ5IEwzMjYuMDE3OTk0LDE4OC4zOTY0NDkgTDMyNy4yMTQ0MjMsMTg5LjkxNjAzNSBMMzI3LjIxNDQyMywxODkuOTE2MDM1IEwzMjguNDE4MzcsMTkxLjQyNjE5IEwzMjguNDE4MzcsMTkxLjQyNjE5IEwzMjkuNjI4MDk5LDE5Mi45MjU2MzEgTDMyOS42MjgwOTksMTkyLjkyNTYzMSBMMzMwLjg0MTg3NiwxOTQuNDEzMDc2IEwzMzAuODQxODc2LDE5NC40MTMwNzYgTDMzMi4wNTc5NjcsMTk1Ljg4NzI0MSBMMzMyLjA1Nzk2NywxOTUuODg3MjQxIEwzMzMuMjc0NjM2LDE5Ny4zNDY4NDUgTDMzMy4yNzQ2MzYsMTk3LjM0Njg0NSBMMzM0LjQ5MDE0OCwxOTguNzkwNjA0IEwzMzQuNDkwMTQ4LDE5OC43OTA2MDQgTDMzNS43MDI3NjgsMjAwLjIxNzIzNiBMMzM1LjcwMjc2OCwyMDAuMjE3MjM2IEwzMzYuOTEwNzYzLDIwMS42MjU0NTcgTDMzNi45MTA3NjMsMjAxLjYyNTQ1NyBMMzM4LjExMjM5NywyMDMuMDEzOTg2IEwzMzguMTEyMzk3LDIwMy4wMTM5ODYgTDMzOS4zMDU5MzUsMjA0LjM4MTUzOSBMMzM5LjMwNTkzNSwyMDQuMzgxNTM5IEwzNDAuNDg5NjQyLDIwNS43MjY4MzQgTDM0MC40ODk2NDIsMjA1LjcyNjgzNCBMMzQxLjY2MTc4MywyMDcuMDQ4NTg4IEwzNDEuNjYxNzgzLDIwNy4wNDg1ODggTDM0My4zOTQ1MTYsMjA4Ljk4NDI3NSBMMzQzLjM5NDUxNiwyMDguOTg0Mjc1IEwzNDQuNTMwMTU0LDIxMC4yNDE1NjUgTDM0NC41MzAxNTQsMjEwLjI0MTU2NSBMMzQ1LjY0ODE1NiwyMTEuNDcwODI0IEMzNDUuODMyOTIzLDIxMS42NzMyOTQgMzQ2LjAxNjg4MywyMTEuODc0NTQyIDM0Ni4yLDIxMi4wNzQ1NDIgQzM0Ni42NjM2MzYsMjEyLjYxOTk5NiAzNDcuMTY4MTgyLDIxMy4xNTI0MzQgMzQ3LjY5NTEyNiwyMTMuNjcxODU2IEwzNDguMjI4ODUsMjE0LjE4NjkzOSBMMzQ4LjIyODg1LDIxNC4xODY5MzkgTDM0OC43NzMzOTQsMjE0LjY5MzM0MyBMMzQ4Ljc3MzM5NCwyMTQuNjkzMzQzIEwzNDkuMzI0NjQzLDIxNS4xOTEwNzEgTDM0OS4zMjQ2NDMsMjE1LjE5MTA3MSBMMzQ5Ljg3ODQ4NCwyMTUuNjgwMTIgTDM0OS44Nzg0ODQsMjE1LjY4MDEyIEwzNTIuMDM3NSwyMTcuNTQ5NTQyIEwzNTIuMDM3NSwyMTcuNTQ5NTQyIEwzNTIuNTQyNiwyMTcuOTk1MjAzIEwzNTIuNTQyNiwyMTcuOTk1MjAzIEwzNTMuMDI1NjEsMjE4LjQzMjE4NiBDMzU0LjM1ODk2NCwyMTkuNjU4MDEzIDM1NS4zNzY4MDEsMjIwLjc3OTM0NiAzNTUuNjU4MDkyLDIyMS43OTYxODQgTDM1NS43LDIyMS45NzQ1NDIgQzM1Ni41MTUwOTQsMjI1LjIzNDkxOSAzNTUuNjA3NzI1LDIyOC44MjMzODUgMzU0LjQ1NDI5LDIzMi4yMTk5NSBMMzU0LjE2MTY1OSwyMzMuMDY0NzkyIEMzNTQuMTEyMzE4LDIzMy4yMDQ4MzMgMzU0LjA2Mjc2MywyMzMuMzQ0NDY1IDM1NC4wMTMxMDEsMjMzLjQ4MzY1MSBMMzUzLjEzMDcyMywyMzUuOTMyNzA2IEwzNTMuMTMwNzIzLDIzNS45MzI3MDYgTDM1Mi44NTUzOTMsMjM2LjcxOTIyNCBDMzUyLjA5ODI5MSwyMzguOTIzMTQ4IDM1MS41NTcyNDUsMjQwLjkxMTIxIDM1MS43NTY5NiwyNDIuNDk4NjA5IEwzNTEuNzc5NDY0LDI0Mi42NDYgTDM0OS4zNDA3MzEsMjQ0LjIyNDkwNyBMMzQ5LjM0MDczMSwyNDQuMjI0OTA3IEwzNDcuNjEwNzE2LDI0NS4zMzQ2NCBMMzQ3LjYxMDcxNiwyNDUuMzM0NjQgTDM0NS4yODA2MTMsMjQ2LjgxMDYxNyBMMzQ1LjI4MDYxMywyNDYuODEwNjE3IEwzNDQuMTA0NzA5LDI0Ny41NDUyIEwzNDQuMTA0NzA5LDI0Ny41NDUyIEwzNDIuOTIxMDg1LDI0OC4yNzY0MjYgTDM0Mi45MjEwODUsMjQ4LjI3NjQyNiBMMzQxLjcyOTM3NywyNDkuMDAzNDc5IEwzNDEuNzI5Mzc3LDI0OS4wMDM0NzkgTDM0MC41MjkyMjQsMjQ5LjcyNTU0NSBMMzQwLjUyOTIyNCwyNDkuNzI1NTQ1IEwzMzkuMzIwMjYxLDI1MC40NDE4MDggTDMzOS4zMjAyNjEsMjUwLjQ0MTgwOCBMMzM4LjEwMjEyNSwyNTEuMTUxNDU0IEwzMzguMTAyMTI1LDI1MS4xNTE0NTQgTDMzNi44NzQ0NTMsMjUxLjg1MzY2OCBMMzM2Ljg3NDQ1MywyNTEuODUzNjY4IEwzMzUuNjM2ODgxLDI1Mi41NDc2MzQgQzMzMy43NzI5MTgsMjUzLjU4MTk5IDMzMS44NzQzMTgsMjU0LjU4NTc2IDMyOS45MzU1NjQsMjU1LjU0NjU2NCBMMzI4LjYzNzA1MiwyNTYuMTgwNiBDMzE1LjE1NjM3NiwyNjIuNjYzNzIgMjk5LjcxMTk0LDI2Ni45NzczMjIgMjgwLjUsMjY1LjA3NDU0MiBDMjczLjksMjU5LjI3NDU0MiAyNzEuNCwyNDYuMjc0NTQyIDI3Ny45LDIzNy42NzQ1NDIgQzI3OC4zOTE1NjYsMjM4LjUyNzU1NCAyNzguNzYzOTg2LDIzOS40ODA5IDI3OS4wNzA0NDgsMjQwLjQ5MjU3MiBMMjc5LjIxODQyOSwyNDEuMDAzMDc1IEwyNzkuMjE4NDI5LDI0MS4wMDMwNzUgTDI3OS4zNTY4OTUsMjQxLjUyMjEzMSBDMjc5LjM3OTI2MiwyNDEuNjA5Mjg5IDI3OS40MDEyOTMsMjQxLjY5Njc1NCAyNzkuNDIzMDIxLDI0MS43ODQ1MDMgTDI3OS42MTExOSwyNDIuNTgxMjQgTDI3OS42MTExOSwyNDIuNTgxMjQgTDI3OS44NDUxNTIsMjQzLjY2MDU2MyBMMjc5Ljg0NTE1MiwyNDMuNjYwNTYzIEwyODAuMjk5MzYxLDI0NS44NDI1MTIgTDI4MC4yOTkzNjEsMjQ1Ljg0MjUxMiBMMjgwLjQxODY3NCwyNDYuMzg2MDQ4IEwyODAuNDE4Njc0LDI0Ni4zODYwNDggTDI4MC42MDc5NjYsMjQ3LjE5NTE0NyBMMjgwLjYwNzk2NiwyNDcuMTk1MTQ3IEwyODAuNzQzMTk3LDI0Ny43Mjg3MDkgTDI4MC43NDMxOTcsMjQ3LjcyODcwOSBMMjgwLjg4NzM4MiwyNDguMjU2MjM5IEwyODAuODg3MzgyLDI0OC4yNTYyMzkgTDI4MS4wNDE5OTcsMjQ4Ljc3NjU3IEMyODIuMTEwODE0LDI1Mi4yMTg4NTkgMjgzLjk3MzQ5NCwyNTUuMTAzNDU4IDI4OC42LDI1NS44NzQ1NDIgQzI5NS42OCwyNTcuMTE0NTQyIDMwMy4yMDgsMjU1LjYzNDU0MiAzMTAuNTI0OCwyNTMuMDk4NTQyIEwzMTEuNjc4MjMzLDI1Mi42ODk1ODggQzMxMy4wMjE2MzMsMjUyLjIwMjgwMyAzMTQuMzU2Njg5LDI1MS42ODMxNTUgMzE1LjY3OTI4LDI1MS4xNDEwNDggTDMxNi44MDk3ODEsMjUwLjY3MTEyNiBMMzE2LjgwOTc4MSwyNTAuNjcxMTI2IEwzMTcuOTMzNiwyNTAuMTkxNjU5IEwzMTcuOTMzNiwyNTAuMTkxNjU5IEwzMTkuMDUwMTYxLDI0OS43MDQxMDIgTDMxOS4wNTAxNjEsMjQ5LjcwNDEwMiBMMzIwLjE1ODg4NiwyNDkuMjA5OTExIEwzMjAuMTU4ODg2LDI0OS4yMDk5MTEgTDMyMS4yNTkyLDI0OC43MTA1NDIgTDMyMS4yNTkyLDI0OC43MTA1NDIgTDMyMi44OTI2MzcsMjQ3Ljk1NDk2MiBMMzIyLjg5MjYzNywyNDcuOTU0OTYyIEwzMjQuNTAzOTA1LDI0Ny4xOTU5MTggTDMyNC41MDM5MDUsMjQ3LjE5NTkxOCBMMzI2LjYxNDQxMSwyNDYuMTg2OTYxIEwzMjYuNjE0NDExLDI0Ni4xODY5NjEgTDMzMC42ODgzNTEsMjQ0LjIyMzM1NCBMMzMwLjY4ODM1MSwyNDQuMjIzMzU0IEwzMzIuNjQyNTU5LDI0My4yOTE5OTIgTDMzMi42NDI1NTksMjQzLjI5MTk5MiBMMzMzLjU5Njk1NCwyNDIuODQ0MDE3IEwzMzMuNTk2OTU0LDI0Mi44NDQwMTcgTDMzNC45OTg1MzgsMjQyLjE5ODI3OSBMMzM0Ljk5ODUzOCwyNDIuMTk4Mjc5IEwzMzUuOTEyMDgyLDI0MS43ODczOTMgQzMzNi4wNjI5MDksMjQxLjcyMDMyMSAzMzYuMjEzMDE0LDI0MS42NTM5NzIgMzM2LjM2MjM4NCwyNDEuNTg4Mzc4IEwzMzcuMjQ5Njg2LDI0MS4yMDQxMTQgTDMzNy4yNDk2ODYsMjQxLjIwNDExNCBMMzM4LjExODc3NCwyNDAuODM5NDE1IEwzMzguMTE4Nzc0LDI0MC44Mzk0MTUgTDMzOC45NjkwNzEsMjQwLjQ5NTc0IEMzMzkuMjQ5MzA3LDI0MC4zODQ4NDcgMzM5LjUyNjMxNiwyNDAuMjc3NyAzMzkuOCwyNDAuMTc0NTQyIEMzNDMuOTM0LDIzMy4xMjU1NDIgMzQzLjQzMzE1LDIyOC40MzYxMDIgMzQxLjAwNzAxMSwyMjQuMzA0ODEgTDM0MC43MjQyNzUsMjIzLjgzOTQwNCBDMzQwLjY3NTgzLDIyMy43NjIyMDIgMzQwLjYyNjczNiwyMjMuNjg1MTc0IDM0MC41NzcwMTEsMjIzLjYwODMwOCBMMzQwLjI3MTIzOCwyMjMuMTQ4OTY3IEwzNDAuMjcxMjM4LDIyMy4xNDg5NjcgTDMzOS45NTEyLDIyMi42OTI5NDIgQzMzOS44OTY3MiwyMjIuNjE3MTgyIDMzOS44NDE2ODIsMjIyLjU0MTUzNiAzMzkuNzg2MTA0LDIyMi40NjU5OTIgTDMzOS40NDYzMDUsMjIyLjAxMzg1MyBMMzM5LjQ0NjMwNSwyMjIuMDEzODUzIEwzMzkuMDk0NDI1LDIyMS41NjM1NzkgQzMzOS4wMzQ4MiwyMjEuNDg4NjU3IDMzOC45NzQ3NDgsMjIxLjQxMzc4OCAzMzguOTE0MjI3LDIyMS4zMzg5NiBMMzM4LjU0NTg2MiwyMjAuODkwMzk1IEwzMzguNTQ1ODYyLDIyMC44OTAzOTUgTDMzOC4xNjc2LDIyMC40NDIyNDIgTDMzOC4xNjc2LDIyMC40NDIyNDIgTDMzNy41ODM1NTksMjE5Ljc2OTUxNiBMMzM3LjU4MzU1OSwyMTkuNzY5NTE2IEwzMzYuOTgyMTYzLDIxOS4wOTQ0NTIgTDMzNi45ODIxNjMsMjE5LjA5NDQ1MiBMMzM1LjczOTA5OCwyMTcuNzI5NDY5IEwzMzUuNzM5MDk4LDIxNy43Mjk0NjkgTDMzNC40NjE5OSwyMTYuMzMxNjExIEwzMzQuNDYxOTksMjE2LjMzMTYxMSBMMzM0LjAzMjgsMjE1Ljg1NTY0MiBMMzM0LjAzMjgsMjE1Ljg1NTY0MiBMMzMzLjM4ODc0NywyMTUuMTMwMzAyIEwzMzMuMzg4NzQ3LDIxNS4xMzAzMDIgTDMzMi43NDY5OTUsMjE0LjM4OTU1NiBMMzMyLjc0Njk5NSwyMTQuMzg5NTU2IEwzMzIuMzIxODk0LDIxMy44ODYxOTkgTDMzMi4zMjE4OTQsMjEzLjg4NjE5OSBMMzMxLjksMjEzLjM3NDU0MiBMMzMxLjksMjEzLjM3NDU0MiBMMzI2LjkwNDQwNSwyMDcuNDM5NTU2IEwzMjYuOTA0NDA1LDIwNy40Mzk1NTYgTDMyNS4wMzg2MjUsMjA1LjIwMTg2NyBMMzI1LjAzODYyNSwyMDUuMjAxODY3IEwzMjQuMTAwOTk1LDIwNC4wNjcwNzkgTDMyNC4xMDA5OTUsMjA0LjA2NzA3OSBMMzIzLjE2MTgwNSwyMDIuOTIxNjUgTDMyMy4xNjE4MDUsMjAyLjkyMTY1IEwzMjIuMjIyMjU1LDIwMS43NjU1NyBMMzIyLjIyMjI1NSwyMDEuNzY1NTcgTDMyMS4yODM1NDUsMjAwLjU5ODgyOCBMMzIxLjI4MzU0NSwyMDAuNTk4ODI4IEwzMjAuMzQ2ODc1LDE5OS40MjE0MTcgQzMyMC4xOTEsMTk5LjIyNDI5MiAzMjAuMDM1MjYsMTk5LjAyNjcyMiAzMTkuODc5NjgsMTk4LjgyODcwNyBMMzE4Ljk0ODMyLDE5Ny42MzUyNzEgQzMxOC43OTM0OCwxOTcuNDM1NDc1IDMxOC42Mzg4NSwxOTcuMjM1MjMyIDMxOC40ODQ0NTUsMTk3LjAzNDU0NCBMMzE3LjU2MTEwNSwxOTUuODI1MDY0IEMzMTYuOTQ3Njg1LDE5NS4wMTUxNzUgMzE2LjMzODgyNSwxOTQuMTk4MTQ3IDMxNS43MzYxMjUsMTkzLjM3Mzk2NyBMMzE0LjgzNjg5NSwxOTIuMTMyMzMxIEwzMTQuODM2ODk1LDE5Mi4xMzIzMzEgTDMxMy45NDgxMDUsMTkwLjg3OTk1OCBDMzEzLjY1MzcxNSwxOTAuNDYwNzEgMzEzLjM2MTI2NSwxOTAuMDM5NjcgMzEzLjA3MDk1NSwxODkuNjE2ODM4IEwzMTIuMjA2NjQ1LDE4OC4zNDI5NiBDMzA0LjA2MDQ5LDE3Ni4xOTAwMDIgMjk3LjgxNSwxNjIuNTc5NTQyIDI5OC4xLDE0Ny40NzQ1NDIgQzMwMS4wMzQxMTgsMTQ1LjM0OTgzNiAzMDIuNjYzMDU5LDE0Ny4wMzgyOTMgMzAzLjY2MDAzNiwxNDkuNDcxNjE4IEwzMDMuNzk1MTE1LDE0OS44MTU2NzggTDMwMy43OTUxMTUsMTQ5LjgxNTY3OCBMMzAzLjkyMjM5OCwxNTAuMTY3NTUzIEwzMDMuOTIyMzk4LDE1MC4xNjc1NTMgTDMwNC4wNDIyOTEsMTUwLjUyNTM5MiBMMzA0LjA0MjI5MSwxNTAuNTI1MzkyIEwzMDQuMTU1MiwxNTAuODg3MzQyIEwzMDQuMTU1MiwxNTAuODg3MzQyIEwzMDQuMzEyMzU5LDE1MS40MzM5MjMgTDMwNC4zMTIzNTksMTUxLjQzMzkyMyBMMzA0LjQ1NjA5MSwxNTEuOTc5MzM1IEwzMDQuNDU2MDkxLDE1MS45NzkzMzUgTDMwNC42MjkyMTgsMTUyLjY5MzkyNyBMMzA0LjYyOTIxOCwxNTIuNjkzOTI3IEwzMDUuMTEzMzMyLDE1NC44NzcxNDcgTDMwNS4xMTMzMzIsMTU0Ljg3NzE0NyBMMzA1LjIwMTQ4MywxNTUuMjM5MzIyIEwzMDUuMjAxNDgzLDE1NS4yMzkzMjIgTDMwNS4yNTg4MDMsMTU1LjQ1MjcyMiBMMzA1LjI1ODgwMywxNTUuNDUyNzIyIEwzMDUuMzE1NDM5LDE1NS42NDE1MjIgTDMwNS4zMTU0MzksMTU1LjY0MTUyMiBMMzA1LjM3MTc5OCwxNTUuODAzODY4IEwzMDUuMzcxNzk4LDE1NS44MDM4NjggWiBNMTAwLjIsMjMwLjE3NDU0MiBMMTAwLjIsMjI5Ljc3NDU0MiBDOTguNDg0NTA3LDIyOC43Njg5MDggOTcuMTQ1MTg5NCwyMjYuNzM5NzI3IDk1LjkyNTg4MzMsMjI0LjM3MDEwNCBMOTUuNTgwNTU0NCwyMjMuNjg0Mzk1IEM5NS41MjM0NzAxLDIyMy41Njg3NjIgOTUuNDY2NjAyNiwyMjMuNDUyNTA2IDk1LjQwOTkyNDMsMjIzLjMzNTY5OSBMOTUuMDcxOTAyOCwyMjIuNjI4ODM3IEw5NS4wNzE5MDI4LDIyMi42Mjg4MzcgTDk0LjIzNzk5NzIsMjIwLjgyNzA5NCBMOTQuMjM3OTk3MiwyMjAuODI3MDk0IEw5My41NzEzODU2LDIxOS4zNzkzMzMgTDkzLjU3MTM4NTYsMjE5LjM3OTMzMyBMOTMuMjM0NTk5NywyMTguNjYzMDY3IEw5My4yMzQ1OTk3LDIxOC42NjMwNjcgTDkyLjg5MzcyMzMsMjE3Ljk1NjU5NyBDOTIuNzc5MjY4NiwyMTcuNzIzMTM0IDkyLjY2MzkxMDksMjE3LjQ5MTg5MyA5Mi41NDc0Mjg4LDIxNy4yNjM0NjUgTDkyLjE5NDM4ODUsMjE2LjU4NzIxMSBDOTAuNTI5MDYxNywyMTMuNDc2MjQ4IDg4LjYsMjExLjAzMjI4OCA4NS44LDIxMC44NzQ1NDIgQzgxLjYsMjEwLjYyMjU0MiA3OS40ODE1MiwyMTQuMDM5NjYyIDc4LjQzNjk2MzIsMjE4Ljk2MjUzMiBMNzguMjk0OTM3NiwyMTkuNjc1ODA5IEw3OC4yOTQ5Mzc2LDIxOS42NzU4MDkgTDc4LjE2Njg3MDQsMjIwLjQwODE3MSBDNzguMTQ2NjUyOCwyMjAuNTMxNzQzIDc4LjEyNjk4OTYsMjIwLjY1NjA1MyA3OC4xMDc4NjcyLDIyMC43ODEwNyBMNzcuOTk5NTEzNiwyMjEuNTM5NDMxIEM3Ny45ODI1LDIyMS42NjcxNjIgNzcuOTY2LDIyMS43OTU1NDIgNzcuOTUsMjIxLjkyNDU0MiBMNzcuODU5ODkxMiwyMjIuNzA1NzQ4IEw3Ny44NTk4OTEyLDIyMi43MDU3NDggTDc3Ljc4MTEyOTYsMjIzLjUwMDQzMyBDNzcuNzY4OTEyLDIyMy42MzM5MjYgNzcuNzU3MTQsMjIzLjc2NzkyMiA3Ny43NDU4LDIyMy45MDIzOTIgTDc3LjY4MjgzNTIsMjI0LjcxNDY2NiBMNzcuNjgyODM1MiwyMjQuNzE0NjY2IEw3Ny42Mjk1ODU2LDIyNS41MzY5MTUgTDc3LjYyOTU4NTYsMjI1LjUzNjkxNSBMNzcuNTg1Mzk4NCwyMjYuMzY3NzM3IEw3Ny41ODUzOTg0LDIyNi4zNjc3MzcgTDc3LjU0OTYyMDgsMjI3LjIwNTcyOSBMNzcuNTQ5NjIwOCwyMjcuMjA1NzI5IEw3Ny41MjE2LDIyOC4wNDk0OTIgTDc3LjUyMTYsMjI4LjA0OTQ5MiBMNzcuNTAwNjgzMiwyMjguODk3NjIyIEw3Ny41MDA2ODMyLDIyOC44OTc2MjIgTDc3LjQ4MTIsMjMwLjE3NDk0MiBMNzcuNDgxMiwyMzAuMTc0OTQyIEw3Ny40NzM5OTM2LDIzMS44ODAyNDEgTDc3LjQ3Mzk5MzYsMjMxLjg4MDI0MSBMNzcuNDc5ODExMiwyMzMuMTU0NzM4IEw3Ny40Nzk4MTEyLDIzMy4xNTQ3MzggTDc3LjUxMDc1NjgsMjM1LjY3MTcyMSBMNzcuNTEwNzU2OCwyMzUuNjcxNzIxIEw3Ny41ODgyLDI0MC40NDUxOTIgTDc3LjU4ODIsMjQwLjQ0NTE5MiBMNzcuNTk5NDczNiwyNDEuOTE4MDUxIEM3Ny41OTk4MiwyNDIuMDM3NzAyIDc3LjYsMjQyLjE1NjU0MiA3Ny42LDI0Mi4yNzQ1NDIgQzcwLjYsMjM2LjE3NDU0MiA2OS41LDIxNi42NzQ1NDIgNzQuNSwyMDYuODc0NTQyIEM3MS4zMzE2NTEsMjA1LjI5MDM2NyA2OS4xNDgwNDc1LDIwNi4zNjIwMjEgNjcuMjgwODQ3MSwyMDguMDE5MjczIEw2Ni45ODA3MjU4LDIwOC4yOTI4MjMgTDY2Ljk4MDcyNTgsMjA4LjI5MjgyMyBMNjYuNjg1NTE4LDIwOC41NzQ2NzcgTDY2LjY4NTUxOCwyMDguNTc0Njc3IEw2Ni4zOTQ1OTAzLDIwOC44NjI4NzMgTDY2LjM5NDU5MDMsMjA4Ljg2Mjg3MyBMNjYuMTA3MzA5NiwyMDkuMTU1NDUxIEw2Ni4xMDczMDk2LDIwOS4xNTU0NTEgTDY1LjM2NTQ2OTQsMjA5LjkzMDM3NCBDNjQuNTQ5OTQ4LDIxMC43ODU5ODggNjMuNzUxNjEyOSwyMTEuNjA2OCA2Mi45LDIxMi4xNzQ1NDIgQzY3LDE4Mi4zNzQ1NDIgMTA2LjgsMTk4LjQ3NDU0MiAxMDAuMiwyMzAuMTc0NTQyIFogTTExOC4zLDkyLjI3NDU0MTggQzk4LjQsOTMuNzc0NTQxOCA4MiwxMDEuOTc0NTQyIDcwLDExNC45NzQ1NDIgTDcwLDExNS4yNzQ1NDIgTDY5LjksMTE1LjI3NDU0MiBDNjIuNDE4LDEyMy41MTA1NDIgNjAuMjE3NDgsMTM1LjkxNzkwMiA1OS45ODE1MzYsMTQ4LjU5NDM4MiBMNTkuOTY0LDE0OS45MDY1NDIgTDU5Ljk2NCwxNDkuOTA2NTQyIEw1OS45NTk2NjQsMTUxLjIxOTY2MiBMNTkuOTU5NjY0LDE1MS4yMTk2NjIgTDU5Ljk2NzcxMiwxNTIuNTMyNzgyIEw1OS45Njc3MTIsMTUyLjUzMjc4MiBMNTkuOTg3MzI4LDE1My44NDQ5NDIgTDU5Ljk4NzMyOCwxNTMuODQ0OTQyIEw2MC4wMTc2OTYsMTU1LjE1NTE4MiBMNjAuMDE3Njk2LDE1NS4xNTUxODIgTDYwLjA1OCwxNTYuNDYyNTQyIEw2MC4wNTgsMTU2LjQ2MjU0MiBMNjAuMTA3NDI0LDE1Ny43NjYwNjIgTDYwLjEwNzQyNCwxNTcuNzY2MDYyIEw2MC4xOTY4NzUsMTU5LjcxMjA0MiBMNjAuMTk2ODc1LDE1OS43MTIwNDIgTDYwLjI2NTUyOSwxNjEuMDAxNzYyIEw2MC4yNjU1MjksMTYxLjAwMTc2MiBMNjAuMzgsMTYyLjkyMjU0MiBMNjAuMzgsMTYyLjkyMjU0MiBMNjAuNTA1ODExLDE2NC44MjM4ODIgTDYwLjUwNTgxMSwxNjQuODIzODgyIEw2MC42ODY0MzksMTY3LjMyMzE2MiBMNjAuNjg2NDM5LDE2Ny4zMjMxNjIgTDYxLjMsMTc1LjA3NDU0MiBMNjEuMywxNzUuMDc0NTQyIEM4NC43LDE2MC4zNzQ1NDIgMTE1LjYsMTc2LjE3NDU0MiAxMTUuNCwyMDEuMTc0NTQyIEMxMjAuNjAyOTA5LDIwMS4wMzUxNzggMTIxLjg3ODIxMywxOTguMDA0MDYxIDEyMS41NTE3MTMsMTkzLjkxNTc2NyBMMTIxLjUxMDcwOCwxOTMuNDczNzc0IEwxMjEuNTEwNzA4LDE5My40NzM3NzQgTDEyMS40NTgwNzksMTkzLjAyNDE5MiBMMTIxLjQ1ODA3OSwxOTMuMDI0MTkyIEwxMjEuMzk0NDYzLDE5Mi41Njc1MjEgTDEyMS4zOTQ0NjMsMTkyLjU2NzUyMSBMMTIxLjMyMDQ5NiwxOTIuMTA0MjY1IEwxMjEuMzIwNDk2LDE5Mi4xMDQyNjUgTDEyMS4yMzY4MTMsMTkxLjYzNDkyMyBMMTIxLjIzNjgxMywxOTEuNjM0OTIzIEwxMjEuMTQ0MDQ5LDE5MS4xNTk5OTggTDEyMS4xNDQwNDksMTkxLjE1OTk5OCBMMTIwLjk4OTI2OSwxOTAuNDM4MjM5IEwxMjAuOTg5MjY5LDE5MC40MzgyMzkgTDEyMC44MTc2MzQsMTg5LjcwNjczNyBMMTIwLjgxNzYzNCwxODkuNzA2NzM3IEwxMjAuNjMxMjksMTg4Ljk2NzE4NSBMMTIwLjYzMTI5LDE4OC45NjcxODUgTDEyMC40MzIzODIsMTg4LjIyMTI3NiBMMTIwLjQzMjM4MiwxODguMjIxMjc2IEwxMjAuMjIzMDU2LDE4Ny40NzA3MDEgTDEyMC4yMjMwNTYsMTg3LjQ3MDcwMSBMMTIwLjAwNTQ1NywxODYuNzE3MTU0IEwxMjAuMDA1NDU3LDE4Ni43MTcxNTQgTDExOS42NzUsMTg1LjYwNzM1NCBMMTE4LjkzOTUxOCwxODMuMTk3NDY0IEMxMTguNDI0NSwxODEuNTA4MTUyIDExNy45NCwxNzkuODcwNTQyIDExNy42LDE3OC4zNzQ1NDIgQzExNS40NDY0MjksMTY5LjE0OTU0MiAxMTUuODI0MTA3LDE1OS42ODY5MTQgMTE2Ljk4MjkzMSwxNTAuMjE1OCBMMTE3LjE4ODkxMiwxNDguNTkyMTQgTDExNy4xODg5MTIsMTQ4LjU5MjE0IEwxMTcuNDA4MjM4LDE0Ni45Njg1NyBMMTE3LjQwODIzOCwxNDYuOTY4NTcgTDExNy42Mzg5NDksMTQ1LjM0NTM0NyBDMTE3LjY3ODI0MSwxNDUuMDc0ODUzIDExNy43MTc5MjUsMTQ0LjgwNDM4NSAxMTcuNzU3OTYyLDE0NC41MzM5NDYgTDExOC4xMjY2OTEsMTQyLjEwMDk2OCBMMTE4LjEyNjY5MSwxNDIuMTAwOTY4IEwxMTguNTA3ODExLDEzOS42NzA1MDIgTDExOC41MDc4MTEsMTM5LjY3MDUwMiBMMTE5LjM4MDgwNCwxMzQuMTg3NjIzIEwxMTkuMzgwODA0LDEzNC4xODc2MjMgTDExOS43MjAwNzIsMTMyLjAwODUzNiBMMTE5LjcyMDA3MiwxMzIuMDA4NTM2IEwxMjAuMDQ3MDMxLDEyOS44MzQ0MjMgTDEyMC4wNDcwMzEsMTI5LjgzNDQyMyBMMTIwLjI1NTc3LDEyOC4zODgwOTEgTDEyMC4yNTU3NywxMjguMzg4MDkxIEwxMjAuNDU1NDQ4LDEyNi45NDQ0MzkgQzEyMC41MjAzMzcsMTI2LjQ2MzY5IDEyMC41ODM0NzYsMTI1Ljk4MzQxOCAxMjAuNjQ0NjI2LDEyNS41MDM2NTYgTDEyMC44MjE4NjgsMTI0LjA2NTkzIEMxMjIuMTMxMzAzLDExMy4wNTU1NjMgMTIyLjI2MTc1LDEwMi4zMzEyOTIgMTE4LjMsOTIuMjc0NTQxOCBaIE0yNDAuOTc0NzUsMTM2LjM0MjQ2NyBMMjQxLjAwMDQ2NCwxMzYuMjY1IEwyNDAuOSwxMzYuMDc0NTQyIEMyNDIuMTU0LDEzOC40MDY1NDIgMjQzLjIxOTI0LDE0MC43NTMwNjIgMjQ0LjIwNTM5NCwxNDMuMDgwMDI4IEwyNDQuNzM2MTEzLDE0NC4zNDcxMzkgTDI0NC43MzYxMTMsMTQ0LjM0NzEzOSBMMjQ1LjI1NTEsMTQ1LjYwOTE0MiBMMjQ1LjI1NTEsMTQ1LjYwOTE0MiBMMjQ2LjUyNzIsMTQ4LjczMzc0MiBMMjQ2LjUyNzIsMTQ4LjczMzc0MiBMMjQ3LjAzNjI3NSwxNDkuOTY4MTkzIEMyNDkuMzM3Nzk4LDE1NS41MDAyMTIgMjUxLjgyMzYxMywxNjAuNzA5MTM5IDI1Ni4xMTU1OTgsMTY1LjA5MTA4NyBMMjU2LjczODM2MywxNjUuNzExNjQ1IEwyNTYuNzM4MzYzLDE2NS43MTE2NDUgTDI1Ny4xNzE5MjQsMTY2LjEyODE0IEwyNTcuMTcxOTI0LDE2Ni4xMjgxNCBMMjU4LjEwNjczMywxNjYuOTg5NjE5IEwyNTguMTA2NzMzLDE2Ni45ODk2MTkgTDI1OS4xMDA5MDQsMTY3Ljg5OTM3NSBMMjU5LjEwMDkwNCwxNjcuODk5Mzc1IEwyNTkuNDM5MDgsMTY4LjIxNTQ5MiBMMjU5LjQzOTA4LDE2OC4yMTU0OTIgTDI1OS45NDc5ODcsMTY4LjcwMzI5OSBMMjU5Ljk0Nzk4NywxNjguNzAzMjk5IEwyNjAuMjg2MzUyLDE2OS4wMzgyNTkgTDI2MC4yODYzNTIsMTY5LjAzODI1OSBMMjYwLjc4OTEwNywxNjkuNTU2NDc4IEwyNjAuNzg5MTA3LDE2OS41NTY0NzggTDI2MS4xMTkwODEsMTY5LjkxMzE0MiBMMjYxLjExOTA4MSwxNjkuOTEzMTQyIEwyNjEuNDQzMjk2LDE3MC4yNzkyODkgTDI2MS40NDMyOTYsMTcwLjI3OTI4OSBMMjYxLjc2MDM4LDE3MC42NTUzNzYgQzI2MS44MTI1NTcsMTcwLjcxODkxMSAyNjEuODY0MzgsMTcwLjc4Mjg4IDI2MS45MTU4MTksMTcwLjg0NzI5IEwyNjIuMjE5NjMzLDE3MS4yMzkxNDUgQzI2NC40MTA1NDMsMTc0LjE1MjgzMSAyNjUuNzQ5MzY3LDE3Ny45NjA2MTggMjYzLjgsMTgzLjQ3NDU0MiBDMjYzLjU2NTIxNywxODQuMDc0NTQyIDI2Mi45ODMzNjUsMTg0Ljg1ODI4NSAyNjIuMTkxMTQsMTg1LjcwODYwMSBMMjYxLjc3ODEyOSwxODYuMTM4NzY1IEMyNjEuNDIwMzk5LDE4Ni41MDA5NTMgMjYxLjAzMDEwMiwxODYuODcxMzEgMjYwLjYxNzEyNSwxODcuMjQxMzU4IEwyNjAuMTExMywxODcuNjg0NzI1IEwyNjAuMTExMywxODcuNjg0NzI1IEwyNTkuNTg3NSwxODguMTI0NTQyIEMyNTkuNDEwMzI2LDE4OC4yNzAxOTQgMjU5LjIzMDc4OSwxODguNDE0NzEyIDI1OS4wNDk1MjIsMTg4LjU1NzU1MyBMMjU4LjUwMTE2NCwxODguOTgwNTA1IEMyNTYuNzUyMjY4LDE5MC4zMDA0ODcgMjU0LjkwNDM0OCwxOTEuNDIwMTk0IDI1My41LDE5MS44NzQ1NDIgQzI0MC44LDE5NS41NzQ1NDIgMjExLjIsMTkyLjQ3NDU0MiAyMjEuMiwxNzYuNzc0NTQyIEMyMjMuODA3MzM1LDE3Ni44MjM3MzcgMjI2LjYyMDM4MiwxNzcuMjU0MTA1IDIyOS40OTc3NTgsMTc3Ljc2MjA0NiBMMjMzLjU0MzE3NywxNzguNDkxMTE4IEwyMzQuMzY3NDQ0LDE3OC42MzUwNDkgTDIzNS4xNjA5OTMsMTc4Ljc2OTA3MiBMMjM1Ljk1MzE2MSwxNzguODk3MTE0IEwyMzYuNzI4MTM1LDE3OS4wMTU1NTQgTDIzNi43MjgxMzUsMTc5LjAxNTU1NCBMMjM3LjUwMDU1OCwxNzkuMTI1NjE2IEwyMzcuNTAwNTU4LDE3OS4xMjU2MTYgTDIzOC4yNjk4MjUsMTc5LjIyNTk5OSBMMjM4LjI2OTgyNSwxNzkuMjI1OTk5IEwyMzkuMDM1MzMyLDE3OS4zMTU0MDUgQzIzOS4xNjI1NjksMTc5LjMyOTMxOSAyMzkuMjg5NjI1LDE3OS4zNDI3MjIgMjM5LjQxNjQ4NiwxNzkuMzU1NTg1IEwyNDAuMTc1MjE2LDE3OS40MjYwODggQzI0NS4zNDI1NDMsMTc5Ljg2MDcyNiAyNTAuMTQwNDcxLDE3OS4yOTg4OTkgMjUzLjcsMTc1Ljg3NDU0MiBMMjUyLjQ4OTgxNCwxNzMuODQ1Njk1IEwyNTIuNDg5ODE0LDE3My44NDU2OTUgTDI1MS42MzA5OTcsMTcyLjM3NzkyMiBMMjUxLjYzMDk5NywxNzIuMzc3OTIyIEwyNTAuNzQxNzc4LDE3MC44Mjc2NDcgTDI1MC43NDE3NzgsMTcwLjgyNzY0NyBMMjUwLjA2MDY5NywxNjkuNjE1NzgyIEwyNTAuMDYwNjk3LDE2OS42MTU3ODIgTDI0OS4zNzE5ODIsMTY4LjM2NTY2NSBMMjQ5LjM3MTk4MiwxNjguMzY1NjY1IEwyNDguOTEwNTk5LDE2Ny41MTI3MjkgTDI0OC45MTA1OTksMTY3LjUxMjcyOSBMMjQ4LjQ0ODgyOSwxNjYuNjQ1MzgxIEwyNDguNDQ4ODI5LDE2Ni42NDUzODEgTDI0Ny45ODc4NzIsMTY1Ljc2NDY1NyBMMjQ3Ljk4Nzg3MiwxNjUuNzY0NjU3IEwyNDcuNTI4OTMxLDE2NC44NzE1OTEgTDI0Ny41Mjg5MzEsMTY0Ljg3MTU5MSBMMjQ2Ljg0NjkyOCwxNjMuNTExMTIgQzI0Ni43NzE3MDIsMTYzLjM1ODY3MyAyNDYuNjk2Njg2LDE2My4yMDU4MTkgMjQ2LjYyMTkwNCwxNjMuMDUyNTgxIEwyNDYuMTc2MjIyLDE2Mi4xMjg3MDcgQzI0Ni4xMDI0NzYsMTYxLjk3NDAxNiAyNDYuMDI5MDE2LDE2MS44MTg5ODMgMjQ1Ljk1NTg2NCwxNjEuNjYzNjMxIEwyNDUuNTIwODY5LDE2MC43Mjc4NDcgTDI0NS41MjA4NjksMTYwLjcyNzg0NyBMMjQ1LjA5NDUsMTU5Ljc4NTQxOSBDMjQ1LjAyNDIyNCwxNTkuNjI3ODUyIDI0NC45NTQzNTgsMTU5LjQ3MDA1IDI0NC44ODQ5MjYsMTU5LjMxMjAzNyBMMjQ0LjQ3Mzc1MiwxNTguMzYxNTgzIEMyNDQuNDA2MTU5LDE1OC4yMDI4MDcgMjQ0LjMzOTA1LDE1OC4wNDM4NjIgMjQ0LjI3MjQ1MSwxNTcuODg0NzcgTDI0My44NzkxNzUsMTU2LjkyODYyIEMyNDMuODE0NzE1LDE1Ni43NjkwMjQgMjQzLjc1MDgxNSwxNTYuNjA5MzI0IDI0My42ODc1LDE1Ni40NDk1NDIgTDI0My4zMTQ4MjcsMTU1LjQ5MDAyNiBMMjQzLjMxNDgyNywxNTUuNDkwMDI2IEwyNDIuOTU3MzkyLDE1NC41Mjk1NjIgQzI0MC41Njk3MiwxNDcuOTY1NTAxIDIzOS4zMzM1MywxNDEuNDA3NDg1IDI0MC45NzQ3NSwxMzYuMzQyNDY3IFogTTM1OC40LDEzNS44NzQ1NDIgQzM1OS4zNTMxMjUsMTM3LjgyNzY2NyAzNjAuMjgxODM2LDEzOS44MDAzMjMgMzYxLjE5OTQ4NCwxNDEuNzgwNjg1IEwzNjIuMjk2MjA3LDE0NC4xNjAwNjEgTDM2Mi4yOTYyMDcsMTQ0LjE2MDA2MSBMMzY0LjQ3ODI5OSwxNDguOTIyODQyIEwzNjQuNDc4Mjk5LDE0OC45MjI4NDIgTDM2NS41NzM5MjMsMTUxLjI5NzE2NSBDMzY5LjA1NjM0OCwxNTguODAxMjAyIDM3Mi42ODc1LDE2Ni4xNDMyOTIgMzc3LjIsMTcyLjY3NDU0MiBDMzcyLjIsMTg0LjQ3NDU0MiAzMzguNywxOTQuOTc0NTQyIDMzOS4zLDE3My43NzQ1NDIgQzM0MS45NDg3ODUsMTcyLjYxMzQzMSAzNDUuMjY5MDI2LDE3Mi4yMDI3NzEgMzQ4LjczNTIzNCwxNzEuOTU5NzQ2IEwzNDkuODM0MDY1LDE3MS44ODc4OTUgTDM0OS44MzQwNjUsMTcxLjg4Nzg5NSBMMzUzLjY5NjM5OCwxNzEuNjY1NzE4IEwzNTMuNjk2Mzk4LDE3MS42NjU3MTggTDM1NC42ODcyMzYsMTcxLjYwMTAzOSBDMzU0Ljg1MTc2MiwxNzEuNTg5NjA1IDM1NS4wMTU5NDQsMTcxLjU3NzgwMiAzNTUuMTc5NzI0LDE3MS41NjU1NjYgTDM1Ni4xNTcxNDksMTcxLjQ4NjQ3OCBDMzU5LjcyMDA5NSwxNzEuMTczODI4IDM2My4wMzQ0ODMsMTcwLjU5MTc4MyAzNjUuNSwxNjkuMDc0NTQyIEMzNjUuMjYsMTY4LjM3NDU0MiAzNjUuMDEyLDE2Ny42ODM4NzUgMzY0Ljc1ODQsMTY3LjAwMDE3MSBMMzY0LjM3NDEsMTY1Ljk3OTU0MiBMMzY0LjM3NDEsMTY1Ljk3OTU0MiBMMzYzLjk4MzIsMTY0Ljk2NzU3OSBMMzYzLjk4MzIsMTY0Ljk2NzU3OSBMMzYzLjM4ODQxMywxNjMuNDYxOTk2IEwzNjMuMzg4NDEzLDE2My40NjE5OTYgTDM2MS45OTI3LDE1OS45NzU1NDIgTDM2MS45OTI3LDE1OS45NzU1NDIgTDM2MS40MDU3ODgsMTU4LjQ3ODI5MiBMMzYxLjQwNTc4OCwxNTguNDc4MjkyIEwzNjEuMDIyNzYyLDE1Ny40NzQ2NjIgTDM2MS4wMjI3NjIsMTU3LjQ3NDY2MiBMMzYwLjY0ODQzOCwxNTYuNDY0NTg4IEMzNTguNDkzNzUsMTUwLjU1MDIzNiAzNTYuODc1LDE0NC4yMTYyMDkgMzU3LjQsMTM1Ljg3NDU0MiBMMzU4LjQsMTM1Ljg3NDU0MiBaIE0yMTYuMyw4OS44NzQ1NDE4IEwyMTYuNzE5MTgzLDg5Ljk0ODIzNjUgTDIxNi43MTkxODMsODkuOTQ4MjM2NSBMMjE3LjE0MzUxMiw5MC4wMzQ1Mjc5IEwyMTcuMTQzNTEyLDkwLjAzNDUyNzkgTDIxNy41NzIxMzYsOTAuMTMzMjY4MiBMMjE3LjU3MjEzNiw5MC4xMzMyNjgyIEwyMTguMDA0MjAxLDkwLjI0NDMwOTUgQzIxOC4xNDg3MDIsOTAuMjgzMzU3MSAyMTguMjkzNjM1LDkwLjMyNDQzMDEgMjE4LjQzODg1OCw5MC4zNjc1MDQgTDIxOC44NzUyNTQsOTAuNTAyNzAzNiBMMjE4Ljg3NTI1NCw5MC41MDI3MDM2IEwyMTkuMzEyNTM2LDkwLjY0OTc2MDUgTDIxOS4zMTI1MzYsOTAuNjQ5NzYwNSBMMjE5Ljc0OTg1NSw5MC44MDg1MjY4IEMyMTkuODIyNjk3LDkwLjgzNTk1NTUgMjE5Ljg5NTUwNSw5MC44NjM4NjU4IDIxOS45NjgyNjIsOTAuODkyMjU0OCBMMjIwLjQwNDAzNyw5MS4wNjgzMDc5IEwyMjAuNDA0MDM3LDkxLjA2ODMwNzkgTDIyMC44Mzc3MTksOTEuMjU1NzAwNyBMMjIwLjgzNzcxOSw5MS4yNTU3MDA3IEwyMjEuMjY4NDU1LDkxLjQ1NDI4NTMgTDIyMS4yNjg0NTUsOTEuNDU0Mjg1MyBMMjIxLjY5NTM5NSw5MS42NjM5MTM3IEwyMjEuNjk1Mzk1LDkxLjY2MzkxMzcgTDIyMi4xMTc2ODYsOTEuODg0NDM4MSBMMjIyLjExNzY4Niw5MS44ODQ0MzgxIEwyMjIuNTM0NDc3LDkyLjExNTcxMDYgQzIyMi42MDM0MzYsOTIuMTU1MTQzNSAyMjIuNjcyMTMxLDkyLjE5NTAxOCAyMjIuNzQwNTQzLDkyLjIzNTMzMTEgTDIyMy4xNDc0ODcsOTIuNDgyNDQ4NCBDMjIzLjIxNDY5OSw5Mi41MjQ1MDM2IDIyMy4yODE1OTMsOTIuNTY2OTkxMiAyMjMuMzQ4MTUxLDkyLjYwOTkwODIgTDIyMy43NDMzMzEsOTIuODcyNTM3NSBMMjIzLjc0MzMzMSw5Mi44NzI1Mzc1IEwyMjQuMTI5NjA0LDkzLjE0NTMyMzMgQzIyNC4zODM5NjEsOTMuMzMwNTMzMSAyMjQuNjMxODEyLDkzLjUyMjQxNTMgMjI0Ljg3MjAyMiw5My43MjA3NzI3IEwyMjUuMjI2NDY0LDk0LjAyMzE0MDUgQzIyNS4zNDI2MDYsOTQuMTI1NTMyMiAyMjUuNDU2Njk2LDk0LjIyOTUxOCAyMjUuNTY4NTkyLDk0LjMzNTA3MzMgTDIyNS44OTc1NTQsOTQuNjU2NDIzIEMyMjguNjM1MzcxLDk3LjQyNzQ5ODkgMjI5Ljg1NDA4MiwxMDEuMjAzMTEzIDIyNy4yLDEwNS41NzQ1NDIgQzIwMS4zOTgsOTkuNTYwNTQxOCAxODguMDE1ODgsMTE1LjY1NzY5MiAxNzkuOTM0NzkxLDEzMy4wNTcwNDcgTDE3OS40NDE2MjgsMTM0LjEzNDc3NSBDMTc5LjM2MDU0LDEzNC4zMTQ2MTIgMTc5LjI4LDEzNC40OTQ1NDIgMTc5LjIsMTM0LjY3NDU0MiBDMTc0LjgwMjQxLDEzMy42NTA0NDUgMTc0LjEwNjM3MiwxMjkuNjUwNTkxIDE3NC42NDE1NjMsMTI1LjUzODgwNiBMMTc0LjcxMTUzOCwxMjUuMDQ1MDM4IEMxNzQuNzI0MTMyLDEyNC45NjI3MTUgMTc0LjczNzE4LDEyNC44ODAzOTMgMTc0Ljc1MDY2MSwxMjQuNzk4MDk0IEwxNzQuODM2NTg3LDEyNC4zMDQ3NzcgTDE3NC44MzY1ODcsMTI0LjMwNDc3NyBMMTc0LjkzMTk2MSwxMjMuODEzMTMzIEwxNzQuOTMxOTYxLDEyMy44MTMxMzMgTDE3NS4wMzU4MzQsMTIzLjMyNDI2NSBMMTc1LjAzNTgzNCwxMjMuMzI0MjY1IEwxNzUuMTQ3MjU5LDEyMi44MzkyNyBMMTc1LjE0NzI1OSwxMjIuODM5MjcgTDE3NS4yNjUyODYsMTIyLjM1OTI0OSBMMTc1LjI2NTI4NiwxMjIuMzU5MjQ5IEwxNzUuMzg4OTY3LDEyMS44ODUzMDIgTDE3NS4zODg5NjcsMTIxLjg4NTMwMiBMMTc1LjUxNzM1MywxMjEuNDE4NTI4IEwxNzUuNTE3MzUzLDEyMS40MTg1MjggTDE3NS43MTY2OCwxMjAuNzM0MjIzIEwxNzUuNzE2NjgsMTIwLjczNDIyMyBMMTc1Ljg1MjY3OSwxMjAuMjkwMTk0IEwxNzUuODUyNjc5LDEyMC4yOTAxOTQgTDE3Ni4wNTg5NzksMTE5LjY0NTE2IEwxNzYuMDU4OTc5LDExOS42NDUxNiBMMTc2LjMzMzM1OSwxMTguODMwMTA5IEwxNzYuMzMzMzU5LDExOC44MzAxMDkgTDE3Ni42LDExOC4wNzQ1NDIgTDE3Ni42LDExOC4wNzQ1NDIgQzE4MS40LDEwNC44NzQ1NDIgMjAwLjYsODcuNDc0NTQxOCAyMTYuMyw4OS44NzQ1NDE4IFogTTE2Mi4zLDMyLjQ3NDU0MTggTDE2Mi4zLDMyLjc3NDU0MTggQzEzMyw0MC45NzQ1NDE4IDk1LjUsNjIuMTc0NTQxOCA4My41LDg4LjQ3NDU0MTggQzg3LjE2MzYzNjQsODcuOTYyNDIwNiA5MC4zNzcyMjY4LDg2LjkyMjY1OTQgOTMuNDk1MzUzLDg1LjgxMzc2ODggTDk2LjM1NjgzODQsODQuNzgzODk5OSBDMTAwLjE2MzU0NSw4My40MjAxOCAxMDMuOTkwOTA5LDgyLjE2NTQ1MDkgMTA4LjUsODEuODc0NTQxOCBDMTA5LjY2NjY2Nyw4MS43NzQ1NDE4IDExMC45NDQ0NDQsODEuODk2NzY0MSAxMTIuMjc3Nzc4LDgyLjA2MzQzMDcgTDExNC4wODM2LDgyLjI5NjM4MyBDMTE2LjIxNzQyMSw4Mi41NjI0NzA1IDExOC40MjU5MjYsODIuNzQ0OTEyMiAxMjAuNSw4Mi4xNzQ1NDE4IEMxMjMuMjE4OTgzLDgxLjQ5NDc5NjEgMTI1Ljc3NjI0Nyw3OC45NjY4MzI5IDEyOC4yMDcxMjYsNzUuNjc0MjI2NyBMMTI4LjY5MTYyNyw3NS4wMDU4MzEzIEMxMjguNzcyMSw3NC44OTI4Mzk5IDEyOC44NTI0MzUsNzQuNzc5MDc5MSAxMjguOTMyNjM0LDc0LjY2NDU4OTEgTDEyOS40MTIxOTcsNzMuOTY5MjE5OSBMMTI5LjQxMjE5Nyw3My45NjkyMTk5IEwxMjkuODg4NTQ4LDczLjI1ODI3NiBDMTI5Ljk2NzY3NSw3My4xMzg1OTQ1IDEzMC4wNDY2NzEsNzMuMDE4MzQ0NCAxMzAuMTI1NTM3LDcyLjg5NzU2NTYgTDEzMC41OTcxODYsNzIuMTY2ODcxOCBMMTMwLjU5NzE4Niw3Mi4xNjY4NzE4IEwxMzEuMDY1Nzc4LDcxLjQyNTQxOTMgTDEzMS4wNjU3NzgsNzEuNDI1NDE5MyBMMTMxLjUzMTM3Niw3MC42NzUxMzQ0IEwxMzEuNTMxMzc2LDcwLjY3NTEzNDQgTDEzMS45OTQwNDUsNjkuOTE3OTQzNSBMMTMxLjk5NDA0NSw2OS45MTc5NDM1IEwxMzIuNzQ5NTM3LDY4LjY2MTQwNTIgTDEzMy4xNDEwNzYsNjguMDAyNzIwOSBMMTMzLjE0MTA3Niw2OC4wMDI3MjA5IEwxMzUuMjMxOTE5LDY0LjQ1NzgwMDYgTDEzNS4yMzE5MTksNjQuNDU3ODAwNiBMMTM1LjgxNzkyMSw2My40NzQxMzY3IEwxMzUuODE3OTIxLDYzLjQ3NDEzNjcgTDEzNi4zOTk3OTcsNjIuNTEwNjI1OCBMMTM2LjM5OTc5Nyw2Mi41MTA2MjU4IEwxMzYuOTc3Njk0LDYxLjU3MTc5NzYgTDEzNi45Nzc2OTQsNjEuNTcxNzk3NiBMMTM3LjU1MTc1OSw2MC42NjIxODE0IEMxMzguNjk2MTU3LDU4Ljg3NTE4MSAxMzkuODE4NDU1LDU3LjI5MDYzMDMgMTQwLjkyMzk2OCw1Ni4wNzE1OTIyIEwxNDEuMiw1NS43NzQ1NDE4IEMxNDMuNjMyMjU4LDUzLjA5MDY3MDkgMTQ2LjI3NTU0Niw1MS4wMjIzMDQ2IDE0OC44NzkxMjUsNDkuMDk3NDYxNSBMMTUxLjI2Mzg0NSw0Ny4zNDc2OTgyIEMxNTQuMDE1ODE3LDQ1LjMyMTc4NDMgMTU2LjYzMjI1OCw0My4yOTM4OTY3IDE1OC44LDQwLjY3NDU0MTggQzE1OS40Njg2MjcsNDAuMzA3ODc1MiAxNjAuMjAyMzg0LDQwLjAzNDI0OTcgMTYwLjk0NTA3OSwzOS43ODI0MjQ5IEwxNjIuMzU5MzMyLDM5LjMwOTc5NTMgTDE2Mi4zNTkzMzIsMzkuMzA5Nzk1MyBMMTYyLjc1NTIzNiwzOS4xNjkwNzI2IEwxNjIuNzU1MjM2LDM5LjE2OTA3MjYgTDE2My4xNDM3OTQsMzkuMDIxMTEyOSBDMTYzLjIwNzgyOSwzOC45OTU3MDcyIDE2My4yNzE0NzMsMzguOTY5ODkyOCAxNjMuMzM0Njg1LDM4Ljk0MzYxNjMgTDE2My43MDg0MjUsMzguNzc5OTgzOSBDMTY1LjMwMjUzNywzOC4wNDMxNjkzIDE2Ni41NDcwNTksMzYuOTIxNjAwNyAxNjYuNywzNC40NzQ1NDE4IEMxNjUuMywzMy4wNzQ1NDE4IDE2My44LDMxLjk3NDU0MTggMTYyLjMsMzIuNDc0NTQxOCBaIi8+JiN4YTsgICAgPC9nPiYjeGE7PC9zdmc+;fontSize=14;" vertex="1" parent="zpTVTdFHTJqUsnKjDufD-8">
          <mxGeometry x="510" y="187.33000000000004" width="81.77" height="91.67" as="geometry" />
        </mxCell>
        <mxCell id="zpTVTdFHTJqUsnKjDufD-9" value="Installs" style="endArrow=classic;html=1;rounded=0;" edge="1" parent="zpTVTdFHTJqUsnKjDufD-8" source="zpTVTdFHTJqUsnKjDufD-7" target="zpTVTdFHTJqUsnKjDufD-6">
          <mxGeometry width="50" height="50" relative="1" as="geometry">
            <mxPoint x="310" y="443.33" as="sourcePoint" />
            <mxPoint x="360" y="393.33" as="targetPoint" />
          </mxGeometry>
        </mxCell>
        <mxCell id="zpTVTdFHTJqUsnKjDufD-2" value="Docker + Docker Compose" style="shape=image;html=1;verticalAlign=top;verticalLabelPosition=bottom;labelBackgroundColor=#ffffff;imageAspect=0;aspect=fixed;image=https://cdn0.iconfinder.com/data/icons/social-media-2104/24/social_media_social_media_logo_docker-128.png;labelPosition=center;align=center;fontSize=14;" vertex="1" parent="zpTVTdFHTJqUsnKjDufD-8">
          <mxGeometry x="120.00000000000001" y="192.32999999999998" width="86.67" height="86.67" as="geometry" />
        </mxCell>
        <mxCell id="zpTVTdFHTJqUsnKjDufD-10" value="Installs + configures" style="endArrow=classic;html=1;rounded=0;exitX=0;exitY=0.5;exitDx=0;exitDy=0;entryX=0.5;entryY=0;entryDx=0;entryDy=0;" edge="1" parent="zpTVTdFHTJqUsnKjDufD-8" source="zpTVTdFHTJqUsnKjDufD-6" target="zpTVTdFHTJqUsnKjDufD-2">
          <mxGeometry x="-0.2905" width="50" height="50" relative="1" as="geometry">
            <mxPoint x="-90" y="273.33" as="sourcePoint" />
            <mxPoint x="-40" y="223.32999999999998" as="targetPoint" />
            <Array as="points">
              <mxPoint x="163" y="166.32999999999998" />
            </Array>
            <mxPoint as="offset" />
          </mxGeometry>
        </mxCell>
        <mxCell id="zpTVTdFHTJqUsnKjDufD-11" value="Installs + configures" style="endArrow=classic;html=1;rounded=0;exitX=1;exitY=0.5;exitDx=0;exitDy=0;entryX=0.5;entryY=0;entryDx=0;entryDy=0;" edge="1" parent="zpTVTdFHTJqUsnKjDufD-8" source="zpTVTdFHTJqUsnKjDufD-6" target="zpTVTdFHTJqUsnKjDufD-1">
          <mxGeometry x="-0.2668" width="50" height="50" relative="1" as="geometry">
            <mxPoint x="150" y="533.33" as="sourcePoint" />
            <mxPoint x="200" y="483.33" as="targetPoint" />
            <Array as="points">
              <mxPoint x="550" y="166.32999999999998" />
            </Array>
            <mxPoint as="offset" />
          </mxGeometry>
        </mxCell>
        <mxCell id="zpTVTdFHTJqUsnKjDufD-45" value="Containerized DAST Jobs" style="group;labelPosition=center;verticalLabelPosition=bottom;align=center;verticalAlign=top;" vertex="1" connectable="0" parent="zpTVTdFHTJqUsnKjDufD-8">
          <mxGeometry x="400" y="373.33" width="260" height="196.67000000000002" as="geometry" />
        </mxCell>
        <mxCell id="zpTVTdFHTJqUsnKjDufD-17" value="" style="shape=image;html=1;verticalAlign=top;verticalLabelPosition=bottom;labelBackgroundColor=#ffffff;imageAspect=0;aspect=fixed;image=https://cdn0.iconfinder.com/data/icons/social-media-2104/24/social_media_social_media_logo_docker-128.png;container=0;" vertex="1" parent="zpTVTdFHTJqUsnKjDufD-45">
          <mxGeometry width="39.67" height="39.67" as="geometry" />
        </mxCell>
        <mxCell id="zpTVTdFHTJqUsnKjDufD-21" value="" style="rounded=1;whiteSpace=wrap;html=1;fillColor=none;container=0;" vertex="1" parent="zpTVTdFHTJqUsnKjDufD-45">
          <mxGeometry x="10" y="10" width="250" height="186.67" as="geometry" />
        </mxCell>
        <mxCell id="zpTVTdFHTJqUsnKjDufD-20" value="RailsGoat Web Server" style="shape=image;verticalLabelPosition=top;labelBackgroundColor=default;verticalAlign=bottom;aspect=fixed;imageAspect=0;image=data:image/png,iVBORw0KGgoAAAANSUhEUgAAAaMAAAB5CAMAAACjmb47AAAC9FBMVEVHcEzfCH1WWondDHo1Mzn2uyfq3gAmXm+of1/gCX7gCH4ApdLhCX3dCHw1NTg1NDkAo9D98gA1NDlyawE1NDk0MzgAo9DfCH0AoNHfCH01NDnfCHs1NDkAo9EAo9H/7wDgCX767QAAoc798gDdCHwApNH/8gDeCH3gCH0Ao9HhCX41Mzg0NDg1Mzn98gDNB3MAotA1NDnhCX41NDn88AD87gAApNH98gD98gD+8AA1NDk1NDk1NDmdzgD78AD98gA1NDn98AD78AA1NTngCH/bCXw0MzgApNH27QH98QD/8QAAotEAo9Dg4wDgB37q3wD/8gDOCHTr3wDg1QTXCHgAl8EAlsConwwAlsGpFoEAo9D/8gBkB3E2MgAABmcAnAD///f//vX//u7//vT1/P3z+/3//vHu+fzx+vwAjwAAkAD//uv///ru7u/w8PAABVguKgD86/Tq+Pvs6+zz8/P09PT85vL98vj97fX97/fl5eX86fP4/f7+9Pn7/v7p6en//uj74O/87vXl9vv/+7X4+Piz5PH19fX74/D73O361+pAu93x8fL6+vr/+7Dg4OH0rNP29vf2tNj//uLc3Nw1MyoCoce0tLXoRZ3+9vv+/vfu6AdZWFzY2Nn+9Bc2MxD9/er59rXc8/mLio2amZz++aGQkJP89V8WrNZpyeQAHncAgbgAnlpzcnX//dapqav++HTwstQ/BmuKCHUKBmgAorMAmB/Kysv+9T+S2ewzMRwAcrCrCHcAnjuOzAD++Irwh8AXBmkmBmdIRACHfwAASJRzvwAAn3kOnwDN7veglwAAZqcAW51bVgAhpQBcuwAAopfmNpZDQkZCQUbrWajx8fH//MTGxceAf4P3xeH0oc7R0dLU1NWm3+/YzQCxqAAAM4XTCXw3rwC32wDJ4AA1tNbudLfGCXvLwQDiGIZ70Oj//uVPwd/kcrA1MAAAlZbiF4baQ5Y6owA/PkI2NToApNHgCX7+8gAAl8HOCHQyMTXq3wA3Qrt/AAAAXXRSTlMAzwYRagjGDAP67jZp3Rb31ujl/Y7NZb8ZfH4d7euhES40UvWOK0Stm/dNUkQnymZ4sTY2g3CLj9kbu5/D/qC3/Cn9XURY27Ctv1xDSvli1k/zZ0ld85OpjbXGZv4+o/eqAAAbJElEQVR4XuyXy27aQBSGa+IotoFgkA2BBLchhEsuFiHmElJBEuWuJK2qqgvn/d9gZpy2m1o6q2Jsz4xPNlW/xcfyCP36j+d8+Af5z9rwpd1VQhhjRvhT6xWut5FnbOSrY8f3fZNS2vRDnOrTPu6Ij7uvk3vXdadBEJTD38X8tXOG/TdOVevEtu1bQshO+Ds7V4+O3zufYb1m/GQhESntmzWcGfnBXfONhkTkO60tjAlax3t4DkJ+L+vKnXz9iJPPUWO2Q0J+LevCtg433ymf7XrXYExn8SjtAy3bjK0wH5qIOW5lm3HpLfaCRFyvkzGf48asRBKxrSP8BVeoQWFSZLSH8puh6kNhUtQc52VHnI2+QGFSVPYupQPaVG1CLqA1SapYqGvvoKszbop1qaX3dNen3JgDiaWnPS4CftyR1NI7PCH82CrW0vuuQE+4pbeF3xAtE3rCrf4PwZTWX6fQE249e6Ip5dRb6Am3ShZCStpLkYmj90RS0qomlcDZF0hoVA7E2ZuIpLShVogYOCndFKEcwtJ7a0Idom8Scji7pH0rQzlEJZKSWoFyCKtkbWRI6JPC5DEKXA+wfZ/K0x/kOEZ0poE85UeuhE5tIs+OKpvQeluHTshKGaZv8HEfOiErM596rM6hE9J6uExfcxZ0Qlqf5U7bYZFlRa9rKSUyaWbGyTM65SAre6O0e7VCsnIhU6UClCijaolvhyqUKKP8hK+S5kEbMuo+8avUgDZk1Mmm6M3aZTgY1/ELwqE4NJ9ib9aHAIfpbvzNOiM43J6KPRaK0AQM1WP3HDQBQ+O4PQdNQNDVKHbPQRMQVGoIRHRtMER6uVVLKN+kiDirZjxeBYhMVkZ0WCKIWPxHEXyK0FRbj85owacITX70xhhBB9A0X/E3VOgAms5zvK8FhouuRO7ZKkUm+nLwAmwWkZAaBJsZ1z1bhxKgqrgU0gBKgCrz75DgKsKVu/S8g6sIVzZHSIU/vJpLTxNRHMWvxYY2Wijx0VgIISZQsNWEqDEmrSGNaDBxQZCN8d67rhv8Mu2mC/elqyJdgBt5KPFR+QS+E/kAM3cUNw6nTJkGJ7jomd/ibGf1yzn/mzEMYBLPIpDsZ1oE5vwmxdIWg/yJJs3Cgd5HKuLrIjjQ+3gcOeoiOND7uBPzdREc6H1Mx05YdHFDItP58pkpm8R97xsPHD+cdZedsQLgrruxeUhAiUnvLlqEBJQYFWChCAko4d1JuUFIQIm0CKYvYYg8gkX9SZvIRbwuDDlEJmDRwIhFJCsCycABVsyPCZdROMCKxXEhotfgACuGbh/shTwcYMXIQPCk43Iq2jXpWOPulsNlLobDiEo+ElBGcUhAjEkxPgUJiDE6AQmYcUPkZpgWBe+GSMLQmU3abCoFh01xYcSikwt+X+DGkwocYEZ9p+qwTToHB7hx7/gpGxuOGzov1bZNZlfr1w6ZPblmBcC9kjJ8i0xjSS2T+6ipS/oH16LippT7Fl2lmWO/OFwxYWikVM2m8ka7fHOovJVSPrf4TP9rMLBN2lBKLa0z+6hS0vqpLhWYfVR1NXomyxbfpFyopxFYUYotUl2DVpGrUUgiXRB+ogm+ReaVa5FS6h2vj1ZhkRsFXh9VDyxyKUMCbmTD16hNjasRaFE1Ck2kvH94J0IYdRuuRDBpndVHFUiEKNBGnXSBSeUQjqTrYY86jy+8UQeo0+6zBOFPuwzfItOARYhfpD5qwqJ2PCT10QdYhIAE3BjsvH/3xQ2dry9Uh/c2hVXdgfbY8EkeUbb4nPYtBnofrUCidtQ4fVSHRIfR4vTRFiQ6DLJEXfM7Zfg0lI9lm0FT+/nuMNiUPvYtPlcFGOZbZH5CIC+2GX20C4E68ZHRR3sQyIs1SMCNtACXwjuOmCdSXXex4xDYkh4hvzWk/tuGv6Rc23Mc2V12gCogRcIDUBSQBx5SRSrAA/DGpYoiwBv8BYF09+k+3dA9DX2Zvo9mRiOpe2ZHHo80iSxZElrJV4IlGwK2IYm9XLKYQGDXHt+XBbLZsKvdECB4A37hO7KslWZ6NH2s4/EZSb/up6++833f75zuG3OXT5w4MXd5DjOmuTk23Xj3lfH3wtXtZ9Jn89nw9syz8bWB6k7htdcwjWQSlroDTHojhwjXp148jvHiFJvODFQvPSugOHUml0lwdfuZ9H/jiXBv4enY2tpaWHgeJn2Y09XNeRW/4lUqlSwIK37gh0Hg+37st958q4irG+vsZhJFkxVFlpUXBipKothyktiKVsDVjXZ2UzUiCJSKgiBIunD1YHFb2hapLulU1yWi59HoCYOGz9ndjXqd6pVOr9pbWbl78Xmd3ceLC8vlCjCyFhcX49gLA28yzGLLC33fqrRuH3rv5w+wCDE2X1NmNHkiSRJZll8YqO5gN6E2NG2UHr18gEWY/iuHCS/qhlSbrwEHotfo9QPVc0SqEQnDqM2vET1Pj14/wCLE2LFMWI6ilV5npXO39wjfW8/zJAWnHM35lm/VWz7o4wUxgKr7XituWXEl9m8cduMnf3tgjOCRCoC0CcW2B3mkNhqyIjfsRCsoR/mCNEWoVNMFQyCUAqbV/bUzuqETUWKjVqN0vBxhjGXB6V6v4/Q60aOVlV7vYefWczzdtytHRZl0gi1w9aYfeADLy6x6Znlx3Mqw3E3WbxRrMrBp1HbsjKapsq0pmvbCQFVWVUVJNKx2RZoMmPK3Y88QIhiiTiRSk9aofm5f9RSlwjwViK4DRZ1Ko5sM+6axROhUnSjqRJHTexRhwbvHr0c7gsTxzN6JoBl4oVWPPSv0LD/zQi+uN5tZFlhBEN8efeNLgzz6cj6PNIUJT0PRBnk0ocgq6KXK8qjjQJ8aGjkHhI5TwCPU8F/fpoQe31e6JAi6hHJNorXt+W0ph0bop3IK0sVetRP1oipg6qw8Wnm48FxnVpGOePQIDgGLXZZV/DCseM2gFWf1IMji0Pfq97856t5/PcgiTH8zQo/AIw2c0Qb1yE4U4KNMJKP06D8GWITpSzl6JDGAtnVK13RJFNZW369uinRNlGrC2jyV6FpNyNGjfx5gERLSGBJsVaudTqcEjDrRygqmZX5rh4T0qxwpZw58sTLPalqLdSZD9aACTYrrWSWoWJ53e2zPe0zvewaaMwFzoA3xKJFt0AvWrjGu531o7/u4ZBiCBEtHAZMgGJf2KlcNCW6OYhHEWrdZ294e1fPmSUi3GIkiB+td5+GVh1j3Ohv8PIJp+D6ObsFc3MzqVoAV7sGDyw9OzCEnWXEQB5ZnxX5QmRt1758cJBGmP8zXI1mVJzRZU5JBPcJfVUVL4Pry9QiWYUiPvjKsR1NEFCkhm7DeBtASNveq15eIoItEIDB1MOCb2zl6BMswwKQ/OJwDG5FrVjvtUgdserjSw9cVfj1Civ0oF48Cr96MMy94v3A7y2LkpDDGivdWQVuHMcLXKesQHVtLBnnUUBNVZZ5BGcGjL3xqeAyfapgSmBhRIlCJSiL+P4tIq/MSmKWDRWRe32amId/W8Rm7K47pmJ2qC9NgVs0eRKnDH5E+wvesxOUgy6ym37SCfYVX6lYWhlYWZP7JYl0GNn02V49U2GtFU7WhfKRCi2wVzk4u2GVg028M65EI700pxRdhQOnXdwvn4Lj1NXg6iYpY7bYpHd1lKNz6Xi45jlOKHCfaqmI4EURpi7/V8N2w3jw8iitW5geZtb/wAD4iDuAhgjfHNL3Htb5nwCG5oSKwDumRggWwsZ7Iycim9/B4Y5hHkiDpCEiCyEhjUEla3RUqwENRBHyiBBbl5qN/4OTRadN0XMakaHkhKsE7mE7HufUcre8PcOjRicBrZjBz9WB/4d0M1sG3Yqv17pijDBiHHmrAWmcrNstCw3qkQIzkiQlthB4Nkij/UMMUXZIoEZYogUMQDCoundsprNb0NZFIZEmAkyCE0u28fPRbAyQad6ihVy2X+m2sco++dc8pVZ2VKCo5G/yHGjjiETBiccjLWkG2v3Cj7iHUNsN6682i8YhhlDNe0xSmRqqiDvEIuCU7nbyC8Sg/IB0nhkAECTjcocCJEvHO03AEbdIpaLUJtdLndVBpmEbAiCsgXUxdJzWrWO5Of+tV0wVKZseFa+B/guKDHHp0wg8rrbrVyuL9hfteMLkY+uFkZVTT7qVhPfr7XD1SGjbQAJuG+nUKnB1qSnLYAdWB6YvDelQTCQGBDHKJCoawRgRhlRU2QS6gR85MSVSQiL5GcvTo1CCLMH36EBIsmFGamuZ030EqwmLnmqWu63SXefXoJ499LxePWDyCufP208irwNYFPiz4KyPuQ9e7UKNhxtY0BZ9kKB/JicI+ipIU7Hqz8cVhPZpHKBJFgdBViRoiIBJZRLoKWERRNMi5KdZsoAi5wjCNTvHx6NU+iONMT6fOQxTuQYxMx0nLzmleHn3i2GMePWoiwGbBpFU/efI/T55k05v3rclmEPqTYcVvjrr3c8N69OVcPVLWkZA0jEE9SoCOmkxgztejP83Toy/l5KMlQaeiAQjOiJRKGJsoXIfPo4TS+SfHkXAJs+Frw3r05Pe59GjDbHfbQKkaMVT+uwSImLWrdnj16BNcPJpjPGr6XhxgwMvVA7SALAzfApOCG4+PyqOG3QCNbG1ikEdY69iuhabIR+MRYVBAkoz3zuFbkDBdZeFom6Ulcgn+bgc6XZ8/Mo+uQIjAG9N1l1lhq5xOO2apXHYv8vKIS48ue5blNdFsyCbDlh/WPd+v+2EWtkIfsE2O3I/9XFE9UlX4OiChDekRkENEkhP5aHpEDYNSgxLy5L1tIgCtbf0MwhGhoiCJ9Co2AdmyR0Cmo+rRsmu6acmFAq3sFO71+whK5Wq7vcCrR3y+rtX0WnAMcatVb2Fta1qgUQyBCv2Kf8gO0ktFeQRTZzfQU0iGeIRklEzIaiIf0dcxR0AF0WCNbkIMMElYPV4jTJmMOyxASYZAgRk5qq87XW6bZpp2zV0BuhVFVdc1IUvdV3l93Yd49Cib9O4Dn8CyWljwfGCD5a7ZsrxFP7j/Fi45Yj5SbKQjYDScjxIkJ+iRrBwlHwEjUqMCpcwSnBJoTVrCpiyzeCJSLTqsT6YIazUg0C7l5KNv8OjRChY5p++0u+by08KCaZYclpCqG1x6BIw+wKNHceb50KDA8tATiuPYCjKmS5WssugxU3fUPoMKV2erSk4+sjXWEteQj/JHHo++mtOvEyVAhISEwh2B8YXlJZ1KAhGFVYAoQY1Eul0TRh+uK3TE7mIbjCl1HbP9aLdwL3VKbcdxO+5d3j7DD/PoUb1uLYahVcnq9RAthzhknSEMK7z/CrvkyP06raGoDKRBPYKjk8Ejzebp170xrEfEIHQNtk5E4ZxBRFGC4yaUEhaOGNGkJaCkA8Yj9usWXLcUud1uNT39rOD0zb7TL1fT6WUuPfrwsY9x6ZFvgTeZ73stywJGludVMisM9zoMhfven8nlkaKqWqLC2g3ySFUwkkTRJjj63qdyeIQB9hiMJqsCg4YKugAuiSI5xy6gDDEq0loOj36geL/uVtvpds1+uw9Xt6dQIFbKMtIEV0T6/u859iM8+0chmFNnBiHwKiGM3WToZVnzwe1v5t3Bv390zWaLHXBSLhwsvKCpcqIq+Nwsvn/0tzn7R4BFNAAJZYXrNZGCP1SqMcewyS4BRjqRQCVytP2js27UByLddDptV50ya66mWPeijluCIa/y6BEOnfwaD4+CrJXBKFjhyffHWxynVMecVL2gYK2zG7KizhwsvA01YlRS7Zkj7cNOEcMwYN1EgxWugkMSBbMoJvH6zgVPm96iJOU9wld8H/Zu121Pd7HW9ftu1Unb7WoUOVHV7JfM6WnX4YlIP4+3BPHokV/x4iY7d8J33vvrBc8zvAMKqRjs8Nb+wmcaEwnsggxJenuEHr08rEf/mHOegdnuNd2gZKfA9mPpEmFm24BjYESjBPgISzUpR4/+vfB5hmWnjPDax780RVsV9q5ahYdwqiDRtDtb2uJ7c9B3cDQaHkCB0Fzw6ouP+QZCbJGDqudh6uQENFLUxvn9/XCF/UlLNNu+UOyYan6bgUEANARqkJ3CJcp+Ewyd0N0G+BSLsnRbyOXRk8Lx6KxZhdN2EWK75dR1uyVA5URm5LadMv6euq/ytBmOwXwXz0cIRfU4nPQDzicn/nJQj/4inw2s8a0hHjU09eYek87PNNSGBpTkdVs9P+p83bAeffVJTj4yDDBJEoydwiosHBBjSFHmGJgeMW9eo3pePnryV4N69OkRHOhVnTagabvlaRPNhjLWO0SjflSaNSFIplvdKK5H7JnYj/HoUQWKFKMNxMmjTxaydRAkZhoajYZtA5bXLgCm8+9ca6g7GxZY67TGNVxU1NidyuORAIwYUE8LZwCXsCNJ86u7PKIiYZYBIBYwdqPCEZJQuTvbbafdchuiVGr32+3Z2a7rzpZn0+50P7pS3NaxN9n9Jsf+kcUOpmZeHB/hKT5MsAwj6HDTRgSyVcCiqnaDBVrbVpSGbNvwewDua8We4mPTV/LOe2NhQ+ubCMLTwjkBlAJEdO36rvEzgA9GXj6CaSh43nshdU3XhKvDYPiUSqwFHplp2k5nXadqut3lYizaff7/xzl45IdWHPueX+HkEUzD/jH69VvvKBoDwwZMLCvBbssaswoKFCrR1GuHvXBrYMAyDA1GE5CGGHS3ANetU4rfr+4FKBFVUCv/hVsHx5+P2DlynVLfLKX9ktMFa0z84sLQueiwOm532i2nXbdoRPplWAaMDxXPR4EfBF6A5g//q4L2SHT4S4OuySpWOsBjN2xFlRmT2Nk6NWG/3DzPLinS+c5/aRAgAIkMQg1jt3CdNYeWiLG5e8mUKBAiIkLl6tGv7CfR6JcGbTjRLEBxyu3prbNnz26c3cC0wX7qzaaz0+ZsNy05RfUIcsQlSHNWy2q1WL/7Ma8gFZIjNm7a67bWwFhX8YMNqFT2BXbJ62ylKyxIp3J5BD0yJErIbuGqhN8ESi/tNcYpfdrBe6+AII0MR+0Ujm427Q/6t9Npv11Gm9WJ3IvFaIQuAxsf59CjIGt6me/XeZ+H/fwBPfqXkXQAH64pNvBpqCrQAYsUkEhWZVuxAdFhz8O+fFCP/u1Jrh7BNCwhsArPCneYOIn01DPjJxEdAElSTj7C9HqRLsNytW92y5ELLi0MVJe706mZTpswfQsFX5q/+160Dxbv17VaQb3ZyuqPecdLuZtH+eYOjkFpNLSb6+sMHsDEfIN97fyYF6mOTUfMEoBGhiiKe3JzibDENLV3gUQQYgmV8nl0qkg6Om2WzHaVfdIhstztl9rT5WkoknOL603fHy2sR54VLAZNzLx6BPe9j0ljHhE/f2E90UCmBowcPpqCcHQNPnzMbV84oEdgRo4ekSUKlIi4Z9tWRZgEtFOf6RGhlBJpnop5egT3XaDp3avutBi6Zqk0VN2AaUjTCZjy3tkievSRZ++Q/tnCPKrHmdWEZwif53VBPC8MunDtZqPBDJ0Ml4ekdL7Iq1THuTqGEWMN63bvFc6AWrX3LxAJZWftIFi54/Xxru6i4yDAVk0ko62BEtbBLlJsO3X7pnPl/3k7d5UGgigMLyh4IdpsICSxsLCIdVoLScDOWgJe6qRJ3mNr06Sw3V2t4qVIVNCoBAkmT7AgQQIW2jhu1EaSwM8wEMgW//lgD/sCP3OGmflONKnqioAv6H6Wrk4v7pvjee+e47gzShqq+nrUJ/mCWmZXF6384i9KVydvaPB5+jrQZpkgH0TtDDsWSC/xTSevuGTXYfnrLs2rdYQSVMT8dVA6oWugs69tjkjcIEa1kIWNzRGftQVLDxJfvTW40I+OKOXTeArLKIFxdMQsKUsnIxekoVL0INVCHrZ4jBAkbojQfpcfmX7v3mQ96jL93sF4PWrwJZCIkWiQECNukNq7IRNbKkbmoKq5ZYHW7q582EEIeK3dLTFFo+8DB7DUkreAqOLbV2TOYMnn8Sws9waLCQEdZP2UPf+oelXqs+cf5VoCkvzt7JRRb2wKm4pNrxvS2fvi81/bvS0ljoVhGP7MZtYi7NRSCEKAEEBFsZEoonSJjopM02U7XXMwldz/HXTP9mSmUmVNd4aQZGX9zw1wQL2Vn4+D7GGdGvlpV1RHQQSUKVlL8vfxfdJn5FfdgmENzqvUGY3BPeqOVvqUuCLnHmxBXNGdi/XqBm1JNQCmRVvSBLAd2pI+ABiWqX8aRXmkjChXBQCsSCvyOACfNKNbAMAD8XsmonUJKyqqCIwIK7JMAMAtYUVTHYEZYUULhmj8kCwjo40A0CSr6DgPAOD6GVlFO/cIQLmhGxiG2ETfIiopN8AbxaMqqYMA0PpEVJJj4w1bEJVUdrGZukWT0RMCpK/+r+ANJ3r1/499vAEv0Rx35RPEqRcprroCvmVuU1Q0wn/4/Q7FwPCKb/DhLkFFdyeIV5dfUu4F3zM9yooC9/JLcl7xveGCpqJ4quzlLjdAGPMkR3TcQcj1VHJJOzbCSvuSSyqfIhld7nVnjPF//FnuRbdCGFpn0i+6MM7eS61o10VS/EhiRUYb6/CJxIqsPNbQ5xIrml5jHXYusaLFECm8SBvBqyoiVKSN4J6J9S6k/ZW01BHh4E7ausCQSlvOeZerIVpP0nk34ojSl3PeOZ8RzV3IeRRpiED7UCo+YhNFxuRgrbBBay4hoqmNaBylcwkRLVwIeDKyVnSoIkbHylpR08Rml07WX0VXOmJojawVzRiEqN1MEW09Ih6bZIpoe4VY18tMEZ3Z4IhTmmWKaN+FsLb4fGfUFCTSE5/vjkcKkuiLz3c7PpJxxee7hoZMXopiy8JRHYl1BPe7pomE9Eux1cG5aiEpru2KLQt7JWSkFIqpK/q5W0cKHB0vfUXNHgKJv6XUFTlX10iDabupK2oclCDDU7oFz6ipSO1jugXPmphIhUP3p+l2hYsWUuLKw36qhhoHDLK0u4lvvOovOjgE9CaJbzyvogh9hn2b+MZbvnIIcWflpBHdnCiQh4MPjowEo0KtDnH8Y9NKMCqMTIjhgP66dOL/JZr7LYhjJ+eN+IRutBIItGuHRnRAW92Bisx6o2crOqDtXzsMWdmXcyc6oB8u+jrAkY17cFOODmh/75QBHETahe5h+PFkVI8KAxXS9CqT5/CpZ3nNUceEDJwDtn81n4aH7Z9u/X4L0rja3vkiPGy/n2mnDPSA9nj8VPjXu8J4PFZBopfPdyqBfD7PQMG27Q++73/2fdu2dZAYuu6DFnBdl0HEP8I6LOzocS0wAAAAAElFTkSuQmCC;labelPosition=center;align=center;container=0;" vertex="1" parent="zpTVTdFHTJqUsnKjDufD-45">
          <mxGeometry x="60" y="30" width="169.5" height="48.95" as="geometry" />
        </mxCell>
        <mxCell id="zpTVTdFHTJqUsnKjDufD-18" value="Zed Attack Proxy" style="shape=image;verticalLabelPosition=bottom;labelBackgroundColor=default;verticalAlign=top;aspect=fixed;imageAspect=0;image=data:image/svg+xml,PHN2ZyB2aWV3Qm94PSIwIDAgNTQuOTggNTUiIHdpZHRoPSI1NXB4IiB4bWxucz0iaHR0cDovL3d3dy53My5vcmcvMjAwMC9zdmciPjxkZWZzPjxyYWRpYWxHcmFkaWVudCBncmFkaWVudFVuaXRzPSJ1c2VyU3BhY2VPblVzZSIgcj0iMjUuODIiIGN5PSIyOS4xOCIgY3g9IjI5LjE2IiBpZD0iYSI+PHN0b3Agc3RvcC1jb2xvcj0iIzQzODlmZiIgb2Zmc2V0PSIwIi8+PHN0b3Agc3RvcC1jb2xvcj0iIzAwNTQ5ZSIgb2Zmc2V0PSIxIi8+PC9yYWRpYWxHcmFkaWVudD48L2RlZnM+PGNpcmNsZSBmaWxsPSJ1cmwoI2EpIiByPSIyNS44MiIgY3k9IjI5LjE4IiBjeD0iMjkuMTYiLz48cGF0aCBmaWxsPSIjZmZmIiBkPSJNMi4xNyAxMC44MkwyMi42NyAyYS4zNC4zNCAwIDAgMSAuNDIuMTJsMTEuMDggMTUuNzRhLjM3LjM3IDAgMCAxLS4xOC41N2wtMyAxYS4zNy4zNyAwIDAgMC0uMTYuNThsOC43NSAxMWEuMzcuMzcgMCAwIDEtLjE5LjU5bC0zLjc5LjkzYS4zNy4zNyAwIDAgMC0uMi41OWwxMi45MiAxNi4zMmEuMzYuMzYgMCAwIDEtLjQ0LjU1bC0yOS0xNi43NGEuMzcuMzcgMCAwIDEgLjA1LS42NmwzLjUtMS4zOWEuMzcuMzcgMCAwIDAgLjA3LS42NGwtMTEuNzgtOC41YS4zOC4zOCAwIDAgMSAuMDctLjY0bDIuNjktMS4xOGEuMzcuMzcgMCAwIDAgLjA2LS42NEwyLjEgMTEuNDZhLjM3LjM3IDAgMCAxIC4wNy0uNjR6Ii8+PHBhdGggZD0iTTIyLjggMmEuMzUuMzUgMCAwIDEgLjI5LjE1bDExLjA4IDE1LjcxYS4zNy4zNyAwIDAgMS0uMTguNTdsLTMgMWEuMzcuMzcgMCAwIDAtLjE2LjU4bDguNzUgMTFhLjM3LjM3IDAgMCAxLS4xOS41OWwtMy43OS45M2EuMzcuMzcgMCAwIDAtLjIuNTlsMTIuOTIgMTYuMzJhLjM3LjM3IDAgMCAxLS4yNy42LjMuMyAwIDAgMS0uMTcgMGwtMjktMTYuNzRhLjM3LjM3IDAgMCAxIC4wNS0uNjZsMy41LTEuMzlhLjM3LjM3IDAgMCAwIC4wNy0uNjRsLTExLjc4LTguNWEuMzguMzggMCAwIDEgLjA3LS42NGwyLjY5LTEuMThhLjM3LjM3IDAgMCAwIC4wNi0uNjRMMi4xIDExLjQ2YS4zNy4zNyAwIDAgMSAuMDctLjY0TDIyLjY3IDJhLjMxLjMxIDAgMCAxIC4xMyAwbTAtMmEyLjIyIDIuMjIgMCAwIDAtLjkxLjE5TDEuNCA5YTIuMzIgMi4zMiAwIDAgMC0uNDMgNGw5LjE2IDYuNTItLjE0LjA2YTIuMzQgMi4zNCAwIDAgMC0uNDIgNEwxOSAzMC40NWwtLjgxLjMyYTIuMzMgMi4zMyAwIDAgMC0uMyA0LjE3bDI5IDE2Ljc0YTIuMjMgMi4yMyAwIDAgMCAxLjE1LjMxIDIuMzIgMi4zMiAwIDAgMCAxLjgtMy43NkwzOC40OCAzMy44MmwxLjQxLS4zNEEyLjMyIDIuMzIgMCAwIDAgNDEuNTIgMzJhMi4zNiAyLjM2IDAgMCAwLS4zOC0yLjJsLTcuMzQtOS4yNi43OS0uMjZhMi4yOSAyLjI5IDAgMCAwIDEuNDgtMS40NiAyLjM2IDIuMzYgMCAwIDAtLjMtMi4wOEwyNC42OCAxYTIuMyAyLjMgMCAwIDAtMS44OC0xeiIvPjwvc3ZnPg==;container=0;" vertex="1" parent="zpTVTdFHTJqUsnKjDufD-45">
          <mxGeometry x="174.5" y="109.99999999999994" width="55" height="55" as="geometry" />
        </mxCell>
        <mxCell id="zpTVTdFHTJqUsnKjDufD-44" value="HTTP" style="endArrow=classic;html=1;rounded=0;exitX=0;exitY=0.5;exitDx=0;exitDy=0;entryX=0.5;entryY=1;entryDx=0;entryDy=0;" edge="1" parent="zpTVTdFHTJqUsnKjDufD-45" source="zpTVTdFHTJqUsnKjDufD-18" target="zpTVTdFHTJqUsnKjDufD-20">
          <mxGeometry x="0.2987" width="50" height="50" relative="1" as="geometry">
            <mxPoint x="-90" y="180" as="sourcePoint" />
            <mxPoint x="-40" y="130" as="targetPoint" />
            <Array as="points">
              <mxPoint x="145" y="138" />
            </Array>
            <mxPoint as="offset" />
          </mxGeometry>
        </mxCell>
        <mxCell id="zpTVTdFHTJqUsnKjDufD-54" value="Analyze" style="endArrow=classic;html=1;rounded=0;entryX=0;entryY=0.5;entryDx=0;entryDy=0;entryPerimeter=0;" edge="1" parent="zpTVTdFHTJqUsnKjDufD-8" target="zpTVTdFHTJqUsnKjDufD-49">
          <mxGeometry width="50" height="50" relative="1" as="geometry">
            <mxPoint x="200" y="476.33" as="sourcePoint" />
            <mxPoint x="360" y="403.33" as="targetPoint" />
          </mxGeometry>
        </mxCell>
        <mxCell id="zpTVTdFHTJqUsnKjDufD-47" value="" style="shape=image;html=1;verticalAlign=top;verticalLabelPosition=bottom;labelBackgroundColor=#ffffff;imageAspect=0;aspect=fixed;image=https://cdn0.iconfinder.com/data/icons/social-media-2104/24/social_media_social_media_logo_docker-128.png;container=0;" vertex="1" parent="zpTVTdFHTJqUsnKjDufD-8">
          <mxGeometry x="90" y="383.33" width="39.67" height="39.67" as="geometry" />
        </mxCell>
        <mxCell id="zpTVTdFHTJqUsnKjDufD-48" value="Containerized SAST Jobs" style="rounded=1;whiteSpace=wrap;html=1;fillColor=none;container=0;labelPosition=center;verticalLabelPosition=bottom;align=center;verticalAlign=top;" vertex="1" parent="zpTVTdFHTJqUsnKjDufD-8">
          <mxGeometry x="100" y="390" width="250" height="180" as="geometry" />
        </mxCell>
        <mxCell id="zpTVTdFHTJqUsnKjDufD-19" value="Semgrep" style="shape=image;verticalLabelPosition=bottom;labelBackgroundColor=default;verticalAlign=top;aspect=fixed;imageAspect=0;image=data:image/svg+xml,PHN2ZyB4bWxucz0iaHR0cDovL3d3dy53My5vcmcvMjAwMC9zdmciIHdpZHRoPSI2NCIgdmlld0JveD0iMCAwIDY0IDY0IiBoZWlnaHQ9IjY0IiBmaWxsPSJub25lIj48ZyBmaWxsLXJ1bGU9ImV2ZW5vZGQiIGNsaXAtcnVsZT0iZXZlbm9kZCI+PHBhdGggZmlsbD0iIzEwMjIyZiIgZD0ibTI2LjgyNjkgMS40NDMzNWMzLjIwMTEtMS45MjQ0NjggNy4xNDUxLTEuOTI0NDY3IDEwLjM0NjIgMGwxNy42NTM4IDEwLjYxMzM1YzMuMjAxMSAxLjkyNDUgNS4xNzMxIDUuNDgxIDUuMTczMSA5LjMzdjIxLjIyNjZjMCAzLjg0OS0xLjk3MiA3LjQwNTUtNS4xNzMxIDkuMzNsLTE3LjY1MzggMTAuNjEzNGMtMy4yMDExIDEuOTI0NC03LjE0NTEgMS45MjQ0LTEwLjM0NjIgMGwtMTcuNjUzODQtMTAuNjEzNGMtMy4yMDExLTEuOTI0NS01LjE3MzA2LTUuNDgxLTUuMTczMDYtOS4zM3YtMjEuMjI2NmMwLTMuODQ5IDEuOTcxOTYtNy40MDU1IDUuMTczMDYtOS4zM3ptNy43NDczIDExLjEwMjY1Yy0xLjU5MjktLjk1OTktMy41NTU1LS45NTk5LTUuMTQ4NSAwbC0xMi4xODQ4IDcuMzQyM2MtMS41OTI5Ljk1OTgtMi41NzQyIDIuNzMzOC0yLjU3NDIgNC42NTM1djE0LjY4NDVjMCAxLjkxOTguOTgxMyAzLjY5MzcgMi41NzQyIDQuNjUzNmwxMi4xODQ4IDcuMzQyMmMxLjU5My45NTk5IDMuNTU1Ni45NTk5IDUuMTQ4NSAwbDEyLjE4NDktNy4zNDIyYzEuNTkyOS0uOTU5OSAyLjU3NDItMi43MzM4IDIuNTc0Mi00LjY1MzZ2LTE0LjY4NDVjMC0xLjkxOTctLjk4MTMtMy42OTM3LTIuNTc0Mi00LjY1MzV6Ii8+PHBhdGggZmlsbD0iIzA5NzRkNyIgZD0ibTI2LjgyNjkgMS40NDMzNWMzLjIwMTEtMS45MjQ0NjggNy4xNDUxLTEuOTI0NDY3IDEwLjM0NjIgMGwxNy42NTM4IDEwLjYxMzM1YzMuMjAxMSAxLjkyNDUgNS4xNzMxIDUuNDgxIDUuMTczMSA5LjMzdjIxLjIyNjZjMCAzLjg0OS0xLjk3MiA3LjQwNTUtNS4xNzMxIDkuMzNsLTE3LjY1MzggMTAuNjEzNGMtMy4yMDExIDEuOTI0NC03LjE0NTEgMS45MjQ0LTEwLjM0NjIgMGwtMTcuNjUzODQtMTAuNjEzNGMtMy4yMDExLTEuOTI0NS01LjE3MzA2LTUuNDgxLTUuMTczMDYtOS4zM3YtMjEuMjI2NmMwLTMuODQ5IDEuOTcxOTYtNy40MDU1IDUuMTczMDYtOS4zM3ptNy43NDczIDExLjEwMjY1Yy0xLjU5MjktLjk1OTktMy41NTU1LS45NTk5LTUuMTQ4NSAwbC0xMi4xODQ4IDcuMzQyM2MtMS41OTI5Ljk1OTgtMi41NzQyIDIuNzMzOC0yLjU3NDIgNC42NTM1djE0LjY4NDVjMCAxLjkxOTguOTgxMyAzLjY5MzcgMi41NzQyIDQuNjUzNmwxMi4xODQ4IDcuMzQyMmMxLjU5My45NTk5IDMuNTU1Ni45NTk5IDUuMTQ4NSAwbDEyLjE4NDktNy4zNDIyYzEuNTkyOS0uOTU5OSAyLjU3NDItMi43MzM4IDIuNTc0Mi00LjY1MzZ2LTE0LjY4NDVjMC0xLjkxOTctLjk4MTMtMy42OTM3LTIuNTc0Mi00LjY1MzV6Ii8+PC9nPjwvc3ZnPg==;container=0;" vertex="1" parent="zpTVTdFHTJqUsnKjDufD-8">
          <mxGeometry x="125" y="403.33" width="50" height="50" as="geometry" />
        </mxCell>
        <mxCell id="zpTVTdFHTJqUsnKjDufD-49" value="RailsGoat Code" style="verticalLabelPosition=top;html=1;verticalAlign=bottom;align=center;strokeColor=none;fillColor=#00BEF2;shape=mxgraph.azure.git_repository;labelPosition=center;container=0;" vertex="1" parent="zpTVTdFHTJqUsnKjDufD-8">
          <mxGeometry x="275" y="446.66999999999996" width="60" height="60" as="geometry" />
        </mxCell>
        <mxCell id="zpTVTdFHTJqUsnKjDufD-50" value="" style="shape=image;verticalLabelPosition=bottom;labelBackgroundColor=default;verticalAlign=top;aspect=fixed;imageAspect=0;image=data:image/png,iVBORw0KGgoAAAANSUhEUgAAAOEAAAEzCAYAAADHMmTqAAAKT2lDQ1BQaG90b3Nob3AgSUNDIHByb2ZpbGUAAHjanVNnVFPpFj333vRCS4iAlEtvUhUIIFJCi4AUkSYqIQkQSoghodkVUcERRUUEG8igiAOOjoCMFVEsDIoK2AfkIaKOg6OIisr74Xuja9a89+bN/rXXPues852zzwfACAyWSDNRNYAMqUIeEeCDx8TG4eQuQIEKJHAAEAizZCFz/SMBAPh+PDwrIsAHvgABeNMLCADATZvAMByH/w/qQplcAYCEAcB0kThLCIAUAEB6jkKmAEBGAYCdmCZTAKAEAGDLY2LjAFAtAGAnf+bTAICd+Jl7AQBblCEVAaCRACATZYhEAGg7AKzPVopFAFgwABRmS8Q5ANgtADBJV2ZIALC3AMDOEAuyAAgMADBRiIUpAAR7AGDIIyN4AISZABRG8lc88SuuEOcqAAB4mbI8uSQ5RYFbCC1xB1dXLh4ozkkXKxQ2YQJhmkAuwnmZGTKBNA/g88wAAKCRFRHgg/P9eM4Ors7ONo62Dl8t6r8G/yJiYuP+5c+rcEAAAOF0ftH+LC+zGoA7BoBt/qIl7gRoXgugdfeLZrIPQLUAoOnaV/Nw+H48PEWhkLnZ2eXk5NhKxEJbYcpXff5nwl/AV/1s+X48/Pf14L7iJIEyXYFHBPjgwsz0TKUcz5IJhGLc5o9H/LcL//wd0yLESWK5WCoU41EScY5EmozzMqUiiUKSKcUl0v9k4t8s+wM+3zUAsGo+AXuRLahdYwP2SycQWHTA4vcAAPK7b8HUKAgDgGiD4c93/+8//UegJQCAZkmScQAAXkQkLlTKsz/HCAAARKCBKrBBG/TBGCzABhzBBdzBC/xgNoRCJMTCQhBCCmSAHHJgKayCQiiGzbAdKmAv1EAdNMBRaIaTcA4uwlW4Dj1wD/phCJ7BKLyBCQRByAgTYSHaiAFiilgjjggXmYX4IcFIBBKLJCDJiBRRIkuRNUgxUopUIFVIHfI9cgI5h1xGupE7yAAygvyGvEcxlIGyUT3UDLVDuag3GoRGogvQZHQxmo8WoJvQcrQaPYw2oefQq2gP2o8+Q8cwwOgYBzPEbDAuxsNCsTgsCZNjy7EirAyrxhqwVqwDu4n1Y8+xdwQSgUXACTYEd0IgYR5BSFhMWE7YSKggHCQ0EdoJNwkDhFHCJyKTqEu0JroR+cQYYjIxh1hILCPWEo8TLxB7iEPENyQSiUMyJ7mQAkmxpFTSEtJG0m5SI+ksqZs0SBojk8naZGuyBzmULCAryIXkneTD5DPkG+Qh8lsKnWJAcaT4U+IoUspqShnlEOU05QZlmDJBVaOaUt2ooVQRNY9aQq2htlKvUYeoEzR1mjnNgxZJS6WtopXTGmgXaPdpr+h0uhHdlR5Ol9BX0svpR+iX6AP0dwwNhhWDx4hnKBmbGAcYZxl3GK+YTKYZ04sZx1QwNzHrmOeZD5lvVVgqtip8FZHKCpVKlSaVGyovVKmqpqreqgtV81XLVI+pXlN9rkZVM1PjqQnUlqtVqp1Q61MbU2epO6iHqmeob1Q/pH5Z/YkGWcNMw09DpFGgsV/jvMYgC2MZs3gsIWsNq4Z1gTXEJrHN2Xx2KruY/R27iz2qqaE5QzNKM1ezUvOUZj8H45hx+Jx0TgnnKKeX836K3hTvKeIpG6Y0TLkxZVxrqpaXllirSKtRq0frvTau7aedpr1Fu1n7gQ5Bx0onXCdHZ4/OBZ3nU9lT3acKpxZNPTr1ri6qa6UbobtEd79up+6Ynr5egJ5Mb6feeb3n+hx9L/1U/W36p/VHDFgGswwkBtsMzhg8xTVxbzwdL8fb8VFDXcNAQ6VhlWGX4YSRudE8o9VGjUYPjGnGXOMk423GbcajJgYmISZLTepN7ppSTbmmKaY7TDtMx83MzaLN1pk1mz0x1zLnm+eb15vft2BaeFostqi2uGVJsuRaplnutrxuhVo5WaVYVVpds0atna0l1rutu6cRp7lOk06rntZnw7Dxtsm2qbcZsOXYBtuutm22fWFnYhdnt8Wuw+6TvZN9un2N/T0HDYfZDqsdWh1+c7RyFDpWOt6azpzuP33F9JbpL2dYzxDP2DPjthPLKcRpnVOb00dnF2e5c4PziIuJS4LLLpc+Lpsbxt3IveRKdPVxXeF60vWdm7Obwu2o26/uNu5p7ofcn8w0nymeWTNz0MPIQ+BR5dE/C5+VMGvfrH5PQ0+BZ7XnIy9jL5FXrdewt6V3qvdh7xc+9j5yn+M+4zw33jLeWV/MN8C3yLfLT8Nvnl+F30N/I/9k/3r/0QCngCUBZwOJgUGBWwL7+Hp8Ib+OPzrbZfay2e1BjKC5QRVBj4KtguXBrSFoyOyQrSH355jOkc5pDoVQfujW0Adh5mGLw34MJ4WHhVeGP45wiFga0TGXNXfR3ENz30T6RJZE3ptnMU85ry1KNSo+qi5qPNo3ujS6P8YuZlnM1VidWElsSxw5LiquNm5svt/87fOH4p3iC+N7F5gvyF1weaHOwvSFpxapLhIsOpZATIhOOJTwQRAqqBaMJfITdyWOCnnCHcJnIi/RNtGI2ENcKh5O8kgqTXqS7JG8NXkkxTOlLOW5hCepkLxMDUzdmzqeFpp2IG0yPTq9MYOSkZBxQqohTZO2Z+pn5mZ2y6xlhbL+xW6Lty8elQfJa7OQrAVZLQq2QqboVFoo1yoHsmdlV2a/zYnKOZarnivN7cyzytuQN5zvn//tEsIS4ZK2pYZLVy0dWOa9rGo5sjxxedsK4xUFK4ZWBqw8uIq2Km3VT6vtV5eufr0mek1rgV7ByoLBtQFr6wtVCuWFfevc1+1dT1gvWd+1YfqGnRs+FYmKrhTbF5cVf9go3HjlG4dvyr+Z3JS0qavEuWTPZtJm6ebeLZ5bDpaql+aXDm4N2dq0Dd9WtO319kXbL5fNKNu7g7ZDuaO/PLi8ZafJzs07P1SkVPRU+lQ27tLdtWHX+G7R7ht7vPY07NXbW7z3/T7JvttVAVVN1WbVZftJ+7P3P66Jqun4lvttXa1ObXHtxwPSA/0HIw6217nU1R3SPVRSj9Yr60cOxx++/p3vdy0NNg1VjZzG4iNwRHnk6fcJ3/ceDTradox7rOEH0x92HWcdL2pCmvKaRptTmvtbYlu6T8w+0dbq3nr8R9sfD5w0PFl5SvNUyWna6YLTk2fyz4ydlZ19fi753GDborZ752PO32oPb++6EHTh0kX/i+c7vDvOXPK4dPKy2+UTV7hXmq86X23qdOo8/pPTT8e7nLuarrlca7nuer21e2b36RueN87d9L158Rb/1tWeOT3dvfN6b/fF9/XfFt1+cif9zsu72Xcn7q28T7xf9EDtQdlD3YfVP1v+3Njv3H9qwHeg89HcR/cGhYPP/pH1jw9DBY+Zj8uGDYbrnjg+OTniP3L96fynQ89kzyaeF/6i/suuFxYvfvjV69fO0ZjRoZfyl5O/bXyl/erA6xmv28bCxh6+yXgzMV70VvvtwXfcdx3vo98PT+R8IH8o/2j5sfVT0Kf7kxmTk/8EA5jz/GMzLdsAACAASURBVHja7J15nF1Vle+/e+9zzp1qrswJZGAwgBkAAQFxAHzaqCi22IAyia1o07avfa+7n3a37QTO2G2r7QACQqtoO+DEJIMyhHlMAoHMqVSlMtR0xzPs/f7Y59y6lVTdSiCB3HDX53M/VXXrDufsvX97rb3Wb60ljDGGpjSlKS+byOYQNKUpTRA2pSlNEDalKU1pgrApTWmCsClNaUoThE1pShOETWlKU5ogbEpTmiBsSlOa0gRhU5rSBGFTmtKUJgib0pQmCJvSlKY0QdiUpjRB2JSmNKUJwqY05YAXpzkEL68YY0jyqo0xCCGoVCps27aNDRs3sn79etatW0/P5h56e3vZ2r+VwaFBBgYGGRgYwPd9hBDV97a2ttLV1UlHewedXV3MnDGD2bNnc9BBc5g/bz4HH3wws2bNpL29HSFEcwL2AxHNzPqXR6IoQmtNGIYMDAywZu1aHn30Uf7853t44skn6NnUgx+GUDM9CWjMOM/Vgrr2f8nftb93dnRy2OGHcdKJJ3LySSexaNGrmT17Nul0ujkxTRAeuGKMqYKuXC7T09PD3Xf/iV/86pc8+ujjjIwM7/L6faWpaj/bGIOSkrnz5vLWt76Vd7/rLJYsWUxbWxtSNk8rTRAeABKGIWEY4vs+mzb18PP/+R9+euNPWbt2PUHg7zcmYe0yaG9v53Unn8Sll36E15/yOrLZbHMimyBsLNFaEwQBYRgyNDTEb377W6699kesfGYFhWIJo7Ud/P3wTJZoSWMMUgqmTJnGGX/xVj7+8b/jqCOPbE5uE4SNAT7f91m7bh0/+MFV/P4Pf6Bn0ybCKBrjQGkkMcaQSnkcc8yx/O1lf8O7zzoLpVRzwpsg3L8WaRAEVCoVnnr6af7ru9/lDzffzPDQMFrrA8oLaYzh1UcdxUc+cinnv//9ZDKZ5gJogvDlE601Wmt832fFypV8+zvf4Re/+CXlchkdm5z7GhC7TOhLBHhjDEcsXMg//MP/5ez3vIdUKtVcEE0QvrSSOFt6e3v53ve/zw+uvpr8SJ69OZy157NacLmui6MUjuuOMQuNMYRRiI60DYFEkY1DxhuGEGKvaubkuo455hiu+MLnecMb3tD0qDZBuO/FGEOlUqFQKPCb3/6Oz37us/T0bH5R4Ns5lieFwPU8Oto7mDFjOnPnzeNVhx/GoYcexkFzZtM9ZQptra2kUmkcR1XfF4YRYRiSz+cZGhpkc28v69dvYM2aNaxdt5a+zX0MDA1SKOSpVHyiKCKKgfpixwTgvWefzRevuJyDDjqouVCaINw3kpz7nnv+ef7xn/6Je+65lzAMX/QCVkrieSlmzZ7FiSe8lre+9S0cc8wxTJ82DcdxEEIghEBKOeZnAtydPy95RFFUDZFEUUS5XGZ4eIQNGzaw7IEHWPbgA6x+/nmGh4cpl8pUfJ8wDF+Q86jK2Glr4/LPf45LPvABHKdJyGqCcC+JMQbf9ykWi/zw2mv52le/zvbt24l0NC4QdmexSinJZDK89rUncM5fncPJJ53I1KlTSafTKGW12970QCbATDy4lUqFYrHI8MgIzz/3PHfdfTd//vOf2NzbRz6fp1Kp7LGWTO5NCMFJJ57EtddczcEHH9xcQE0QvjjRWlMsFunp6eH/ffJT3HLrrQRBsMfaohZ8J554IhddeAGnvO51TJs2Dc/zUEq9pG7/BJBRFOH7PqVSicHBIVatWsUdd97JnXfcQW9/P/mRESqVyh5/NsCUKVP42le/wnnnnttcSE0QvjAJgoByucydd97FJz/1KZ5fvZoojvft6aLs7urmnHP/ivPOPZcjFi7E8zwcxxljWr5ckmjJxNmUz+fp7evjgQce4Le/+x2PPvoYIyMj+L6/25qxuukIwSWXXMJXvvylJvOmCcI9W5RBEFAoFLj6h9fwxS99iaGhoT3Sfsmwzp49mw9+8BIuPP98ZsyYMeZctz9KEnYJgoBiscjIyAgPPfwwP/npjdx1553kC4U98rAaY0AITj7pJK65+irmzZvXXGBNEE6+aHzfZ/v27Xzxy1/mhz+8hnK5vFuLrnYop02bxof++oN87G//tpo21EhB+1rnTqVSwfd9li17gK9/40ruuedetNa7vSkl43LQQXP47xtu4LUnnNBcaE0Qji9aayqVClu2bOET/+f/8oebb95t76cxBoEgk81w9nvewxWXf4GpU6ceUGOTOGpu+s1v+Od/+RdWr15jF9EebC65XI4fXXstb3/725oLrgnCXUFULpfZuHETf/3hD/Pggw8ShuGkC6yqDQwcc+zR/Ne3v8PSpUsO+LEqlUp88Utf4hv/8U1KxRK7i8OEh/rtb32L89///mZicROEVhINuH79Bs6/4AKefOpptI5229RKpVJcfvkXuPRDH8LzvFfU2K1c+QwXf+BiHn30cdgNPNnlJnBcxde+/BU++tGPNEH4SgdhwoDZuHET573vPJ5avpwo3F0AwrHHLOXqq67myCOPeMWOYalU4mtfv5IvXH4FUTS5+W5Nd5BS8tWvfIXLLvubJghfyQD0fZ+enh7OPfd9PPbk4xi9ux5Qw2V/cxmf/cy/0dLS8opeRInccccd/PWHL2Xjxo27OwEgBP/+jSv5yKWXNkH4SpRKpcLWrVt53/kXsGzZst2OgbXkWvj617/KRRde2ETeTrJhwwY++KEPceedd9kFthtnas91+d73vsv7zjuvCcJXkgRBwI4dO7j0Ix/lDzffPGkQPol3HTRnDtddew2vO/nkJuImkFKpxGV/+zGu+9H1CGHPgJMBsbWtlRt//GNOO+20V5yz5hWZd5IUW/rC5Vfwh5tv3u3g8xELF3LbLTc3ATiJZDIZfvD97/FP//gPKDU5iVsIQSFf4AN//SGefXYVrzS98IoDYRRFBEHA1ddcw/e+/32iKKr7eoOJHTDHcNstN3PIIYc0UbYbIoTgs5/5Ny7/whfIZDKTOk6NMWzt7+fc885jYGDglTVWryRzNKFj3XXXXfzVuedRLBYnfY8xhhNOOJ6bfvUrurq6muh6AWN+1VVX8Q//9EnK5VLdTc8Yg+u6nHHGX3DDj370isnWV//2b//2b6+UBREEAX19fZx/wYVs6e+f/A3GcMzRR/Pbm26iu7u7iagXKIsXL6ajvZ37lt1PFEYTlv5IMv/XrllHe0f7K4be9orRhGEYUiwWufDii/n97/+wW+eOww47jDtuv43p06c3kfQiJGEj/cc3/5OvX3klw8PDkx4Dstkst95yM8e95jUHvKPmFXEmTBbBNddcy+23/3G33jNr1ixu+tUvmwDcCyKEIJVKcemHP8TFF11Ee3tb3dzJZL4uvfTSavZKE4QNLpVKhVWrVvEf//mfk+bEGQwtuRzXXXtN0wmzNxealORyOT7+dx/jtFNPI5fLTajhErN0+YqVXPHFL+2VOjhNEL6MEoYhg4ODfPbzX6C/v78+AI0BI/jyl7/E6085pYmcvSyO49DZ2cmn//VfOfKII8nmspPGZv/z29/m3vvum9R8bYJwPxVjDIVCgZtvuZUHH3hgt8o0XHrph/jgJZc0EbOPJJVKMWfObL7whc8xZ9ZsXNet+3q/UuFT//wvFIvFl6SWaxOEe1ksL3Qz3/zmNxmJM8InAqsxhqWLF3P55z/fRMo+lkwmw+JFi/jwhz9ER0dH3apsQggefvhhrv7hD/eovEYThPuBGGMoFov8+Cc/ZsPGjfiVSt0ziOu6/OCqH9Da2tpEyT4WIQS5XI73/OVfcvrpp5HJ1K89o7XmP7/1bfr7+190ickmCF9CCYKAZ559lp/e+DOKxWL9HdQYPv/5z7Fk8eImQl4iUUrR2dnJ333sYxy6YH7dPExjDJs2beLKb/w75XL5gNOGByQIjTHk83l+/JOfsHXrVoIgmPi1GBYtWsxHPvzhJjJeQhFC4HkeC+bP54N//UHa29snNEsTb+nPfv5z1m/YUHc+myDcT6RSqbBi5Up++9vf4ft+XbCm3BTf/e53mt2FXiYg5nI53nbGGbzh9a+v267bGMOO7Tv4zn/9F6VS6YDShgckCH3f58c/+Qk7duyYcNdMUpPe/e6zeM2xxzYR8TKJUoqOjg4+cPFFdHd1TegtFUIQRiE33fQb1m/YUHdzbYLwZZYwDFm3fj2333573YkSQtDV0cmXvnhFEwkvoyRm6aJFizjzzDMnLRA8NDjIjTf+jFKpdMCELA44EPq+z3//94/p37qtrifNYLjooguYOXNmEwkvsyilaG1t5a/+6r1MnzatbuywXKnwk5/+lL6+LQeMp/SAAqHWmsHBQW677Tb8SQLz06ZM4/984hNNBOwHknBL58+bxzvf+U6y2fpMmm3btnH33XdRqVQOiLPhAQXCMAy57fbbWb9+/aS75AUXvP+AKs7b6KKUoqWlhXe+80ymTZtal+BdqVT4yY03MjQ0dECYpAcUCIMg4IYf/xg/7po0nhhjaG1p5dJmSGK/E8/zmHvwwZx++unkcrkJXxdFEcuXr2TFihUHRLjigAFhFEX09Gxm5YoVlMvlCV8nhODdf3kWc+fOba76/W0xxpkWZ73znUyZ0l23aU6pVOT2P95xQIQrDigQ/urXv2ZoaHjSVKUPXHxxc8XvhyKEIJ1Oc8ghh3DEEUfWjRuGYcidd97Bjh07Gj7D4oABoe/7/OIXv6jbP8IYwzFLj27GBffnBSklLS0tvO2Mv6CtvW3CuYyiiPUbNvLkk081vEl6QIBQa01//1ZWr15d1yEjpeTiiy+eNH2mKS8vCDOZDMcffzyzZ9ZPdapUKtx7330N7yU9YED453vuoVyuH5bwvBRv+V9vbq70/Vxc16Wzo4PFixfVrbjm+z4PP/wIhUKhCcKXW4Ig4Ne//jVBnWYkQgiOPnopBx10UHOV7+cihKClpYVTTnldXU5vFEWsXbeGtevWNXTgvuFBqLVmeHiYBx98kGiCiTDGoJTivWefXTeBtCn7yaKUkmw2y+LFi5kxfXrdmGE+X+Chhx7eraoJTRDuQxBu3LSJgcHBCV8jhMBxHE479dTmCm8QUUoxpbubww4/vO650Pd9Hnv88YbOMzwgQPjkk0/V7Z8uhGDqtGnMmTO7ubobZWHG2vDoo5fWBWEYhqxZvbqhnTMNDUJjDEEQsGzZ/XXpS0opXnPMMXXjTk3ZvyThkx69ZAme500IsCiK2NLfz9Zt2xo2XtjwmrBSqfD444/X3QVd1+XUN72p7tmiKfufuK7LggULmDplSl32TD6fZ/XqNQ0bL2x4TTg4OMjGjZvqasJUOsVxxx345dQPNFFK0dbWxoIFC+qCsOL7rHxmZROEL4dEUUTfli3kC4W658FcNsfs2bObIGxAcRyHww8/vC4IwyDg+eeeJ6hD3G+CcB9JGIb0bu6tf4NS0tnRUZeV35T9V1zX5ZBDDql7lAiCgM29m5ua8OUQrTU9m3vqmqJSSmbOmtk8DzagJKGlgw86qG581xjD0MAQYRg2pCZs2Mi1MYYoiti8uXdSz+i8ufNechAmJfgPpKpgmUzmJSc7OI7D1GlTJwVhvjBCuVxBa13XdG2CcB8s9C1b+uqC0HVdDj744Jf8PNjf388xxxxDpeIDjQ/EKIr45je/yfvf//6X9HuFELS1tZHLZhkYGBh3HrXWlCo+hWKhIce2YUEohCCKIrZu215X2yilmD171ksOQq0127dvt/0T7I7R8ECslyy9L+c5k07T1t4OPT0Tviao+OTz+YYsd9GwZ8KkicvIyHBdgLmuy5TuKS/XVnHAAPDlkiRo39nZUXeeQx0xPElCdxOE+0DCMKQwUqg7gY6jaG1rfZnCE6YJwL0gSilaW1rqzmEUBBSKhYZkzTS0JgyCAD+ozxlUUpHJZJoxwgYVIQRKqUk7NxlgZGSkIbv6NjxjJpxs55Oymb50AAAxk0nXBZdUikrsHW00aXjvqJ5k1zP74aQk8a/9UaIo2q8Wcm12jBBiQiDKuFdFEitsJMun4UE4mSqXUu135klbWxv33HPPftcJSkrJRz/6UW6++eb95pqStmjJfE8kSqm6IG2CcB+JUgo5SRDe6P1rZ0+ue8GCBTz33HOsX7++GlxOPL6JaK2JogjXddFaEwShvWcpkVLs8vowimJfkEYIWT1PBUEQh3Q0CAMGtDF4rksYaQSQzWV5+9vOoKWlZb+c68AP64LMUU4177DRzv8NDUIhBCkvVfc1UaSrHXz2NybFL37xC2666SakVAgRm9daE4ZhdWf3fR+tNb4fkM/nmTJ1KkpJC65KgJACpSQ60lSCgGKhiIgBmvJSKNehXCpjtKHs+6RTKVyl0FgA+36IlJJp06fzv958+n45z77vUyqXUEpNWEvGdV1SqVRD0hMb1jGT9JnPteTq1hkNo5BCfv9kUhiTmFh2d7caTuK6bpWWF4YhlUoFz3NpbW1FYBBA4AdoDFGkMdr2WkynPBzHwa8E6MiCLAoi+1zg4yg73X4QEIURfsUSnh3HIZ1K7ZdjpLWmUqlQ8Sd2ugghUI71gjcaZQ0OAE3Y2tpa10zRWrNt+7aX3CTdnR050X5SyupGkpiYStmzbDabrd5bssDK5QpSKJBx80ytUdIh0hohBdlspmqqCyEYHh4hCMLRM6gQ1oyPdPy9AikVUN+MezkWuG19XiCfzyOlHHcepZR4rkNLS0tDasKGBqGUku6urvpMijCkb8uWfQ7CSqXC8uXLeeSRR1i7di29vb27VYZPSlkNMCcxLt/3cV0Xz/MAKJVKCWwBgVASBJjI2KeksBpSWEeU57l2TOJ9yXOd0c8zEEUhFd9HCIEQFoBSyMkwyPXXX8+KFSuYNWsWS5Ys4eijj6arq2ufjmsQBIzkR6iUKnXnOZVKk81kqmZ8E4QvkSilmDZt+qQg3Lhh4z6rS7lx40auuuoqbrjhBlavXr1H3rkwDNFao5RCKRWf/XyKxSKpVKqqJcMwsmDVEUo6VoUC2lgN6CiFNqA1OMqLf1pNqbXG9dJgBKmUSxhEuJ6LEVbTOsrBS7kox6mLQSEEd955J3feeWf1uSlTpnDGGWfwkY98hBNOOGGvL35jDGEYMjgwQKlSmpANo5QilUqRa1BN2NBnQiklM2fOmDThc8PGjXs94bNcLnPllVfy6le/ms985jM8//zzL+geElM60YKO49DW1kYqlUZrg1IOnufhOG4VqEIowtDgOGlrRgqJchxS6TTpTBqlFI7rIYQinc6QzmTJZLN4bopUJo3jeKRTKTwvhVIOjuPhxlq3HiB2vvZt27Zx3XXXcdJJJ3HBBRewadOmvQ5C3/cZGBzE94O645jOZMjlck0QvtSilGLGjBl1zypaa7Zs2WKzGfZSDKm/v5+3v/3t/P3f/z3Dw8MTLtTdAaHWesyZzxhQjhMH8wUIgeulEVJhjMQIG6JIpzKk0x5SOBht8FwP1/VwnRSZTA7X9Uil0iAEAoGOIgtox8NxXVLpNK0tOVpbW2hvayOT2bNKdDvf6/XXX89xxx3HPffcs1dBWKlU2LZtO0EQjHukSBx0LS0teJ7XkPTEhjZHHcdh1syZkyZ8Dg4MUCwW98p39vX18eY3v5nlTz9dXQQvFNxa6zGxwCiKCMIQ3w/YvHkTpVIprpk6gzlzDsJ1U7H2lHgpj43r17J580brwMm1cMTCRWRy2ZjEYDM4BgZ28MzKJ4kia9IeethCurungxgNcAskSr5wDZIwVPr6+jjjjDO48cYbeetb3/qix1prTalUpq+vr+ZcvKt4nkd3V9d+6+GdTBpaE0opmTJ1at16olprCoXCXqlLWalUOPvs9/L0009Xz2V7Q7smZPQwDBHA5s2bKBQKVYBu6dvMtu3byWZytLe3097exsCObWzatL6qSQv5EVatWk46nSaXy5HN5dDasHLFk1UqVxRFrHp2BUEYkEp5yJhXa4yJ70e8qHsQQjAyMsJ5551nx+hFjonWmmKpyKaenglzGZNUp9mzZ+F5XkOGKBreHO3s6GDG9Bl1J7NQLLJ8+YtvrfzJT36Ke+65Z0Ltt7umUOIkSs6B9pxnQaANu+z6tobKDpSjkI5DOpNjeGjXsv/5/AgAruPiKBffLxHt1CTHGMPI8FA89QKICe5mdNPaHRnvXhMgDgwMcM4557zoJOAwDCkWi2zcuAHf9yfciLPZDPPmzavbwWl/loaPE+ZyOY466ghWrFwxoaarVCo8+OADvPusd71gvuby5cv57nf/q7rYJgL8oYceyqmnnsqCBQsmLN+eTqer55eEyaO1BiFwHDluPCyVSuO4Lp5jww+pdGacBaloybUgYwZNS6513O/PZnMxZS3eBIy279Gaiy++mJNPPnnC++vr6+P+++9n2bJl4453AsQVK1bwrW99i0984hMvaLyT82D/ln42b5443JPUJp178MHVkE4ThC8xCF3X5ZhjjuWXv/p1XRA+8cST5PN52traXtDh/bOf/RzFOjVMpk2bxhVXXMH555+PEIKhoaFxwZo8t337dorFYuyMMRhjr0kKhxkz59CzaX31tbbs30LS6XRsQiqOOOLV9PX2UCoVq2Nx9DGvoaWtNWbUhHR2Sw4+eD4bNqytfn9nVzfTpk+vsnWEsGfrKDL0b+3nta89kRNPPCkZ4OSiYwcPZLIZMuk0y5Yt4+Mf/zgPPPDALpZB8vsXv/hFLrnkEjo6OvZ4vJNjxOrVq+uWrbDnwW6mTpvWsBX1Gj7RznEcFi96dd2zQFIkuG/LFqZPn77HaUSDg4PcdtutMVDMmE3AGMP06dO57bbbOOSQQ/jhNdfym9/8hv4tW6rEaWPsAgrDsGqCJjEwx3EsXzQyVksL6OzsJpVKU8iP4KVc5s87jClTp1aBoBxFa0srb3v7WTz77HJKxRJz589nzpy5MYHbkEp5KEdx4kmvZ/r0mfT199Le1s7cg+djhMBoq7G0MYi4TMgHLvkooFHSxaCRQuK4jgUsIAWkXI9jjj2a899/DnfeeSdnnnkmt99++7gm+rZt2/jTn/7EmWeeucfzGkURpXKZlc+spFAYf/OTUpJKpZgxcyaZdKZhOzAfECCcPXsO7e3tFIvFCc8qhUKBJ554kiOPOGKPQfjHP/6RwcHBmGY29nOFEFx77bXMnz+fj370Mp5+ejlahxgj0CbEaNB6lBEThmE1u8GaowZtiAP2DlqDUIrOzm7mzD6YTC5LOm1jf67j4rgOQgokglRnOyee9HqM0Wgd2cwJBEJAEEW4QiClYOERR3LYqxYSBhGRDgmDkDAKcYxrrxW7uUSBRkhQEnRkqERlMqTjezagHIpRmbv/dC+PPvo4n/vcv3DjjTeyaNEieiYownTDDTfsMQgTh1ShUGDVc8/X7T2YyWRYMH8+uVy2YddwwzeEkVLS1dXJokWvnhBcQggqlQq33HLLC+pjd8stt2AY/yx43HHHcfrpp/PVr10ZewRNXNwpQkmJ1lGV/Z8wYBJeqNaGSBuUdHDdFI7rkslkyWayZDJZ0tkMmUyalOeRzqRJZ1J4noeSCuUoXOXiOArXdcikM3ieh+c6OK5D2vNwXQdXOShH4UiF6yocR5HNZMhksniuYwP2QiCFQiqrtTURBoHreFWvqo7J8MRMOT/w+fKXrySTyXDZZZdVx3nncb/vvvvqhhcmkkKhwPPPP09PT8+EDjWlFK25Fo5YuJBcLtewJUwaHoRCCNLpNG8+/XQcd2INlzST3Nzbu0ehCmMMK1euHLdgkxCCiy66iJGREW699RaM0fiBTxgEBGFIEEaAIAzDKkVtlIbmkMlkSXkp0mkLMMexYMtlsrS1ttpgeksrmUwaz7XUslTKI5NJk06nSaU9m0fn2P+5rovjuShpgek4Ll4qRSadJpV2SaU80qk0UklSKfvalOfZ9zlJTqMAI0BoIh3h+wECQRhGgHXiOI7CGNixfQcPPfwo55xzDplMZpdNyhjD1q1bGRoa2qM5DYKAkZER7r//fgYGBib0RHuex/SZ05m/YD7ZbLZhQdjw5mgyGSeccALZdJZyqTzuZIRhyODgIA899BCHLFiw2yZp0vlpou9etGgR69ato1Qqo6MQ13EIghA/rEBgOZyh1riuh1IOQkpcF5Sy3y+kwlEOjueSTmVIpTwc1yOVSpHJZshmM0ghMXFwXQpZ9aAm16e1TYeqPidt+EE5oMMIg7E5hxqC0BK3EeCFmjAMcF3HbgxKoXVEpDVSCJSUIAwGDRiMNjiuxGBwlaRUrvD00ys47jXH0NbWNq7GC4KgbqgiCc8kc5aY7INDQzz2+BN13+t5HocffjjdXV0N3ebggKiApJRizuzZHHTQHIaGhyb0pPm+z003/YZ3n3UWqVRqwp2z9v2TVe/KZDIUCgX8+NwShBHG6KrjQyqJNMnvMdvFdRHSOhHSqRRCKVzXI51O4aVSpL0UqVQKz3PxPDcmbYNAgDBVMCaHVK00RmOdKNp6PKPQpjXpOFyBUTYkgYPRtvZOJpOmUgbf3ihKSoTjopRDEIbVVKvIGIzWhAYQEs9ziOLXl4qlMSAaT3auW5NYBomZ6cRaPOHG5vN5nnnmGdZvWD/heTAJTx29dCltbW0NGaQ/4EDY2trKm998OiuffRY9QWC3XC6z7IEHWPXccxy9dKmt3BwEPPzIo9x5xx08/PDDbNi40faQQIO2XsyNGzfW/X7rSAgQUiLj4LfR2mo7IUilPAyy6nxxHBfHcZAx+19KZQnVKQ9HKhtHTHl4ng26u55LFGnsOrOOFx3nECpXEYURQtnnjYyZL0IjpQAtcTx7JlWxB1OkbKkL4we4cRdco+3GEcXAFhKEBqREhIH1qKIxWltiuaOQEqSqbwIaYzj99NPHeC4z2SyzZ8/myCOOZMmSxRx22OFMnTqFrq4uHMdheHiEW2+9naHBoQk3QKUUXR0dLF26tKFN0QMGhGBNkzPPPJMfXHU1g5XKhD0L8vk8P//5zznsmDlrdwAAIABJREFU0EP57e9+x9e/fiVPPv2U9cEbjYYYfBqMGfUM1pEkIz4MQ6SXwhhwPS/WFk5cB0fiOg6Ol0JJSSptNbHn2gyGlGd/enGZBtdR8VnNwXUdpKzVyAKlrOdTIHFdUTVJqxOr7LkwjCK0NvaztK0no7RDKAJLUgsMUSBx41CEjEIbFtQ2jCGlpGJsnpQx1lR1tEYogTS7R3Vbt25dor7sq4Vg+fKV3HvPvXR0djJv/jze9MY38qY3vpEZM2fSs2kTjz76SF2+r1KKY497DXNmz274kpYND8KEd1ksFhkaHJp0Qnzf5/obfsyf/nwPDz30ULw2ROLTjL1/ZnQ5i0kxOAYcRmsCHcY7v0QohVI2odb1XKRwkErieWkEglTaejE9z4s9nA5SOvFPGWtMidYGKYzNnhejCzH53iR8IkScIqUsgduaaRFCKIwQKB1VGTmOYws+aU9jAoGHIAhtxgVCoEWUpBEjpSLS1pNnDJj4NYLdHZtkHO1Fah2SLxQolcsMDA2ydvUabv/jHbznL/+StevW0ttbv9EPAk479dTYkmhs/2JDg9Cy7Ets27aNH15zLd/57ncZmsCJUvueLVv66O/fUl3MxAFrEwNQJ9FpzG7t9MYYisWiJZILgdZgjLTmpOOS8izlzHUt5SydSuM6LlIKa4I6LplsinQqVQWgkgoRg0VECfDEaIijqvlETV6iHrNzJBkX1TObEGjtonWE6zlEYRxgNwapHBu+waCFhDAg8C3QlGNNXilBR7ZGjeM6Np5o9qxigam5QrC82VKhSKVUZmhkxHqisdW0635OZHjmmWd43cknk0ql6p7xmyDcR5IE4Ndv2MDll1/BbbffzvDwcA0Zus4mWqVjxWrOmHjxxRs1MZNEsNu9JJRyKJd9WttSpFIZpFC4noeSknQmjRASJaWNyzkKN+XiOg5KKdKptPVEYiunCSGItEYJ69VMNJcxBiUlUgi0SFhlEiGMDbjreJEL7OcZoIbJYh07cUK0EGgh440BZBAiMmkCX1GplAkjC76qNnMkOtRIYazDx2hMCHuGQbMLEpNtLsmYsIpSTFrA1w98rvzGf7Bm7Vo+8+lPM3Xq1IZtd9CwICwUCqxZs5YvXHE5f/rTnxkZGdmzysuxpjMGjBCIRPsloEsW9iS26LPPPku5XKZcruC4Ln7FJwzjeGAU4bgOYWwCusrB98ukUmn8ShkRhxscx4mdMDbQnmguIaXNc0hCD9oglMRoW1e0qlLM6MZk798gpIy1JdVao8lrI63RUYTREOmIKIyITEQU2QpsFd8n8AMMhsAPiHSE0ZoosvmPUtmNQErJ+o3reeyxx3a/fIhILljE5rOJ90OJrDE8JptHYwylUpGbbvoN5VKZL33xCmbMmNGQmRTCNGDJ4lKpRE9PD1+44gpuu+12duzYsWc1ZOJbNtWFaV38RhjrlEm04yRDU+ua35nAXC/Vp/r/qiazak3GJmfy94uYVna/MWnsfDLWGVUtKDzB/Y+npWqzPiZfTvYcaQRjTWUp4vOn3KO0RikluVwL73rXmVz++c/T3d3dcI6ahjvRRlHE8PAw199wA3/+8z0MDQ3tcREnE8e/kt6BJmaImBiAJjZPJ8eyqWbHJ4vXVAFudnnES756DYlDhQSPcTmLPcLQBMDao9clWRJxKQwxejW7bCbj3V8tKX03YV89EybXIEyCzD27cZttkef3v/8DP7r+eorFYrMr076WYrHIgw89xE2/vont27fXJfdOJCI2QataAF21QhOtsC86XAshEEaAlMgq4ESVdD2q/cSLSXLfkyuyZzApYyDWOnFkHBvc281VzOgmk5wAajem2iPBHgBxeHiY7//gB6x85pkJE4CbINwLEkURQ0NDXHvtdfT09taNI020MyeaThB7RG1B+HhB2Of2zXqPu/bGGRAmyXhgdNEn4YCXtMd9NThvgWhkvDGIRAvKfdDnVGDEqNlfHft4bkbPjbsvQRCwZUs/X/va1yiVSg2lDRsKhL7vc9/997N8+XLLaplkoFtbW5FKjoFgVQuaUevHevjixSD2iQq0VlaVehaf/0SNx5LqC3iJ1OBYIIJlx8Qe1aTcRtVc3pvaMHbhitqt0Yw+bydEjLuh1pvzUqnEPffex2OPPd5QfQobBoS2P/0Iv/zlL9kxMFC3XowxhsMOPYRl99/HKSe/bnTiqiGJZOJNzQ4Mwnpn9v4aNwYjoarrRLLQZQ3u5B6fh/bFdQpZczasFn/a22My6okeDZ9Q3Rh3/j4hBC0tLUybNq1uCYskXnvDf9+w1+vMNkGINUV7Nm9m1arn6pobxhi6u7v5n5//D4cdeqiNPVVnM/GIWmeMGF0S1kwV+8AUFAIjEhM0ZrYIEX+/qfGE7h4xYN+isMYgFrVakKorZS8ifnS/SzZFYaqbY60N7DgOF5x/Pld9/3t0TZIxUalUuPOuu9iyZUsThHtbgiDgiSeeZHBwsO7BWwjB1776FRYufBVBEFDIF0bDCLXBYhHHCGMzSDCKv9rOsC9a4uC/qQk9CENsjsqqHyKp+bJfPBI8Vj2lInGV7r0JNbUn4FFzdIwxEAMxnUnz3rPfw7HHHsvH/+5j1RYBE23Ww8MjPP74Ew1jkjZMQCUIAh559BFKk2TGL1z4Ks58xzuqE1ILJGFAx4F5bUZRMuqQsa/NZLK2PZnW1Yz6akixhs5mF4+OGSiyim+ZNFqJU46S4LaQ9ncR731CippNYbSoUjWeWKMdRXUTqUkbSszp2tidGbvZ1H5OUtipOh41gQKr60Y3K2MMOtJEOsmcsEF9G46xf5uaMdNGVzexpHIAMFoSJGbpCCEoFuPzfKIKa3fA2GKoOouwmjCVSpHJZHjXO9/JdT+6nmeffbZuytqjjz3G2952RkPwShsGhMVikdWrV09YKiFpJ3bRhRdWWRNBEOA4zlheZQ34qjGqZGOOF84b3vRmpk+bhtYG368QaU0U2mz8MM7KNzWlCpVjeZ5KyDg9yfYJtMWHlO0lEZeZSDIuhBRVDRxpDcKCN4riDI4q4GSVz5qET6w5ZuLED13FcOJYtGCzwE/2DG0iosjEm4CJGTc2G8MmSWiUkkSRjqsAGIyJ8H1bj6ZSrlAqlSkUSxSLxbhnYJkwCDGRtjQ2o1FS4Xi2SU0YaVzHBWxepet5pFyHP/z+JoyxmfqmShVMFOQosE2yMcTX5zgO7e3tvOH1r48TqUsTasOVK1c2NeHelKQG5Y7tO+r2lHAch+OPP74a6wqCYEymAdjannGi+KhHrqqJ7OeGQQXfr8TJp1H1kJ/QvZACdLLiqX6PkBJXKcvA8Rx0FOF5LlEUWhC6DlLIMZrCGBNnsmMXvkU4MNqbwr5WI1CxBrVlKIwZ1cTJPdrvUtbTiYnLUtSeOU01nUhKWfXOGiwvNQw12kRxCzVNFIXxZuRb4FVKFPJ5KpUyvu8ThAGlUplMOmWJ7xhUScUOHktit6R0m09owqCGaB7PS0KciK0UIfQYGlutNkulUpx00on85MYb64Kwt7e3CcK9LUk2dj1T1PM82tvbq+ZZGIZks6NVuEx1tx2lUybe0Vqv6O233Tzmc2vL+e1M25rwemLvp11Aseapyad76YjGoxkVexw7i01jbUDEuYQmievtxNyu1y15PNZN9XqqpnfNeVBT9VYk7duStCwpJdOmTiWbTjNYZ9MeyY8QBEHdFglNEL4Aqe1gtOua39WZIqVkxowZOI5DELfWik9yYyetxik63mIdr7Bt3QVdbdCprQkoZTUwLV9EA5mXWgTE2m1nmp+ZcJOaCBT1Xp+cLRNTdPSkaj20bW0ttLW2jQG0M0mNUaNNw2jChvGOJr3cJzpoJxzGkeHh6gR7nsfChQvtGbGGKjU6xWbSBfOCFm9NYL66KSSUUDGa/7e/PxJIjBmnCYjpeyLjE8Nr/h+D3TpnFLNmzSaXy9os/0qFrdu21Y0DSinJxa3SmiDcWzty3Hmnrb19wirLQgh83+fp5SuqIQzP81i6ZMmY3nu11SpGfTR7MT4oBEbEGeiihgRt4sXdQNxiG1Kp8Z0aUePK2rsyStcdJXQbYQthvXrRq623Og7GP/3003Upi0IIpjdQWfyG0YTZbJb58+aSTqcnPH9EUcRPf/pTSqWSbRPtuixcuJAZM2biOorxmJl7ezmJ6hlHIJFVUAoRkwEaLOe0mlFRm+u3j7itYqdKGAJBS2srp5z8OjKZDL7vs33HDpYte6Aucd91XQ4//LCGSfBtGBB6nseSJUvJZXN1nQAPPPgQDzzwIJW42FN3dxfvePvb8LzUzifBat+GvcqSEbvGvkYThBoudbOGN1oTzqm9z30gumbOj16yhCOPPBKlFENDQzz4wIOseu65uoQN13FZsmRJw9SeaRgQOo7D0qVLaG9rq2uSah3xmc9+hk2beqhUKtXK17Z4EaOFnPYFHsQozKQQGFnjZBD7goP5EqGQ0aTbZJz3vtTGbeOfUrB06RLA1px59tln+cFVVzEwMDCh00UpRUtbC0uXLG1qwn0BwoPmzGHu/Llks9kJd7kgCFj13PP8wz/+I+vWrefhhx/h2uuuoxIGFnxjHABmt3f03ZnQxBQVNWCsZkow1hu4Pz/GvzdRdSqNknD3DRSrP43h9tv/yKrnVvHUU0/x1a9/nedXr55QCxpjSzsed+xrOPjggxpGEzZMiEJKSXt7O3/x1rfydJzK5Ncp8nvX3Xdz4UUXA5od23cQBWENVd/+FLUUr8kWRzzBjuNQqVR2Xaw1mQdCyrgKWawHa0oDGmNwhEDtjlbciylEZjcSlQUQAiF6NNGoeha0QX6hFEbE5UDGxAtH45FJA9Tk3LZH3tOafEI/CFi3fh3/8c3/pJDP8/zq1dU24hNtlLlcjvPOO7ehGoY2VJwwm83yhte/gV/+6ldV9sx4kpRCfPKpJ6vxumR+qZauMHt0QktaoC1ceASf/NSnCcMI13VsQF4p0ikPz0uTTrsUi0V+9vOfxi720ZJiBvCE4N+7D2WuM3FBIgN4OYdMl4t0ago67ZyBL3Z6U3yTVX7rTjfo50PKO3x0ZCaE4RN+nk/uWDf62aPxFgSCt7/tXbS0tFAoFCgUigRBSBD4hJGtURpFERdfdD5vecvpLFmyZNLShfUkCiOGh4ZZtmwZwKRkjXQ6zeJFizjh+OMbqs5MQ4FQKcX06dM495xzWLNmLZVKpa5pUv1dxyzEpMJ27Q6/G0gUQtDV1cWb3vQm/nzPfQip8FK2kYsxgmy1bZktZf/IIw/XBJZFdSEbYzgh084iL4cZJ3PJGIOTUmSnejgpNZrKJ4VNN5SC2qSGscE1Mxp+MfE963jnSX52OJjWFOWhgPJgYJ/fCcinpNs5Id3KsvJwTT5hDAqjWbduDccd91qCICQMNQjfUuCiyLqehOaJJ5dzySUXcfLJJ3PzzTfv9vyOl8wVRiFEYrfWRkdHB//74x+ns7OzoUofNlRmva2sleP0007j1De9ifb29kl3vFF9p2sW6Sj7Y3fl9NNPp7W1lWXLHkygaUvCOxLp2B4TypGUy2WeeWaFLQkIY+JqKSH5YOvMXQCYaK5Mp0fr7DRORoESCFdiXAmuwLgS7QiMIzGORDv279GHrPmfGH2fI9GuRCvb2QkFmS6P1lkZpLcT0yXW1u9rmbbrRhSTydeseR4/qNjMECXtAjLWtBcCHOWyZcsW+rdu45JLLqk2Q92djW5CZO6GZDIZ/vLd7+b444+rFlluFGm4uqOu69LZ2cnf/M1H2bBhAw88+GCdnuZ2cWiSnL7RpFGbzif59Kc/TT6f57bbbuPJJ58c93OklJx11ln09Gxm7dr1mChCKIWUCiWV7QkRpzP1bd5EEPgIpeIAfbwFGMPSdCuHOGnGpswZhBLkpqbxWmwDGeEIpITlusIjfnlMIYjdcrCaXf/OCMGZTgtKW/K5k5a0zclQ2FLBL4RjiNxL3BYWezme9AtjU8Gw1Q16ezczbdpMC0wp8TwPPwyRcfu2YrHMffcu4+STT6KtrY2BgYFxL3POnDmceuqpjIyM8Otf//oFO3s8z+P444/j7//3x8nlcg3XJq0hi/inUinmzZ3LP//zp1i4cCGZ7EStkke5arrGBZ7kCJ5yyin867/+K1/+8pf53ve+N6E3LZPJsGjRIh566BEKhTx+EMSOF+tt1cYWi5JSsuq5Z3cx4xJ5Z7Z7FwBKJWmdmcZrdWyTFU8gHYHvCB4JKhS0Jm9GHwU99pHXmnxkf1afN/aR15F9H5qtJmQlPtK1IE/M2pYZaVJtruVtxgnIUsBZLVNr/bmj4ykEa1avRimJ6yqbGiUFjpSjvRIFPPjQI+RyOV71qldNqJXe9773cdVVV/Gd73yHQw89dHT8k0wuJi8ALKXkqCOP4t+v/AZTp05tKIdMQ4NQSkk2m2XxokV87atfYfGiRbS0tIw/2bV80Tg4L2JgXXnlldWX/f73vx+3fqkQgle96lV0d3fz6KOP4vsVtNEEQUhkbMKrI22KUrFYYtOmTaPVsWsWy3TlcUKqtdZ/gpCC1lnW/BSORMQAEa7gQb9IQUdxvReqxOmCH9EzUmHl9gKPbBnhgd5h7u8d4qHeYZ7Ymmf1YIntpQA/Gs2fFNhj6UNBmYIySEfY75PWOshNS5FqcatFroyBY70cOalGzekaX1Bf32abMC1t++2kJ6KUthdiFGp6enooFIqcfvrpE87jrbfeShAEdHd388lPfnKUDSUYk248EQABjj76aG64/jrmzZvbsP0oGrYMfi0Qf/C97/HpT3+aO+66i+Hh4TFgqrI7TE2hS+Ccc87h6KOPrk7oHXfcMeH3nHbaaQRByNp162K3u8RLGbzINu/UkdWEW7duoVwuVbvwxnn2GAzHp1vJCGULLNrOM7TOzKDSFnxS2U5KKMGwiFjpVxAC/MjQW6iwOV/hE7OnMaXFgRbi+hg1yiKuGFdtfKQN3+vbTq+JmN+Wpt1TBEbzcFDiTakWhIhzK0PbXCU3LYWONEHRAr9TuByXauXu0mAN0cAm2RZLRYaHh0inc3GowhBGxvZDNAatI4rFIpt7+3jLW97CV77ylXFpZqtWrWJgYIAZM2bwjne8g+uuu45777sPPwhrbm3sATpxeCmleO/ZZ/ONK79OW1vbbp89myDcyyKEIJPJMHfuwfz7v3+Dn/3sZ3z6M59lcHCwhmqV5GePuu4zmQyf/OQnq58TBAHPPffcuJ8vpeQNb3gDmzZtYsf27VTKFVzPxWjb+y8KIyLPxtX6+7eMn2UAvDbVlriGEAIyU1I4WWW1nxLggFCAMtw9XGA4iFg5UMALBYEx9JV8vr+mj3NNetJjodCwQkYsMyUkglc5Hn/ckudVnRkAjkylme44aDF6/jXa0DI9zfCmElFgkAJOS3dwd2mwCoNkRLXW9PZu5pBDDkNIgXIcDD5hoEHac3gYap5+ejln/MVb6OzspK+vb5frLJVKrF+/nunTp5PL5bjssst44sknGRgcGm1VwE68VSHI5Vq45uqreNvbzmho8FU3+oa++liSZN7XHHdcdaLsrjkKg+qUGnsWOfTQQ6vv3759+7h96Y0xpFIp5s+fz/LlyymVSkQ6xPd9m+GvRwPLQsDWbf1jeJaJpITkCDdT5ao6aUWq3bWmp4odMcqeBdcHIb/rGeCOjQNsGK5w0exu3qos7/X5KGJtGBAEEWGgiQJNFJiahyYMIvI64lZdQRtYgOR9HW1MdySP9I9wx6ZBfr1jCGq+Wzii2tMwO9WLuzzBQjeLquZG1oAc2NLXa5NsxaiGVE5cUsMIoijiqaeWk06nmTdv3rjzZoxh+fLlVbL9a1/7WpYsWUK6tqmL2ZX0LoTh5JNPqpYuaXQ5IECYTOgvfvGLMb0IqmVjTE1jIim49NJLx7z3uTqE4ClTptDS0sKKFStsy7AwJIwiwiCsFj3C2HDFwI4Bdl4xxhhmOym6pRtnhwty09MIV1YBYAEoKYSaz67cxJqhEqE2nNzVyjwjmTIUcBgKLQy/lwESRRZFRjhkhUMu/pkRDmkc7pQhA0KTRfCWyKNn0zAfmzsdBQxXQn6+fhu39g2g1CgQcWwNVDfrkGq1aUMdStEqxzGWhGBoaJAoMujIWhg6dsqYuKy+1hFbtmwlCAKOOuqoCeftscceswtRSjo6OrjwggvI5WodbbueC/P5Avfdd/+BsnQPDBAaYxgeHua2227fpcJaAsbE8Hr961/P0qVLx/z/0UcfHTc0IYSoeu02bdpEuVKJe8VLpDPaM1BKS9EqFvOjtdHMaPWiw5w0XqwxUq0uKi2RCusNjYEQ+hG/37SD9UWb/eFKyYUHT2HDxiEk8Gbt4SDYhuZaVeaHqswPVYmrVZGrVJGrVZEfqhLXqDKPixAQvMF4dBlBvuTTVoo4qaulem8/6t3B9sEKSREm5djrAUh3uggpSCE52Bnf21gul9A6RChZJQRIacM0Els3p1QuMTIywrHHHjvhvD3xxBPVvz3P43Wvex2zZs2ysb54LMfjNv33j3/cBOH+JFEUsWHjRvr6toxlyjB6uE+MxA9/+MO7hCIeeeSRCduALVq0iEqlwsjICI6jquQAoxPCsw1RFAv5Mdneooa2vcDNWC2oBOkpni2ClGghKfDLIZvzZX7Uv6Na+uHdsztRO8qUigEuilm4TEOBEKwnZBUBq8yuj+cICONeG3Nx8VAoI1m3YYi/njOVtrjxZ28Q8NPtA5SHfaLI2MJQsWNIupJUu4tEcJiTGfVrJTuasWNeKVfQOkQbkHEFuNEqcIbAD+nfuo3FixdPGP5Zs2YNhUIBsDHGhJmUTluTdLxGTcYY/njnnezYsaMJwv1FgiDg/vvvpxL4YzRaTTdsALKZDG984xt3AfCzzz477uc6jsNRRx3FyIgtGqTiWFgCUC/louJORpVKJT4j1m4BdnhnKBdjwM05SG90sQspqBQDdGD4+fYh8pFlRXd4Du+e0UnPphE8FCmh2CA0m02IBN41vZP3z+rmvJldnDvDPs6b0cV5M7t5/6xuDs54aAO3iQqusO83ART7i5w5szO+MsEtQyP0RyGl4Qpam+qmYASk2xyEgHlOZtyx0VrHOZsKKQxhXJVNx228jdYEYcCmTZuZO3fumIJbtTI4OMiOHTuq45rJZHjH299OW1vbhAkuQgiGBgd56umnmyDcX6RUKnHvvfcSBsFYU3SnSTzllFOYPn36mOfCMKS3t3fcz1VKMX/+fPr7t+L7QVww2Go/qSRBEOCHflx2ocBoHcVRIBqgQ7p2YXd4lgOqbEC8UgqJQsNzlQo3bx+uFsf98IJpbFk7BAF4wgEkv5FlELCkNcNFM7o4e0oHZ3e320eX/fne7jbeO6Wdvz1oGq4UrBEBj4uQlFCkhKR3c553dbdxUMYDDPlI892t2xFKUhqqxOyd2CvsCJyMYuqYcMvYdKxyuRgzjwSOUhaERlfj7FprNm3qoauri66urnHHOAxDtm7dWt08HcdhwYIFzJo5C8dxa757rBhjuPfee5sg3B/EGMPQ0BArVjwzccmDGIznnnPOLufFcrnM0NDQuG9LpVJ0d3fT19dHuVyJy4GOVr8OA1uFOggCypUKYyLaNd+dERLlSZxsXPRXQhBoIj9COoJrtuwgioPx83IpjstlGNxaxhMOaSQPyoBeE5ISkktnTUEHBr8S4Zc1fsU+KhWN7xuCQHOY53FKewvGwK2yjDECVygcLelZN8xFc6dWTfUnCiWe8csIKSgOWjK2UIAUeK2KVuHU1ACvHffRcEVingoxarMqpcBA7+ZeHMdhypQpE2q1/v5+oriospSSlpYWlixZjOt51Mt2+dOf/9wE4f4gURSxdds2BgbHy7audjNBKcXJJ5+8y/vrZWK4rksul7M7tdFEce95Jz5XjRboE0RhNO5iEYALuFkVm6F24/CLIVIJ7h7K88RIESEEjhB8/LAZrH1mAMdIPCEZEXCrsBrn9M5WulH4fkTga/soRwSV0YdfMfhBxLlTO2hViu2E3CzLeEhcKRnaXmaRcjmu0zppAmP4zpbthLF/pZIP4vL8AjelSMmdi+XX1MfWFoRRXLRYComMzfMoMkRRyLbt2wCYOnXqhHO4devWMWfyVCrFiSeeRCaTmTAmKoTg6aeXk8/nmyB8ucWaPJuqZSzGnzHo7Oxg5syZu/yrWCxO2G47m82ilGJHTEB2HKfqDRVSxiaYjhN5x753jFEqwMmqatHfykgA0hAIuGGL/WxtDK+d2sp0H8ojAQ4Sz0huFiVGjKbbdTinu8PGCH1NWInih64+Al8T+hGhb+hCcdaUdrSBeykzbMAzElco1q8Z4sKDu1FxQeKNFZ+7C3mkgqAUEQUaFHEcc8Ihtd7h+A8pJbqavmWqDWRGRgoEQcC0adMmnMPBwcHq3CVJwYsWvZq2tjaqqR3jSH9/Pxs2bGyCcH8A4eq45MHEgVvBkUccSSazq5OhXrPRhMtYyBdQSuG6DlJa4IVBSBRFhGFEFEVx78HRaqbSVjnEYLPVnbRCSAh9TRRa4vGN2wboqVgtnHMU7ztoCo8/u50hoF9oHhcBD4oyQsB7pnSSNgIdgg40YWBB5/tRVTNGvn0+DDRBYPhf7a3MSbmU0fxE5tkoIrYLw5a8jzMU8JbpbdW0ruu2DjBsNEgoD8dnawmRJ8c0fqnViLK2UoGxIYqkRIYwtt5cEIT4fkBnZ+eE87czUSIxX7undNuS/nUSP8djOjWaNDRtDaw5unr16jrFYO2ufPwJx4/rJp8IhEIIstksURRRLJaQQqGkizHWJY9OqP4GHUWxEyFxzMRtv+IeF0WpUa4Fp58PEEqwI4r4zbbhanKurzX/8MR6SqFGK4jixS0MHJTyeHN7C2FFo0ML4jAwRKHtnGT7zoNxJI4RaCHQUpNxFOdM7eRrm/pZLio8jY8QoCQ460s4arRq+XAU8ct5Im2OAAAgAElEQVShYS5o7bCathzhOIKiM6rtxtYAFhB7i6MoQmuD7bitbcuPuCdHFIVUKhU6OjrGnx1jyOfzY+ZGCEE6nWbG9BkopQhjU3+8Lfa51c83NeH+oAk3btpUPdhPpAmPe81rxv1PvfqV6XQ67sVggSyVwFEOMiYQazMaE3M9b1eKVdzgZJgIoSQ60NbsknDHUJ5CpKtZEpGBYpz54AAZBDlheZF9fsBjI0XrfYyMLfEexjS1ih7VhKFGa0vINhrKoeaPA/n4XCrICYEXT3qEoRSNbcxyRz5P3miExJrMAraKcFxFJIQgk84ghYoTfk1N8xqB0ZrI2A5P9XpCaK0pl8tjQGjP3Q5z5sxGxcnI4xVNNsawfv36hgdhw2vCUqnEjh076vQdEEgpmD9//rj/rVe3xHZPsru7VJJIa+vCjzsiJQ4KqQTZbA6ZsEd2kj7jIyWU8pEFpoR3TW3nnuECa0plEIKUEPy/V88mWJXHLRlajEsWxTfVACtMhW/1bePyGTNoQVTLVpjIEIY2JicchVECExk7qwZ+vmOIxwtFXCH4mO5irlHkCRkREVMPbeHGwWGWbR+x51wBH502hTbHtjSLKpaX+nyxOMqirqlcrqQklU5V8weTnosqTn8SUqAjXe1xOFGZyvE0IVj2zOzZcyatnNDb29fwIGx4TVgqlSjkC3WbfyilJvTO1WswI6uJqrpqaSb9/7TRlqYVOyTS6UxNXKt2C4DVYRkdGcJKVC2J6EnBvx46kzbHAWOoaM1/r9/OScfNoEMqsgg8IfmI7qZLKAajiK9v2xazYUa73Cbhg9HjsP39oVKRm4aHbXEm08Yi0qSQ5FAccVAbA1nJAztGqq8/s7uDE9tySQNdwDqIni0Udyl9LwApFZ6bQkmJ6zg2/hmbqMpRtq+ixG4MkzRmGW8OlFLMmDEdR00MQiEEO7Zvb4Lw5RTL2vCpBH7d1zmOQ0tLyx5/frI4knIJSgp0qBExRzIIIsIwJAojUqlUlRWys+m0qlykVAnHUL+EgBkph48vmG4zEYRg1VCRb6/vZ8Ex3WD51EwRir81U5AIVvs+PxkZRkh7LTa7XZLyFMqRKAVKCbZGET8cHCQyhiWkea9pr4I12+EQHpTmG89srqZ2HZ5Nc+HM7tq0QZCQLwasK9meDzv38MhkstZUNIYo0ujI/kdJaZOajUEKBwe5W+UmdtaESim6Oruq3XonCti/mGpuTRDuJSmVS3E6zcSipJrQrEkWyHg99JLwg5KqGjtz4s6zBpu8SlyiIoo0HR2dSQvOMflvm8sVeoZKdpHL0aE3Ak6Z2srZc7qqLchu3rSDR4TPlHkt9hqAxf+fvfeOt6sq88a/a+29T729JLlpN510QjFU6YJYZpSiCDiKEhUc3hnE+g5OYQacUfHn/BwVxDGWd+K8jlNUZBgpjjggoJAA6RVIbspNbr/3tL3Xet4/Vtl7n3JzE4Ka5Cw+m3tyyi5rre96nvWU70MpvBdtkAQ8mh/FuqAA1+VwPY5E0kEi4SCR4HBdDnDgayMDGJICU+DhT6lTWWrBwF1g6opW/O3GPRjx1R66xXNw57wuJJy4S54BOFgqYSgQqJYh2dLSonybrl4AOLe5fQwqoghMxaRGi6JWa9Uy4g2plxo3ii0C0VYo5Osg/F02G7+I8UlyE65XE4RmAlSroef7viX9ZVo0SajS2UxPFCGkrQXf0TkprF8YnShS4IUBbQm1mpm0+YU3zZ6EM9uyAAAhCZ9ftxv+3BQy7Z5KEWLA26kJZyMDCcI3hwfRywQSCa6OFIeXcOAlHPyf3DB2+SUkGMefUCeamVKXiUnMOLMVX9m1H1uG8jpTg+GOeV3oTHhxB4TmGN1QjKeFRduUyVNAUNWLGeNgTFX2NVwaQij9XYgAnuehUCjUHJ9qriMANl/QlvWoMsS+EMdNHcITEoSAclF4hykYKan2II1X5cmUY06mU0raan+Y6zmqjr2UIEk6t1BgUudkvWrHiXc5GJ4cHQo7uyzE1GPAJxdNQ2tSPUc+ELjz17vQfEYzeIpBEIED+F+yE5PgIUcS948OIvCYloJKEv4mKOCJ4hiIAe+nNixDCoIIkhFa5mbwc38U/7VnAJwxSCJcM70d57Q12GwQi0KdH/jYaMiSFo0c5dzBlK7pthCnMMEODNqFIgEpQIyBcwfJZNJmSlRrmZpEXThuCqqe1CB0HAeO61ZPldGGFCllzaiYxsbGmoOv6O4lMum0ZmiTyjAjybKSSUj4QQARSHR0dCKdSpv5aBsD8OzYMIaFCCvdWpJeBcgpKQ+fXTYdrn6OXcN5fG3HPnSe0QzJJQSTaGAM/1tMRopx7CwV8c9jQ/CSioi4l0k8MNwPScAF1IC3ySb4TCIAIdHmYrTbw9+/uMe6XM5qb8AHZnVCyIjVM3Jffb6P5wqjYQXkyIYwm82ipaXJVD3VtTcIJCQC4YdRRGCamTyBvnEMKNV8iKbc+XggZIzBc5zjpubECQlCrvcbpvZB5SjFB7RaS6fTVQ0HKkugACEEGhsbLI2DNNZSruIjbeEzzuF6HmbM7A5p6COT5aDv48mhwRB8MTASpAROb2vAB+ZNtoxjD+46hMdKI2hd3ACfJHxGmM08vFe2gTOGR8bG8IvCGEou8MX+gygSYQrzcAt1QDCCTxJIAw1nNuGTT+9EQfsFJ6c9fHLh1LA0BynfI2QIxGdyw8gpa0uZUYYwqXMypGSQUoI7ilVAkV2pPmdcMQU4nCOVTiGZTNTkHgVQM8Min8+PW5GXtFX6eG/H/Z7Q8zwkEslxLXCBEDXVoXQ6rcppV2nFYhH5fB5tbe3aCqgSVQO9J5RSQIgAiYQHgoSUAnPmzAeqqL8cwL/3HVSSTx9m0hvGMkjCu2e34w0djTb88u/X7kHPZIbElARKJOAzwpWsEedRFiDCd/oG8IXeg9hb8pEEw/+Wk5ECEDCBgBPaz2zC323YjX06Y99hDHcumYG2hKup8imUyPoIJOGHA712ctiAbQ3GOXPnIQh8+L6PwBdwXQeel0AymUAqmYLruBCBhBAS7W1t4Jyjt7e35vhUiyslIgwODdZcPM3i1tjUWAfh77I5joNkIolMJm39b9WaEAKHDh2q+lkqlUI2m636me/7GBoaQkd7O8AY8vmCMj6AIQgCrQ65yBcK8Es+SiUfUyZPQTKZssVnou3F3Ag2jI6q8BjDySLjfx0w/MWKGZicUbQSRSHwl8/uQsPpWVCKoUgCAUl8mNowiyUwJgVeGFMW4lXUji7mosQkilKibXEWD40O4Rc9A6p2IwF/vLALy5rTseuSrl2haQLwm5FhbMzH2beNJGxsbMSkSV3wA6FC5lhY1EMKUrGifhEm5q6rS+VvHjhwoOY41vLh7tu3f9xioESE1ta2Ogh/l42IkMmk0dbaOg7zslKbduzcWfVTz/NqRvj7vo99+/ahra1NWerAQCThOJrkVgiUggCBr6SjFAKJZAKLFi+OBD2HmfglSfj63h4FAKHVPxtmpg9BaHAc3HX6LKR1RaY9owXc9cKrmHpeC3wuUWQCDiPcQm1IMeUKOI8yOBcZFEmgSALpaQnsaJf46ot7NOUN4ZKuJrx9amsY/iag7sGEwun3vnNob9wQaWt3SEtzyHTZNhGofW4gAhSKBQRC1YGUkiACgenTp2NsbKwmFQVjrCoIOed4edcuZaFWX6z6266uKXUQ/i4bYwye56FD059XSkLjLiCs06xe5c1xHMyZM6fqZ0EQYNu2bWhozCo3RcQRrXLmJHy/BNK5hkEgEAiJxYuWgTMOKit7xAA8NzqM54ZGAMGsJEIkJtRYHBc3prBqgUq94ozhV3sH8f3ePrQvbUCRBAokMAUOWqHU8OVIokgBShCgDOAsTuNvfvMyfK1uTssmcceiaeAEdT19XSsRBQABPDbYj+fGRsK+NPGxjMFxXCxYsBCcm2JRHI7nqGx67aZRD6ro8QGgu3sG9u7di6GhoUoCLsbQ0NBQNeGXMYbtO7brmODa5dG7u7vrIPxdgzCdTmP6tGlIp6u5GkL+0WeefRalUklRFkYOIQSWLVtWUxKuW7cOuVxO0QNCgjFC0S8i8H1VghtQZcJ8H0IECAIfjU2NmNE9s2rQsy8l7nllF3KlQCW+Boq9WgpCoM37MiD4QuLq7nZcNq3FOvJXb9yHV1sJicke8hQgT4EiFCagSBIFCBSYwOQ3tODv1u/GvlwJDEDG5fjL5TOR1gtHoK9hri0CFfUyWhL4+v49sXK5FCHqmTdvPhobm+D7QhljoMiPpS6LxhlX7g1JCHwfRBJdUyZj48aN1udaDqKuri5ks9nYmPi+jyAIsGvnrrKRrGzz58477kHI6Dh3xORyOfzoxz/G3ffcg127Xq60phFBEpBMuJg7d66OA40/8uDgIHp6eqqCvK2tDVOnTsWhQ30YGhqKU+yTcVSrGFLHdeC6HlzXgR8I5EaVz65aNE53Oo0k54o6nkWXRFWRCToNqiAl9owV7VdSjoOpaQ+F0UDVhYBAAEI7HKShGdzSHK+OFq0ynHY5pqWVuk5Sm1hkCDRJBCaBMSGwp1gIyZOhpaV+1oZsg8oe0XmUYEp9Nn5Yzpnl4VFPwjBz5gwMDw9X5fEx6WLVyIEJDNu2bQNJCeK6BFt5P4Kw9rnnsHQcXtM6CH8Lzfd9PPnkk/j4Jz6JzVu2VNnIazVPOQxBJKsCsVrUjJpYPMLoTeNGZ1ifGueAjiLhjNsqu+VAnPgoVVQTjZwunmxrX7KKAogTvFTkfKasHBGIZFgeW9IR1jke/3q2L2w1Yh2gzpli9AZXCcRl/dDZ0YnNmzbU9PUeL+24T2XinGPSpMlobm5GIpGooLmgCZbjrQWKowqJMmyHtpACH2eyH9XMrfZm1Ze1v3+4ZzCUycz+m0zZ8WM4fvF+tzkhoRocyxCJt8VLFh33AAROkIiZlpZmdHfPRDabrcK+TROcxMdgQpX9w8L/eNQ1LIm45hFlVOtJj3EPMtt3UWa7aqXF33j++cc9AE8IEAIqjGr58uVobGysEsIUt06CGF63EiImCsYWJkXNwOPf+2Yy5I1IMjgwSZWvFwbtrGRlOkylZfX8Kux5dRD+jloymcSypcvQ1NgwfqmsI6w6/Voao9+G5Hi9ABj+YUyGNhyi1/FJGKps+8LBKrtwQ0MDli9fXgfh70vzPA/Tpk1DR2dnZVaEXrgVO0Nkf/E6reYM0X0OOz7VUWaKcaqQOhaJ/mFVIoGObe+pDgu3hLqqR1mm9EUXXliTULgOwt9BU4VEWrFs6VK0tDTH40gjYVXM5tuy1w8XofYGhogV9jVckMY5juQ7E79guDezt/5bVal5lfsOLdREhOuvf88JAcATBoSAUk/OP+98tLa0lqmkYaZ7dDJx7dszh+u646qynuehsbERDQ0NcHXqlIlXjR5xFEbiWasYFiaGB5VL6AJwyg5eNkWdGseRXEudTGsM5rnKsFDtucuPqGun6sTTfe66LjxP+VYZj61gVZUVxhgy6cwJsx8ETgAXhWmJRALz58/HjBkzsKenR1XSNVnuEXUUYEgkPHz3u9/B1KlT7coqpcS2bdtw22236TzCsmq7ySQ++tGPoq2tHd944B9RKvlIeJ6abI6iwHAcRZufbciiqbEJyWQCnpeA6zAb8sYZw56ePXjs8Udt3t3h2sJsFtdOmYzuTBqece4zoESEe/f2oj+Q+MO2JpzfkLUJw74Q2Jkr4F8OHMDWcRJqy4FxySWXYlLnZJUfSIAUAqWSDyF8BIGiJ/QDH4Hvo1AsQQSBzkkkS4B18UUX4Oqr/hDXXntt1cB5xhiuvvpq3HrrrbH3n3/+eXziE5+Mry5VPDxvecuVFYV96iD8fXgQ10VbWytWrlyJzVs2Y3R0FIVCQVMTMrs3JAAlv4SnnvoVvvSle60EkFJi6dKl+OpXv4oNGzZUzWMbHR3F+973Pvzq6V9jx46dmhKfI51KwfU8uJ6HVDKNxsYsmpqbkUmnkEql4CUUPYYhRprS1YXm5mb8x4/+3WZj1GyMYdPoKO7emUO75+GUbAYrGpuwIJvB5ISH97a346HhEVyUacDBfAmbc2NYNzyCbbkcBn0fgT7HeM1QeFz1jqswfcZMALryrlAO+lKpBN/34fslBEKgWPThl3wUigVIIVDUARIkCY7j4KMfvQWlYqFqCXKzoH3kIx/B2Wefbfln8vk8Pv/5z6tHRrhgmmrLLKLB/K//ddsJUSb7hAMhoNJsLrjgjXjksUd1ObOSCgCOOc+VVFy9ejVuueUjmDt3rlVDXdfFRRddhF27dmF4eDgmDX3fx1NPPYWbb16FKy6/DF+/7wEVwiXVJBREqkw0FAGvlEJvB5nKVGBS1QBkCogLFy7C+1pa8G//9kMMDAzUnFSGoTuQEgeKRewvFvGLfkVR4WipIonwq54eBBpQcaNG7e2cMhoR2ts78Id/8A50dLRDSLIxseb5XZdDCK1i6qwJIYWKYnFU6J1hyV60YB4WnrIAt956q62aHO1HlfnQhUWLFsHTmkQul8Ojjz6KX/7PL61KyiJ3yXShDyLC3PnzcPppp51I0/bE2RMCat82fdo0nL5iBZqbm0OfYSxsjIEYw8jIMD796U/D90M6Btd1cfHFF9vUpWgTQqCnpwdPP/0rnH32WWhoyCqVVwK+L6wBhoT6q+q3KxIiSZXOQhEITJk8BTe9/wNYseK0CHt19Wb3WvoAVI0LnwhCv2ZaUrBqe7lyAGqwnn76GfijG/8InZ2dapGw8gc6ZUkFfQstFQWpIHZVd4IpoMFRqjkYLr/8Uhw6dAhr1qwJ2QPKnuOyyy5DJpMBYwyFQgE9PT346le/qtLBon3F4vcLAJ/65CdrJmHXQfj78DCco7m5GZdecgmmTZ2mSmtFUnLUBDO6DcPDDz+Mn/zkJ3YPmEgksGjRIixZssROkigIc7kcHnzwQbS1teHsc85WezyHa94Z9Z1ABBAi0IHRhi5CAVKBU6X9ODpXMJ1O461veTve/a7rNBDkhA0prOyYSCMdBzplShfe9a5347JL34REMmXPyBgDdxTNP+eKdZw0rSPTnxPpmE5SOYOMA4EI0N7ehsvfdAl+9KMf1az5mM1mceONN9oQw/7+fqxZswabN29WqjliSRwx6siZ3d249pprTigAnnAgBBRz1/z5C7By5Zloa2sNJRpjoUTUi22hUMRnPvMZ7NmzB8ViUYfAteD8889HY2NjzNVBRCiVSli3bh3Wrn0e11/3LqRSSZWBwJWOK/QkUjUqpMoAkBISZCNPTESNtMHkBEBi3rz5+OAHbsYVV7zZVjCqJkmOpkXP09HRgSvf/Fa8773vR/fMWfozEYn0UdPC4dzy3wBQlPa60hKYWmDA1J64kM8jl8vjLW+5HI7j4Atf+EL1RYMxu8g5joORkRE8++yz+I//+A+MjIzYeiLRGCcTN0NEuOP2P61Jj1gH4e9RcxwHHR3teNNll2HG9JlobGyMSENmpaFZZV999VXceeedGB4eRhAEyGazOO+88zBlypQKUtpSqYTh4WH80z/9E6ZNm4Y3nHkGjDeOaZu6qdNAUtVnYFwVTXMcDsCkPblgzAFZekElSjl38YYzz8JHPnwLrnrnNZgxY4ZlDDBAOhwwq30vkUhgxvSZuObqa/GBm27GqaeuCAmrAL0QsFgGhbJ4KnY5x1GU9owrdjl1HQHOHeQLeRSLRWTSafzB29+Kn/zkJ9iyZUtVAHLOcf311yOVSqFUKmH37t345je/iZ6eHksvqUlPwWJRMgyLFy3CqptvPuEACJxghhnTUqkU5s9fgEsuuQj79u/F6OhomOJkaPp0bGcQBPjxj3+MlStX4oMf/CAymQzmzJmDc889F7t370Y+nw9dHZqB7ZlnnsGmTRvxoQ99EM+vXQff98Fdrl0WDIEmpBWSYpyejElNkaGKuKjKTlJLZm6DpSUBCxYswCmnLEAul8euXbuwadMG9Ozdi0IhPy4QjX8unc6gq6sLixctxuzZs5FMpvReMWptZPY3RKZIJweRUqkJQCCUNAcp/lSXO4AHFEsllIrK+iykxPXXvxstLc245557ai4O06dPx1VXXQUiQl9fH+6//368+OKLGBkZUQuCWQQkdPHDMGjgL//iLw7LL1sH4e9R8zwP7e1tuPjii7F27ToMD4+gr68PQghba51F4maKxSLuuusuzJ07F5deeikaGxtx5ZVX4pFHHsHQ0FCMPdrsY7785S/j/vvvx7nnnoNHH3tckz55agKR1JovhVylBJhIEAalwirKQCM1w4XfYcqvSETIZjJYunQpFi9ejCAIrDTOF/LIjY0h0PtP13WRzWaRyWSRSafhJTw4jquNOUqFJGmCymUYFKPdLAaMiutT3SszjgJu/QO2v2Qg4PuqMGtnRzuuufoPsWbNGqxdu7ZqbqbjOHj3u9+NxsZG5HI5rFmzBo888gj6+/uVgQsRtUxzMTJdKuDtb30r3vnOd5yQADxhQQgog8ec2bPx9re/Dbt378bY6BhyuVEdP6o92mRiJBlGR0dxyy23YM2aNTjttNOwZMkSnH766Th4ULk6QtVNOayffvpp/Pd//zfe/a6r8fSvnkYur9Qy5jhIUQqB0FQNQQDGOTwiSOLgcABGCLT5ngUAdxzNAKCsjlJKkAhrQEhdukwtMC7a29ojk5VFpBiz92i4VqPqtOFDNWS95j1lHQYMaUAQCHUfQugCoFJLdolCsQjf95Ev5JV7pljER29ZhSAIcPfdd1upVy6d29racOONN6JUKuHBBx/Et7/9bRw4cEAbxcJnMauRUg4Izc2t+Lu//dsTFoAnNAhd10VTUxPecOYbcNFFmzA4NIQ9u4so+SVNXqSMKUYekpTo7e3FqlWr8O1vfxvz5s3Dtddei2eeeQYjIyOxYqJBEGB4eBi33XYbXNfF4OBgJKOfgTscHAxMWxgZ57ryEq8RihWGazJUxkdXyx4iWx8+HjBePVo0mn1f7TssIq3jEalSmKx6pUKbwAajRhMRbrnlJcUTOjhYVQpyznHDDTegra0N//Vf/4XPf/7z2L9/P/L5vCVy0uYXVfuRqxqQIOBzf/PXmD//+OeROSlBCChp2NU1BW9721uxc+dOjI6O4dDBXghlr4xEOBvfnsQrr7yCVatW4Stf+QoWLVqEU089FYcOHYqHwem9YVRNjU48KfVED0x8KY+U+DoOmva5GFCSDJ0Gio9GxqBq2LVrAbC1tRU33HADfvazn+Huu+9Gb28vcrlcrLpyWGQ8XAbe8Y534KabbjqhAQicABwzh2tBEKC3txdP/epX+Pu///+xceMGDA0Nadp2Kks9UhPJcRxMnz4dX/jCFyCEwC233ILBwcGJ++8Ys2lTTO/vjCQ8PhrFAEgMYJI0s5u05E8T7Yvbb78d06ZNw7333ovBwUEUi8Uq5c3DoG/iDDNnduPpJ//nhIoRPWlBaAq79PT04KcP/RT/+I+rsWPHduR0UDPVSPhzHAeNjY1YsmQJnnvuuapB3RMBIWcM4I4GoZpsx02TUgUc2D20koTQEUYT6Q/GGCZNmmRdQLWLvKiy5oxzZDIZPP7Y4zjzzDNOeACeFCBUc0libGwMu3btwg9+8AP83x/8AD179tgA7/EmUBTME+7UmiA8zoKOdVaE0Rak9h1SWDf8WE5FcM7gJRL41re+hevfc+LkCx6unXDO+qoPqVfXGTNm4KqrrsKbr7gCkyZNOmwM4kSc47WnlEXk8dlppHlHGYdhCAgNmMf+mUwq5p//+Z/jPdddd9IA8KQBIRCqlzNnzsQNN9yAyy+/HJ2aDuN1aew4BqC5fwq5chii6jQdU8oOsxf82MfuwGc+/ekTKk2pDsIqQGxubsacOXNw00034fLLL0dHR8frEpVvsuzpuKRaizdbADx0r+JYoZDroITbb78df/e3f3vSARA4SfaEsQlFBN/3MTg4iO3bt+M73/kOHnroIfT29o5bhssYIhKJhI0pZYzZ+hY2+0GnGjHOwbhjU4pUBIwBZ5iuYyr/Eisn+Qt9gNzEnJf5BU0uITscgtjR91VYzFTqOhPKsS+1ocbEhBqCLePYH5tANr95nj/7sz/DXXfddVIC8KQEoZlcQRBgcHAQu3fvxve+9z388Ic/rAlEA8Dly5fj29/+Njo7O/Hkk0/iP//zP5X/cSwHEIPrJtDQ1ITWlhY0NTYi25DV/CkuuMNUdn1ZjiPpqr9SKKcl50wlzIJbdZY7XNVF1P45FqlArKoFK6ZsiuTiEQmAVFpSSCJuArVhv8u5IcGKgF7nCipACUgpkC+UEPg+isUSBEn4BR+BCFAsqZoXra0tOO/cc3DxxReitbUFn/nMZ/Dd73635n6aMYZkMol77rkHt99++0kJvpMahFEgDg8PY8+ePfj+97+PBx54AAMDAxV+QyLCrFmz8OSTT8L3fXz605/Gxo0b7XekJDDuIJlMo7GxCZ2dnWhtbUUqlUQ6nVYZ5A4HI2hQhHl7BoikWaa5liaxczMdWK1BpEgCSGWzS01Vz1T4mgExA4ckgsMjLGVQkSjEJDhzYkYnzh2VyaHpJhgIQgJCBBBSwvd9FApFFAoF5HI5TW9RUtQXpSIKRR9SBMhkMvjUp+7AFZdfihtuuAE/+MEPagLxvvvuw4c//OGTGoDACR4xM+7qo2sbNjUp0Jx++ulWpYpOGvP6gQcegOd5uPnmm3Hw4EG4rhsBiyLnFCJAoOMtTUVfc444+5sEgYMEqbhRFkonISUcziECGaGeV9KK61w+m5XBtUlRC0DOVBIu0ylTLlc1EDlXFBuqcpmSyCpG1TyjBJHQ6qSwVX05ZyDJVXyRJEWp4XC4rqfiS/W/pePCdQV8YhgZHcFn//yv4LkO7r//fjzxxBNVKzIBQF9f30kPQOAkM8yMB8a+vr6aWe1z5szBBRdcgK997Wvo7avKqaUAACAASURBVO2tAKkBLpGE6zgq6JlkJDuBgaQGIjFw7ih46vdhfIikDim1VIxQMqrQN2jyJQmCUAxyxDQzmgoKV9JOVU1S4XOIUfMbqRqVsJyre1LqqfprgrxV/mDI2Uqx+jhhuB8DA9Nl1krFEj7/hf8PyWQS73rXu2r2/dNPP11HYB2EaqJLKdHf31+VYY0xhpUrV8LzPDz33HM2gNmEXUWBK4VEEPgqs15PcsPTSSAdzE3Wia8EGYFr8UYMcBxtU2WRoGYWGnRIp0dBMgipABJWFiObJ6nOYWJdGaSm4FBGFk1CRSZ83VEGnihPqgacEcbmOQmwiwwIEIFUUTA6y8LVZXz7+/vQ07MXl112Wc2+37NnT6zeYx2EJ2kzBE++78eCtKMtnU7bCrLhHorb33KdPc+Y1FJBqXj5fN5KsZAs2FHAdLiOquEolVTlX840YHQlGUPGpIyTKmKlVChCcXszuA63AehkMkNIASkIBPxSyWZmRBN4AWbD6CQBxWIBkASupWLMSsmMSuvA9wOUigUABBkIBEIRXLmei0AqYEoptapLGBoeRkNDQ02rZ2X86MnZTto9YRSEJmN7Iquy8WsBce4WIoLjuCrUS0i88MLz2P3yLpx19jlYefY5SgVlylUhBWwGRz4/hp/++D9ARHjLH7wDmXTa7vWYTm7VifdYv+5FrHv+N1i0eAlOO3OlcnlwpVo6nENKlZArgwD/9dMHUfJLuPzKtyGTbYDh0iBNuwhNW7Fty0Y8/+tnMGfufKw891xIySPPJlRSsubEefinP8LwyBDOO/8SeImEpj7UwNPS3HVcgAGBH1jqxHo7zJyqdwEsj8t4IIyu5gaIUbp3856Uqoz0wQP74Qc+eg/sByxZETQJMYMQARgDcrk8hoeGMDoygmKhoHIOeUhdqKSgqgvfd7AXIghw8GBvxJoKONwBJGmrK1AoljAyMoJ8Lod8PmelmwGfUZGFkOjvO6QzTfZb3pmQzl6XBWAMpVIRo6PqHkfHRlRqlqNKe5tS4YZY2fcDxbtan1oTaie9JARgJeF46lG1GFIZySZg2kVgMgWUSNIuBaYMHqZUNxHgOB4AimU3GYMMCYBxCSm1QUcXsecRIiaSBOZqlZgx+L6Ew5lNzyqvYqRUTXVLhueGR/aAhteMc665P2FJnrhWp9WVYZN5DVuW0M/scgfkcDhSQgh20jrfj7TVJSFgJ9jhSmNHDTI2902D0ybvMk30pGyWOghaZ1To6zBGUJS9uqa9bsyyMAFSQkuZMPSNLCcuVz5GbY0EAMd1Ipn86lt69VDXcZgt8CKkgEUZwnrxhJAU2JyCiOnomOg+UWXZS2MYkmTD2YSOHmIRkuJ6q4PwsG2iK3YIImb/Gm7SEIxKwhgSNVvXj3GlNkIZWUCKgCnm7oByP3BEJjADAGnpEw2wpCQEgbR7PUsCXPYs3HG0wSd0VZjFIopsQ34Vlq3iWlKqm6CwhrWmcHRseB5stI20aq6ETn2qt8O2ujp6hM3UrTCHsgZyy1pGUHUojAlfWgunBDEOz3VBIPhBAIKMJVowcEjJ4HCEDnwADuOWAVAzNsJ1HEgeKWWGaIhouLYSARIcrsMt4bB1eUQjg0g/m0asLZMN5dKQUkZKaIe8wFJIGGlqLK+qn3hdHZ1gq0vCI2iGliFqETXSUKmn0L4zXVDF0GcAER+ckkSe69oJbYHAAMdR7geTheEwR5MKhxIrZCNjEfeIUlFtNWJ7XgLX1k2mge44jiU/tlE5TC0UVn01QlcSBGm1E6aMgPqu1HUpwqwtsvdFZOJS6+1wrS4Jj7AJIWIFQoMgCI0WEVZrW/dQR9Kocp06bExLlPKiMyaommkCYDOxoflCbfhbRE10HK7UWw5AcjiOtpYizLRgnCmJpaUhJ5OWy5Waaww13AmDAkiHxXGAS11Q1aqdEYJ6W83XBI9HQvnqbUKtLgmPsEkpY+lLoRQ0VlJTFo1iQJRSGzAsUxmVhbxRTEVkOupGBGGdCGMMUXtKxJjcSBqqedgwtuj5pVEdKWRPMyBXOzi985OwKVeMFKCJEK8apWkviEXKckeKrULX56iroxNrdUl4BM0Q4Zq9IBHZQG4z4YSIAkVPzECAuAOBEGgUIfQ14WAm9MuyYuvJLgVUdAxDrHAL6Y1ZreABwwsThtaFZbBNJI9eDwAQBAGcSW2ZVexqQkitXlplNASlCHMZTQEZHirgOEkTdOogfD1b1CrqeZ79tzHMKIkjICIhXEIICCkhpIADR8V+ql0fpE6ONXUYhBR2D2akrBCk/HsIARUIoVm5JfxAKgulLtxJUqpoFUPSK4UO1lYKpBQi4kOUNuJF6poTxLhGmBJznANSGlXUSFC9F3Y5gqKv94YK4CIQECTDvMl6q4PwWDbHcZBIJHSFXhnbCxowMsZRKhYhhAKCEAIl31dOcFtcMyzd7Zd8+IFvMxuECDQgZSQ7AnAkVHC4DdomCJPEG5RgjJdSShCk9dcJqdKqODc5h5q6UEtvEQS6rqKqrajSoHSlKChKfBEY6R5RdRFKfCIFYiEkHNeFq623dXW0DsLXBYTRmoXGCBOVkCpsTQUwCylR8n0UCwWQJB3sHaYvMabKrZX8QNeCUMAlIRFIAS5N6hNDAIlSyUcp8FEq+brOhA6VE0IVltHSOAgEfA1CvxQgCHzlL4RJe4JNYwqEkoYiUKq2o7NKlKoaSmipVWOT2k+CLJWFwx1w5sB1JAQJMDCUAr+ujtZBeOwbj6hY0SgbIUTMf2j2Q4rPpoTR0TEkUwE819XFX4wVkSFfKKDkl8CgipYWiyUb1SKECkXj3FG+RT9QQPRLKBZLFvicMwSlQIFEAsWir/yQUqvGUqcv6SgbAFrNVRLT9xVVReAHIAcqvYqRlXRCCL1ASP1MgU6j0tcWymUhhLIUy0Ac10RzdRD+nreoESYawK0mttAGFWEz5UslH8PDI0iVfLiuq4uFGooZhlwuh1LJBwOQy+eQyecQzcgvSKky2LmDQqmgUq58H4Vi0ZasZpwh8IV9XSqpyklSSpSKJVudiQsW5jpyJQmLfgmlwEexVNJ16QOAASIo2YVECIGS/Zx0PCnsXlIKoeNjFZmVZKaKWl0S1kF4jJuxjhqpR5G9VXlImwGR7/sYHR1GLpdDMpnQETMqBYkxjrGxMRXwzYDcWA5jqZyOpOFaxWQQgQ/GHRSLJQQigF8qoZDLg+moFNLGGkfXOizkC9qFIlQxz1IJAFNGIUHhQqD3hEEpgAgClIolcO1LFJLASFlIFcFTUUcCEXyjDtvMeygDDwmQ0BGz/DhkHK+D8Pe/RWNFTdqTkRS1qsgKEWB0ZBhuIgm/VITrubpop9qh5XI5tY8EkM8XMDI6YukRHRMe53AQ+QgCNflLfoCxXA4AwXFdbZUMraSFYhGBUHvCYlGRM9ksDps9oZwJxWIJgQzg+wHGcmNgjENIoWg6NO19sVhS0ULSWIC1KuqoyB/BBAK/pPe6ACTpLJE6COsgfB1AaIBn/h111EcTfk2TUqLkF5X10fXgCU9XaeLaMFO0YW35Qg6pQgpgXBEv6YBvV4eZBYFydwRBoIHFQcWSjk8NE2r9Ukn7G1VRz0KhGDrvdeQLgeBwF0EQQAgJP/Dh+4El2c6XfB10oIrCCBkJ15OkSmrrFCYphCqrbQDONZmVrEfN1EF4jJshXTLNTErjsoi+jjrN/ZIPzwMElPVUgUUBuqR5bUKrph+JTvHhcAZfB3ALzYRGUqJYKsDuHYXiLnW4MowUikUbGVMsFFAoFpTlVjveGeMQgQ8CU1ZULSELxYKN6GFgkCStCyOfz8Ps8Up+ESMjo1roGVJgHSXEIqF09VYH4bFs0UBtIQRc142Vozafle8N1f5R+/hIRZYYowwziYO6Bb72GUIZUDiYJvdFLDBckkQul4PnuJbeAkTwtfo6NjqmDDBQfsiR4RFw14HDHOVCICAQATwvoYulauNLsagAqomcSFtW/cBHPp8L7zNQmf5CSmV11RFEhjEAcBDhLq63OgiPPRgN2FzXjfGUmv0hESGVSmFkZETXuVCZE4bOXpKE8HV8pT6PCYEjoaQSGINfVsk2ncmADhHS6YyixwDANJGwuq6itjCuAiKCLwTyhYLN/TPgachmAUgkvAQIQDbbgEK+EKZiaVAFQaDVW2EJsRRogzAuVvhqsVGdAL9UhHCcej5hHYTHFnhAaB01gDN/o/mE5vMZM2Zg8uTJNrzNMKA5LkFHqUEICddxceqKM1QoXMKzIW8O4yBNjSiE2vN1z5yFzo5OJFJpkCQEMgABcF3FdZrL53WguMTipafBcx24rodCIQ8A8FwXjusilfTgl4ooFghdXdPQ3NKCVDqDfCGvKfeFrsZLCIISpI6EOWXhYuTzOSQSCUVzCAlfu14KxYJy2jsOSKvMnlefXnUQHkFrbW2t+j4RoaenB67ror29Hb29vRV+wljGhA5nk1IimUxGKDM0bYWQirPF4VplY5ZoSgoCSUUjWIJiOSNNS29U2VQ6bWNITQ15KYWyqEIXj3EYkq6SwAAhnUzAWDNFIFDIF1AoFpFOp1Qxl2QK0gSnC+jwORE64BkHggCcMaTTGaVei0BT7hPI9+F5rpaKAQCCl0xh8uTJlqu1Wstms7E9dh2EJ3k75ZRTKqyfpj399NPo6+vDO97xDmzatClmBY3mFwKokIrRzAYGpvhlSEIEUIVgTL0xMO0AD8PK1FZPaAe5Y6/l6KwGoUPHwAnQ0svX+Y2CBTYH0Dclqn3Y5F6ztyVtWAn0a8fhdjEpFotwHQ5ylJprCYmlKkLD4ML11B5X3YvQnDmE008/DZ2dnfjhD39Ys88XLFhQByHq+YS2rVixAtlstuqqPTQ0hPvuuw/XXHMN3va2t9n3o4zdzFIUxtXUeKypsERRjBFICDAyDNs6C8KSz6vM9ZKvYktLfgmBEPCDknInBD44V5n4QgQo+movqGglYKstCSkQBD6E8PX1Ax187YP0ZyowXChrp5AIfPV91+EgxuCXAhVlgzBnUfhS8ZxKU0CUVHABCPPmz8PnPvc5rF27Fj//+c9r9vkll1xSn3g4iasyVWunn3461q5dW9lJWu1cs2YNrrnmGvzrv/4rvvGNb2BgYCAmAQ34ACUhze+i1IgANDDDbHZDHCNJxmrBEwjCJ4CRykoAIdARL6pwjMq2kEI50B3OLRG+Y2okMhVXyrhy+jOp0qJEIOC6jqbI0GFvjKy7g5ECcaGYB+fKskok4bocEjo4QO9rCSrfMZHwcOWVb8EnP/kJDAwM4Pzzz8eePXuq9nUikcDWrVvR3d1dB2EdhGH7h3/4B9x2220VlZmiE+fjH/847rzzTjDGsGPHDmzevBnDw8MVvykPX6vS9XoPF/E7IsyYt2osM2oss3l78WrVZHlALbub/k6UZtEWE2UswozNbB6gtP7B+D3Hsv4Byxtj3pNSFU6dN28ulixZgubmZvz0pz/FqlWrcODAgZp9eeGFF+LRRx+toPiog/Akb/l8HitWrMDWrVvH/d7MmTNx9dVX453vfCfmz5//+tW9P06aEAJ79+7FI488gu9///tYt27duGzmiUQCv/zlL7Fy5cr6pKuDsLL927/9G6655hoA1SVYdGVnjCGTyZz0q7mUqvjN4Wp5mL573/veh9WrV9eTfusgrN0+8YlP4Itf/GJNVaoaIE/6iTTBvjrttNPwxBNPoKGhod5pdRDWbr7v44Mf/CC+973v1cF2DAG6cOFCPPzww3VjTFmruyiqNM/z8K1vfQu33347PM+rA/A1gA9Qav25556Lxx57rA7AOggn3lzXxb333ot///d/x4wZM2L7l/peZuItk8ngzjvvxOOPP46pU6fWO6RKq6ujE2gjIyNYvXo1vvjFL2L37t0xMNa7r3pfNDY24rrrrsOdd95ZsYjVWx2ER93Gxsbw0ksv4eGHH8bPf/5zbN++HcPDwyd93XXOOdLpNKZNm4ZzzjkHb33rW3H22Wejs7OzPmnqIHz9GhEhn89PyDR/ojfHcZBMJpFOp+vO9zoI663ejr9WN8zUW73VQVhv9VYHYb3VW73VQVhv9VYHYb3VW73VQVhv9VYHYb3VW73VQVhv9VYHYb3VW73VQVhv9VYHYb3VW73VQVhv9XbytNcc8k5EeOmll1QmAQFgkXhwYrE6kYZyL5PJoLOzE62trTXzzIQQ6Ovrm/B9MMaQTCbR2Nh4xLlrQgi89NJLEcr6eHMcB52dnRNKSi0Wi9iwYUP4vNG+irxesGBBBc/Kvn370NvbGxIEA/ASCSxdutR+p7+/HxvWr4/26BHX4vQ8D90zZ6Jr6lQUCgVs2rhJ3x9VjFV7e/tR5wMWCgW8+sorGB0bq/gslUph8eLFVX8XBAHWr18/7nhMmjQJXV1dh72HXC6HzZs3V/2Mc44pU6ZgypQpE74+0+PIGMOCBQuQzWZfOwrpNTQhBP3pn/wJpZJJ8lyPPNeNH55HCc+jpJegVCJBqWSSMqkUNWQyNLmzk1aceip9eNUqevjhh6lUKtnzFotFuv4911NHWxt1tI5zRD7vbGunaVO6aPmyZXT9e95D3/vud2lgYOCwz1AsFumDH/ggNWTSlEklqx/pFLW3tdJZb1hJX/nKVyiXy1U919jYGL372ndRWv8ulUpSKpmkVDJFqYQ51GfnnXMO9fb2UhAEtHr1ajr/vPOovaWV0skUpRPqSCVTlEln6K/vuouIiPbs2UOnrVhB6VSKMsk0ZVL6SKcpGzsyNY7wOx1t7XTlFVfQlVdcETlXitKpJKVT6trpVIpam5vp7LPOojVr1pAQYkLz4sCBA/TxO+6g+fPmUTadpmRCjX9SH6lEkhoyWfrGN75R8dtCoUDvveFGSqWS9vvJpD4SCUp5SUolktTa3ErnnHU2ff3rX6dCoVD1PgYGBujNb34zpZLJ8Bz6SCWTlEqlqL21jS675FJ6+OGHiYgoCAL60KpVlEwkI98N/6aSqn8yqTRdfOFF1N/fT6+1HTUIfd+nO+64gzzXJddxyXEccjiPHa7jkOsoQBowJjUYY0dCTcpHfvYzGhsbo+uvu45SCT157VH+71TkHOF76USS0gl1znmz59B9X/96DODlA/6hVR+y3691pCNHKpGkC994Ab3yyisVAHzXtdfGvmd/ZwfQTMYkJZNJOv+88+iKy69QA5yIDnT0SFIqkaCP33EHnX7aaerc+tnTyaQCbVKDx7w+3JFK2d+mEik7BhX3nAgnfzKRoDs+9jEKgmDcebF50yZavHiRfdZUtWfS76dTSfrmAw/Y3+ZyOXr/+/6o5u+SSdVvpv+SCQXUN116GfX09FQC8IorQvCWj2vkmZOe6ufP3fM5WnXzzeE89ZKxI+mpsUglVN9lUmm65MKL6NChQ68JhEeVT+j7Pj772c/iS/feq4pRqtKyMXWL6brLij1a12oA08UxCQyq9BcYqfeJwByOZcuW44UX1lVV5Vj0BZVpu/rf5h2mq8aCCJdffgVWf3s12tvbY2rjn/7Jn2D16tXhDVMNHZJF/6qnXLRoEf77F79Ac3Mz8vk8/ujG9+InD/4k+vCh/ll2n+XqvOmpamolIfLg+h+MUYWSxKji1BVqVOy8sW2D1T81i3fknin8EjGGL33pS7j11lurXmNkZASXXHwxNqzfcETz6Sv/8BVcf8MN+Oitt+Kfv//P1ftAjylqPMfy5cvx2OM/R0NDA4aHh3HtNdfgiSd+UX1Mq6qEYUcRMaB8vsX6isK5zIBzzj4H//wvP0BHR8dRaaNHDMIgCHDnn92JL33pXlVBCJUgZJF9GhgDB4Nie+fgYCBOYKQewCKJRcCkKdZjsKYqs6lKBzHzBg8nOSPgtDPOwEP/+RBaWlpQKpVw2x//Mb7zne/Eaj/UHDAy52ORLS/hfTe9H/fe+yW898Yb8dBPHzrivZm9V3N5Hnlesx3hUHUhzMKDY5SDzTRwNdV+1eeleLVdRgxTuqbgubVrq5aSu+fuu3H339w93iXV6WW8n13XxZIlS/DCCy/EhqOyhT+kKovaR275CP7yr/4KV73znXjqyaeObntmFnCz8FRZOMOFNRQw55x9Dv7vD/8lttC/biD89Kc+hS9/+cu6EImqkccqylsxu7HnRgpyBUCmy39JkKr9xRETaczigcKyWUz3P8e4y320DFlM/OjV65prrsXq1atxy4c/jP+zZg0AVZKa9EQ43OITSlt10qSXwIoVp+KZZ38Tm2ie6x0WLEEgQHpSGSnGmCmvzUw5Q0gCAqFKaJvFyUt4Rzm7wuKkQRBYcLu1inkSYtQduuoZ7vrrv8HHP/Hx2Fd37dqF8845B8PDo7FBYoxV7VtV+1BGViDEfuO4TjiGMt6bFKkUHOt3L4l58+Zh06YNtgo5Y6wqbaWZh3FqEmaBru55HBCaOQGyFbkuuPBC/OfDD7/+IGzMNsAP/FjV2rnzFyORTFr4Mc7hcAeu68BxXXiuC1cfDlelu3zfx8HeA3jl5R0oFgtWKpgVKJVO46xzLwwLprBwZaaqkpAQ+AGGBgfw8q7tGB4aqnr/X/3a1/CpT34So6Oj9j3H4Tj/wstssc5q8/fAvh6sf/EFVc+vbEWMDlIymcIbL7p0XGuiJMJTTzyOfD6vf64WnFMWL8PUqXFL5OBAH3797FNWYmeyWZx3/sWqmpO9cC0RzqrMIAbf9/Hs07/E2Kgq533+RW+KUzpGJvuvn3kKw0ODke0FMGPmDPzm+edjlsH3XPcePPTgg3FrOGM47YyVaO+cXHFnA32H8Pyvn65eaoBzXHDxm+B5XmwMzP8kEfb17MbG9S/q31PlgOk/6VQa5114CVjZPAIAIQI8/+unMTg4EM48UvPh3AsuQcJL2iI9FK/CAyklnnzicRRLBbvVYoxhLJ87YhAesYuiWqepwpUuyNRm5wyO46iSWo4q0WwOlzvgDkcilUJjczNmdM/Cpg0vYu/ePXoHqXqKcwepZKpqEcmaan5SUe11TZ2GV17eha2b18dUG8aAu//mr+H7JVtdyHzguh5cz6u56s2YORuHDvbiwP691ee6nUBM17Ln4/ShtKuneaDZc+Zj1uy5WrUPz+u4rt4z2yUO3HHAGcPE9F9W8e90Oo2m5hbkxkbBGNf3G/a9+cPBsHDxUjz37FOhfsMY9vbsxX1fvw93fPwOAMDPfvYzPPqzn6mSbxGwtrd3oGvq9PiCpF8mEp6qVlwFPJxzJJNJJcHCTrMaEgiYPXce+g4dxMED+6uvNXaBdZBIJuP3QGbYk1i0ZBme+dX/2MVQLfTcCg4zHlS26RZCRLYIStM62p3CUfgJo7OaAyRVHTxd047xsGAm4wzcvGbqNbh5za1vb/lpZyIIAvQd6g2BbX7PWc27qDUFXdfF3PkLIEWAHdu2hAPAgN7eXjvQIQbVwjF+1ViG9o5O9B7YN66U44yryr3jnIukur65XiqVwtz5p9jV1OjkZPpBGwCMdDF9d2Q6T3wxUufl9nxhP7NQk2cMHZ2T0NjUjLHRUXBVJRQMDN/65jex6kOrkEgk8Bef/aya8K5jl1HHcbD89DNj0qx8jFyn+vQz6qjruhUSyJZsA9DR0Ym+g726H6lSQyLAcbmq7Vijv9ra25HNZlEsFHRZcgLn4Zwluy+IuMFZfCYqex2L+8hfTxA6rotACCWtICH1Bt/hTriC6oF1tNRzOIfjqEnnOhycOxagAIPLGZYsOxVP/uLntitJki2yeVSzjQHzFpyC/fv2olDIHUY6KPXCdZyI5Kzs0Na2dvWc4wGAJIQQSI6zxwxIlcx2OIckwvxTFiGZSkWkYHhtNSnUQgHS5a4ZjrxfWOVCoYDHIudjVu00QGSMYfHSU7HuN89oTUeB8ODBXnztH76KTDaDXTt3qr2sQTiUpGpqaq4JMiGE6u+Y+Rm2PiOI4LhOXDMAIbrlb+/o0FIcNfduzD4rrzGfHcyeMw9bt2xUFnpdrlwIgURCCRYzJyPGdxBJW+dRPQFZq+rrDsL58+Zj/Yb1tqY6APT3HcT0hiw4U+qIUk85XL2aOXrVcz0XjuPofWG42oAxNDe3oHPyJPQdOqQmqggw2H8Ik6dMqyL/Ijb08n1iZL55rotZc+Zi25aNkc+qd9T2LRux/LQz4HmJms/e3NKCVDqFwA/G0RMIWzatx/IVZ+iVvAzsQmDXjq2QQsJxHDQ3NWHmzNmRSr/hbJJEOHhgPxzu2sktAh+9B/Zh6rTaUSyVRggeFXJgeoF0HBckBfbt3YOZ3XOsNDTnNWPT1TUVr7S2YXh4KNwbMoYHvnE/SBIcLdHMZ+l0GgsXL9NGpsr78wMfr+7apdXRqC4Zmka3b92EpctOixmNqAyMLW1tSCaTNsKoYvEkQIoABw/sw7QZ3TVGC+iePQcv79yuDS0SUgq8smsHFi5epi346nsUuYlXX30ZJb8Um2/ZTOa3A8Lz3ng+1q9/yQ4uI8LBQ/vhuA66Z81Xtct1rXbPdcE5w7YtGyACH6lUGrPnzENbe0dsT2QHe+o0DA0M2GtteHEd2jsmVS3CuX9vD3r1fiCVSmNm9yykMpkKmE2eMgU7oyppDQnR13cQA/19mDptOsr9HqTP6roumppbMDQ4MG4fHTp4AHv3vIrZ8xZUTIpDA33Y/fJOvd+QWLr0VCSSiXD66EHO5caw9jfPYmhosMK6uOHFdWhoaERbRyXD9YF9e7Fty6ZQ6nGOhUuWob099GExzpW6xznAGbZt3ggpBeafshihIDQLpHq9aMkyPPfrXyFq+S6VSmBgcDSYTK8tWrocCWvBjTlZIaXE2mefwcjwoNWeqilxvfv2YmhGNyZN6aoAoJViThZNTc0YHh6qAFf05aYNar7OnD2nylcImUwGHZ2TcLB3vx36PbtfgeN6mL9gIYg4AGmfu7+/D1s2vWQXN3OqxYsX/XZAeN111+G+r31dVWUGNt1v7AAAIABJREFUQTLlhwsCH67LrQrpuGallRjoOwgAGBsZwfDQIC685HIkk0k1bDwcvqamZjgO1w+nVQ+iqibu/v5DOLC/R9dAAAb7+3D2Gy+0EsWuTtksPNct00CrqKMk0dzcog0hcbek8Y4AQEd7J0Z1eeya0lC7SqyKVqaKuY6r91tdmDSlS5+LIMnEAxA2vrQOY6Mj6t4jiwEAcOK6frxTce3RkWHkc2O2b4kI69f9BmesPBeNWj3kRlvRBhkA8AuFyN5JGdiivrDJU6eio3My+vsOqsVXT0hr02YcIELHpEmYPmNm9ZVOu1kKhQK4w+3ipj6VoZ8GAJGDhsammBoppfnYWlbQ1taO0ZHq4xHGVxDGRkfK9tKhNZRzjgWLFqO/76Cac9qtls/nwkUk9F4gCPzyAQcA3PSBD/x2QHjOOefgvX/0Xnz3u9+B9XHpm1bqh9r/OY4D11MgdBw1WRzuAEQYGxlGJjvF7jnM5EwkEla1MeqN6zp6pY1PZLXPDL9bKhXhWN0/HBDP9eC6LqR1LVQHj+d4aGhohFNl78Aj123v7MSrL+8c1/ACAK7jwK1y3y53VD9xhqXLV8DzXA1acx3Cwd4DGBkeguvUkBQa4K7jVqieruNULFpCSPz66Sf1YqTVWiHsuDAA3HWtddNYSaPGIABYuGQpnnnyl6Ezu8yi6rguFi89taKacfT51Z6WWfCFdg4FevM0iYSHdDodHwce/wVjDG3tHdi9++WY/hMuoGZBYZE9cPWFuK2tA9mGJowMD0GSBJP6+VkZomu0mbNm4f033fTbASEALFy0CCpIRkZWRGU6N2B0tX9QSmnVDq6NMUTSTrDQcql+5zg8NuvUe065OFHvazVWre5Mu0TiE99xHHDHASQb16Df1NSMZCpuyi4WChXm7dbWNrVPOYwhjOuFqLyZ+5nR3Y2m5ub4xCG1Z9yyYYPyjzpVFSwQkdpjG8NFdEBdteeuthkTUkaimRADoRvpu7hUCcHY3t6JadOmY2/PHhUpEs3iIGD2vHlobmmxQQXmXqP3HXPNoJoDRZ23qakZrufFvlso5JFMxrcmza2toS+5KsRCwEalarhIGGkIdM+ajQ0vrgst0lFo6+9V9cYyhlQyCSnlURgSjzqVKVwJrcFYrxqcc3ANHEf7szjn2mrqKCA6vMwaF3YS12qQXaGdSsuW+S7TBh4wvc+p4mYwljFWtpgRKLZ6dk6arNRn3dMMDAP9/Wjv7EAymVIDwIBMNotMJotCPj9uDznGTUHRlVvdT8JLYOHiZWWTQml0e159GYViXhktagCdiHS/VIKQa4t0zSWHlU3OyKIRU+WrgJgxYP6ixeg9sB9SyFhUUDqTwZy5p1QxCsVBZ4DIOS9LnWKx2dUxabL6TkSiHurtxeSuqbEImEw2i2QyhWKxENNcqApQyueFBaMKn8GM7lnYvnUz8vlczGgIRtpKKmuLw9dQ+u2oknqJAJISJKUykVIYo8mgVhXuKDAasDiMaV+cklhGPYiCiTNuQcu10SD6bwsoEwYX+Tfn8ffsZzyMZuDMBN2GvjZzdEyapEES+jYHB/qQG8uF59chUC2tbbHf1jp4RA0KnxWYO38BUqlU5B45uMPh+z62b91kXTyc1z4c/WzRfrQHi/dtxWe2n1mkDyOm/Ogz8LiJv7GxCd1z5lgDnFrgGBYuWYpEMlG1H2otJCzyX/n77bqsWvQc/X2H1H43cl+e56G5tSX2HjiL9A23YIp9J7pIaBAlEklMnjIVxvprPmPg1cX2MWqvKbOewMJYSlImdbOqxcDDGGAGXkcjWGnGwklvEByChgNlYIlOcKMy6KjUGmBQk9X0YrUH5pyjsam5bMIQhgYGMDw0ULGvaZtAtHz55DP/zmQaMGf+gkqwMoZXd+1E4Ac6+CE0cnmJ+OS24IoBiSl/Io88N4sHS0SDKNT3on2L2PnNPUclm3l/ztz58BJJa4BqaW3FlK5px6xgKmMsFhJHpKyqajwGK77f1tZRJuxZhSZQzUAWHSOuDVKz5szVBrUQuOYE7HVC4VGDUBIAktaoYLIpLAyNTm1WWf1AyVQKrW0dVR9HBUlTZTZ+zdEqO2qsuNCxmQrTlVIlkUgoa21k4QiCALl8zrpMoitoa0trhZQol9RWNY9Kb8bQ1NRU1dqbGxvDzh3bI/kzqh/OXLkSixctrJhAJjA+/j63wBq3v2KKH1Wog7EFklfuE5OpNOafskj3C8PiZSvC5z4GLZlMwnW92P34vo98PoeB/v4KsLe0tr0mwEdfN7e0oLWtPdbHSpua4Jz87UrCMF8PBoDRYFp988lkEouWLsWsOXOxYPESnHfBxcovFrGKmiM3OjohNY9FpKBpCS8Rm+zmCHwfJMmqOdVAmi0zhQOAXyoh8AOMjAxX5NZksg2H3YCzWgGNZc9tVuGd27eCpAjVRahn+dgdH4PjuhVqYbnBwZwvnUohkUwiaY5UeDjcsZpDqJbymupjdD9WPvGnz+xGOpPBlKnTrTGm/HdH2xqbmyv6t1gsQghhA/Oj18g0NNQMbzwyMKpzzJw1O7KoRfNgXx9JeEzKqtrQWhNixEL/D+cc3bPm2rA1s9musFQRsH9/z4SvmUqnkUylwMCQSqexYNFiO1miFteB/sPz1HROmlSxiufGVEpOoVCAlMK6LogIXiKBTLahpn/qSAd/dGwUPbt3ly9xeMtb3oqzzj47XERiAEbMAmlez5w9B9O7Z1W91ss7tmHLpo0TXsoZYyrlSVujo+Plui7OOvf8yuBoxF0R5dLmsNcE0DFpcuV4jI4AUBZSGXF7ERESiQRS6TTyufwxmM0Mk6d0IZPJhCo6Z2AyEkf6ewdCG0uH+MrPopMl/KIBYPmkeuXlnRgaHJrwgM0/ZRHmzj9FSZIaqlCpWMSObVvGnQiMqcDs8mZWXCkESiUfaa0eGWnRqp3Ex6J5rqf7JJ4mNbN75hGs4mGr5hoBAE+nmx1JK5WK2L1rF05ZvDSMHdWLXSbbULEIGAm1ecN6LFyy9ChiXHksusc8n9kLBr4P3/dD94peIFpa25Ab23PEi2KpWFTZM4Cdq56XwIzuWRgcHFTbKSFCmwWF036iSfuHa6/JMKNdoZHlm8WkYPi/SsdveWcFvl+VvmC8iWfcILU6fuvG9ciNjY1roXNdFw0NjWXnhg1NIyLkcpVsYR2dncdsJUwmU+iaPr1CjfvXf/lhlZCsIwNk9FmPtr3y8k6Mjo5U7J9qvT7YewD79/Uc8XWICK7nIp1tqHh/aHDQvi5Uydnr6Jx0VM82PDyEsbHRilndNW2GVt8Rjx4yFCAYN4PqtwTC8sFmIeiinDJRq9t4E2TuglMwvbv7mFnYAGDeKYvQ2Ng47jkTyRScKhEm0ck/PFhpkTPW1GNxvwTCjJndFWA6dOggHn/0cTBn4sNU637CfMEjb1JKbHzphTLmgurNL5Ww4cUXjnr/lE6lK6KWhBAYGQ61jmoJ283NrRMej+h3hBDYsXWz+cBqcI2NjejonBRaniMWfHaMVdKjB2G5U5ZCCRg6OdXXel59BTu2bcWuHdtwsPdAVYcuAHTPnnfMJjag9o2Lli4fd3I2NTdXLA6lYhHFfMG+PzDQX7HipdLpw1JiHAlwmlta0dLaVnafDP/8/e9DBOKIAJMbG6tyjMbYBI60HTrYiwP79o4vabWBKV9Fc5hoa25prToepWJkPPr7K36XTKdVZNQEASiltK979+9HsVhUWp1+j3OOaTNmlhmtjMEtNOIchnFlQu0YzKKQvMT4n6LOXt8vYf1L61SuFlPRMmeuPBuTplQS6abTahUMhJhQZxp6DbMnjBlldGtsUpa2WkSy1dSYfD6v4gf1uUaGh0FSxuJFHcdBtqEBgwMDR9dfVRah2fPmYe2vn409x9rnn0dygns5IsKuHduwbfOmw0qAo2mbNryE9s5JVRN1GWMY7O/Dru3bX9M12idVjkcuN2YJd9V4DFWEiLmui0w6g5GR4Ujib5ijaKR4+SJPklDyS9i3Z7fNsjBuN8fhCAIR8bsSwESM6oM0T9HvBoSRREqzQvBI1EvUhRDbBxKwa8dOdE7uqjCHc8eB43kTAuHO7Vvx8o4dAJQ0O/X0My3PTbRxHVTOytYrYyBqbe+oMCw0NTfjgksui1lZq1kA2zsmYXBg8Ig7jjTdWPk5OzonIZFIolQq2veCIIAwhoEJNClk1cUoOg4TAXOUesNM5tzYGHZs24KFi5dWXdQ2vPgCBAkLgKjUiRtuKL4o6M0Vdxy0traWETgxNLe04o2XXFYxn6L3wBhDa0cHRoaHEKEGCGkxiKqq0wQCScL2bVvRNX0mHIdHvhueO8YOAZ1FT9xmdbwWGL4GdTTsP6AsTIiHQLRGmVhgdL7mBOGRCU+oTfE3NjqKYrGAYrGAg70H8NILz1sVI3qYMxHT9IwRB7XnJZBJpysMC0rKNSKTbVBHJlt1Ard3dqIsMyZOHlZD8GzfurXMGAB7P9O7uyuNHhXnpqq0gDGaSKp+X+WvbY9QjQORsEQAL+/YjpHhoQrf4ss7t2NwoF8xuOkUtCigowCgiGSKXjvheUim0rHrG3dENtug4nazWaQzmaq+zY6OSVCXD2k4qwHQXF9KqQ4i5MZGMdB3SL9nvh/Gx9odllFLSUeL0WvfIL4G6yhT1kzG7c2ZIOBojGbUCVqV3DbSUYh0vJRS91a8w8oniZlIw4NDNVd1AlQumD3Ub9OZDJhWVY/0ICI06LoXUkpISEhSf82zyOhA69/kcmPYuW0zdmzdUvWcM2fNsqu8pPCc0WsYhFPZ+VWf6f6K/ib6N3K+aOxvOU1hBRD1N4IgwOYN6zXO1OfFQhE7tm6NLXLVxikKiNiCoO85nWmonhdItRcJ1ceqHxqamiw1JNXofyFU5ryQinJRUXcKSCJs27IJgWYRFFLEzkPRQHxL/0GaAOq12Un5a/qhVvOMmHYMdwyPqqRaGpGKRK+qQhlwmUexRp3qgxiCKwwQCCdkOChS81Xa70bkoFE7j3afRETwXA+eoUmkcglT/TcjQ8PwgwD79u5BsVis+DyZTNcOw4pMWLOa15qwtTQXVM7/2EQzfRdVyUjqCa3H6MCB/di2eRNGh0cwONCP53/zNAqFvPqelPZv5aGlS5XFlIjQ1NJcdaGl2L1RbIzVudS5Pc8DdxwNovi1FeiEPWQgIKX6az7r7d2P4cEh9blQIJUisvgjznMap1Y/eon4mvaEYVIus5QWTiT4WH3E7V2TYabC+BOIIrp+rUlldHnz7KG1S8aoEGJSwvaV2iu0tLVX572MSO8w5anafoKhoaER+VyuYrIblabsxEqSSSDwA+zr2YNuYwyIDOOc+QvQ13coJPGp8uxSlu2rbH9JLflpnNWgCrYjhq4Yz01EZbPfJmDT+hexZdN6xaZNssJuL/R4lO8dpSQljcveJ1IxoPL/tXdlP3Id5f5XdXp6unvaPbs941k8u+MtNkY2F3KDBIMxS8KiKELhDyAxThAggfADuUgQHhwFCDwSI1k8JIpIgokAB0f36uZGEXFAbDYexx6P13iZaY/tmXFPd9dyH2o5VeecGWQb/IDOJx3PeHROnTpV9dX31bf8PiFilQc824Hzj6teGiSGfKGgMuKlrwlxzsE4t5n2ph2mmdKo3WdOT2Lt+k12oxBGqzEbiI9IqRLuoyBHd4UJpULdJgaggGhUqyDM3YsZMhw1BzH1JKJeOfd4DOSqS1q1UnleCp5CJa36mRAGpFgIoWdWSWdKKUql5ljbnAucOnkcnDG47thSS6vGn/GpraMDly9dDD/STP4S/TYqISQweeI4Vvf2hSFY+r6WVgVg5DG3syqlhF3IUSa00iGB75baq6Uzzi4DmsXLtbSJSlHhuk4S+sEY91DUiWlPq4HupwVBgGKxpFG5Q2KMYerkuxrMKXxHc0sbulb3wIWpACSaW9swffmya5OBkMIauCB9bYpzBsaZ/agzp6fQv2YYDdkG/+zqSUIJKQx8iI/CdleYcHFxEb/61ashEJD2D1KTGuMEEyOSeW19MBlqJ8qVdv7ZRmqm4N7EmPMn12qCiWBQqgOPjQbnwjIicRrJNubQkG2MTfqN69dw/NjRmLO5IZtFe8dK3zdIgJbW9kRpzfS5IwrvbvoNAPNzc5i+cgUrV3X5NSEk0N3Ti5PHJ5bYA6Udl2i9Ds5lIvP39K1B9+oeXZqA4MS7EyjPTHublZIIrqRB+PcExl6OGOf6XOUnwqrzGIsgpCk/X6YhA879zW/26lVMHDsaSzPLZnNoa+8AzQRef1tb2+1Z0GU4zjkY49buEDI5DxOUpUKCO3/+LNYMDFph4Epaq31YAFJyx47CW2bCAwcO4O3f/16f81SFIONHoSaBlhJfXmsGlJo5u1f3hmdAK+YlOOOo1+verqfUBeZNJKXE6u1GPeNCD3J0MTAGLrjHoCpDvhhTlwghKM9MgzMWQ9DmixVUbi7YeEl38VBKUavVfEnAeczJbvA23QU4efI42trj+Yl9A4M4f+4sFubmEmWXZY4I8yct8I7OVVi3cZP9fqpRwsP7ZLhIES44CVWrgTGW6HtbjgLGwRiLQU8YCWmkjzF1FJqKalOJuCfKM1esi8YFAmb8JiqVm8jlC55kyxea1KbMuAdhzxjX2g28eiVcOJuP/rCzp0+hp68/ZO6oOqHbJJLcsRS8LSZ8+Re/iCBWKaZr7+h0kKJDH1M2m8XQ6FowVgNAsKJUQk/vGq2ySXuoFkKgWq2iWq1qdU0i0IHNSpcPGUgIguKKkho8otoxiyWqBkspkW3M2cVMiApVGx4dixQDUZRvaoIkvnNfSqmAfxsaYgscAIbH7sFRHdZlSKlWPBZgmM1mHWubitaYvVpGqbnFZ1hQbP/g/bh86SLOnj6lzP/621QWR1Ni/7u6eyC4kydICHr6+j2JLwRRi9LZ3Fpa28AF9+ouKPeCOmZUqzVEvTENDRlrbQTceZfI5/OKEWjcP1sqtXjlBBpzOQyNLDEfhabYZimkREd7J2gQKJ+yg8oNQjA0MqZgDqWAOaC0d3Ta86bLXMWmFcg25rBo3WYS16/PYubKZXR0rvTqQEkZSVBLqhR2G3TL1tE//OGPyijiWIfWb7gXvX1O3Gckt3B4dAz3rN+EdRs2oVeDsFqrlaMulsszShIyjnqdYcOmLaA0AKsz1DWTMb3Dru7tx9DYPWB1pqUCU/o98y8pJbZu+yCyuRw4N+1uRr7QFLuXMYbm5lYMjYyhXq+BmfMCIdi05f36IK/v5eHV3dOH7t4+1FkdjDGMrl2Hto7O+L2MIV9oUrD/XEmDOqtjampSSyKnL5wBBFjV1Y2t2/4DuUIBjCupvu0DH0I2m/PuNe035vIYHBnF0OgYhkbHMDgyimy2MeyL8wxnauz7B4bQ2bUaXI+t+qkkBKUB3r/9PlAtxY0hgzOO//rOd7B9+3Y9h8J+Q1NxBTZv3aaqHrnP6Hlev/FerCiVwDhHnTFsvPd9aMzltYT0r7b2DgwMj+g+q78FQYANW94HCQKu+2neIThHX/8Aunt6wbiA4Awja9ehc2WXY2TSlloh0ZjLY9sHPgRKid0cpZQ4PaUCQYgyOKgzIDHqv4z7Xe+mYeb8hfNWxZBaFW1ta7dJj671KHSKKih302EBaQ0X5qrXGSb+fkSdI4REpiGLUnOLjZ7xcS4VdXauwjH5N0ghwLgAYyIG6EygoBbXrBnCkb/9GUEQIF8o6l2XJLow29o7wIUE0Tt8a1tHRH2LU3NzKxjjaGxsRNfq3mXvbWltQyYIrIviwrkzGBpWzJJsQFGIBDeuXVNnp2yIOn2r6TTSUYuZYKA0QG//gF6cjvrl/J7PF1AslTAzPe0ZQS9evIjpK1ccSajmu7unV1mCBY99h/pB0T8wjHL5bWSCDPKFojdeUYnb3r4SE+KI1QRaWlchEzR4MPTRX5qbW3FGKnj+rq7u0GpsFqZzey6fR7YxB7YwDxNrUC5PY35+Dk1NRb1MEoxdVP4zPBS3zoS2QlCkBJZvMlbqg0mGpFRq4NbwHGise4Krnen4xFFcmy3b3ShDQgMEcTjK/VYhpXW0VhcXUa/XVEZEBBNf4WoGEEKdLYSpjbdEDAEBdZziyvLr1dJLGBWlVnPPELAUCe13MxZCVlnEmdNTGBoew1LZ+MJYFKUKTcMdxIESzSBCcIAoEF5Ta1JGFrMNTaSBXsjhaFUqFe3cDo1KUqjwQ+nVFHQOU6aGK1X+PEHNkUQs3V9KPeOX8QW6baszGqydhJg6DYGaH2H91NJbF4DG9CUhGDGIOlOenprEho2btRoaSc8jCqOAII6v+i9nQqlLBTtgyarrOnLGjTIgjsuAUgIpSeg41+fAm5UFnDh2DFNTk44vJpyYMErdlVph7CCXoVSdOnUSwyNrE3d/qYGoiBTW+Zwc+6VM2tIx/0vB7Tk1uukaCc0FPMnuht5Fd/fQGhwy6ulTk+jp7VfO/0jVY8U00jKO6gvxQuSSiu1iib8rDB3FPIQI6weLevSlkzFqXEnEkSLGVWKQ9gzbysSKwjIshureZ4MultreXDcBcUqWR5g8HvgDAYnAiW0GkYnj4htXpP3/5YsXMbZ2g1eU1UU1UPZHaqtc3TUmXFFcgbk5leBJ9GBfvz6LWq1qEdIMiK8BujVlzuzgMI6FmwuYvnIZF9+7gFq1as3KZsA5F5ifX1DPqm91Bli1Va1WLNgUiMSJd48hoBTtK7tgX6cnbrFSsYtt9mp52TSkWq3mGU8Wq1WUp69gqTROAoK5G9es5C7PTCuQ4+QlBakr4Apn5d2sLOCdt9/C8MhYvG+EaIOVBOMMV2emHReQTHxHtH/Swf5Z0K4Rs1GWy9PJZcpk+P56raqjjULGbGlpVvgyDg4tJDA/P4fZmbInpRBJh71x47oKOpACs+WrFgw6iQ0rixXdvpJ+lcVFXNWFg6wmElF/5ufmYGD3Z2dn0ZBpiI2N2UCllBCc+bhFBKjXa/jLn97B4PCorsalnrn03ntOOTnFlG2tbbed2nbLlXoPHjyIR77wBVQqFUhCQO0uRryagoQEFpbehZ+IBudKrZYZKymkLqUtfVgMJPxqdlAbDkf0/5eIP3QlqYwt1ATpQbyNdtlMauI2kpAT+Q/bj5S3k8u0f6f5azFUaQ+23goaf+Mz92lx9tHxcbz00ku4dOkSPrFjJ86cPxPqggbT3x00pz31DuIl0UplLAiJWnFm79ETaYGYpdvHhMkhznyE0P1LZwK6vm3ndU4lqnD0wvho9dzuxx/H95566u4wIQAcOnQIDz30EKqLi7aWHEBBqLTwhtQB9CVUIXyBuCFXOhTItVbZqH2iB9l19PpnivADiA8TCD3BsVUU6vsyylXuRJqFQKNOWB8/x1aJkUnLW/r3Jc25JJ5tmpgjKJUJfXHalkv0JapfRd8bXaQ20CKiOjrPEh9A3L5/x8c/jhdffNHWipiamsIndu7EuTNntdU8UtiTLLV7uOrlMjuGf/ZxuCNSl9NjOud1NBzWKJO5g6SmXP9OASkpKAnluGqHQlL1hPElE0Lw+v/8N7Zs2XJbTHhbAdw7duzAK6+8YpNNlZ6sJaIIg22NlFNGBR5GeYgwMFboM5qEQu3euGGDbks6+rc6uxAH58MelYnLJOEAmyTMJJRn4uKiEmIq2sDm+JmNhUiteoWJy7ZKiPucedZd4E57xH0GDuyHWUxSu3xMaoxuOxZ5pNVAm93t9IEk9C/6Xot94ADahguT2COGxlzWC4SASlUsk0qCT33yk3jhhRe8Yi2Dg4P49W9+g/7BAYe5zKXDGCWJzR2Fi8jg/t25pPkJUClBLdI70RtweIXzCgdxWz0PQr2KzCHieICAqvJuhAZYt/4ejQwYIBOQsOR7ECBDM6AZqut2ZGyY5qO7HsPmzZtvWzO57SyK8fFxvPTyy8jpCrNSW5+kNkpJJ7bRpIaoyHZuI9yNEYZQgo+Nj+N3hw7hjTffxCOPfNGqlnAWSXQ7NzUZNm++17HaEVsx1SCES6q+NNeUAw2ijKutp1JdZkfM5XL46U+fw86dO61gNPdQXRaOQIZ/I0Cx2KTqYUTag/N/qtVmQGLPnj348U9+gpaWFp2Not8TmRiiDSIjwyPxPjss6vdPf4uMvNt5jkKqS79TWRepYT27+5sF/akHPo39P/+5h45taGRkBK+++iqGBgctojjVxgvqlBFwr+KKoi6F5yCDE5+xzJUv5PGz/fvxkfHx0DBC3fdQC35scGFWrVqJXC5vywYY5jL2iiDy+64v78L/vvEGnvr+95HP59W9mcBWujKVsIJMxj7zpUcfxbeffPKOrKO3pY669Nprr+F73/0u6rWaLxGc2nZIQIpuaS5hYHAQW7duxX33/SfG1o7ZD6nVavjKE0/gtYO/XXafMOC4jz72GA7+9iCef/55/PWvf8HC/ILvfpBAodiE5/btw9EjR7DvuX2R85mv0xBC8NWvfw0PP/wwFhYWsPvLu3F8YsKzBku4kRSqMMkzP3gG7xw+jJ/t2+dMSkwPhATwwAOfxrf27EEQBDh37hwOHDiAN9/4P1y4cN66Q9z6elu2bsXevXvx9N69eP3Q6/5m5Bk9oqoxIhsXkGlowNjYGB588EFwwfHM00+HoMSe+hlmkqxfvx4/+OEPUSqVll0PJ06cwBO7H8dcDM/G3zzzuRx+9OyzeOutt7B///4weZkkzTPFN7/5DXzms5/F3Nwcdu/ahZOTk/4ZztXYpURzqRk/+vGzOD4xgaf37oWL+Oee78zP+z98P7795JMWumNychK/fPkVHD58GFdd7FoJFAp5bNy0CZ/7/Oexbft23CndMROmlFJKd0Y0HYKUUkqZMKWUUiZMKaWUUiZMKaWUCVNKKaWUCVNKKWXClFJKKWXClFJKmTCllFJKmTCllFImTCmllFImTCmllAlTSimllAnCU0y2AAAAFklEQVRTSillwpRSSillwpRS+ren/wcPYL8jDeYCWAAAAABJRU5ErkJggg==;container=0;" vertex="1" parent="zpTVTdFHTJqUsnKjDufD-8">
          <mxGeometry x="119.94" y="481.31" width="60.11" height="82.02" as="geometry" />
        </mxCell>
        <mxCell id="zpTVTdFHTJqUsnKjDufD-59" value="Manages" style="endArrow=classic;html=1;rounded=0;exitX=0;exitY=1;exitDx=0;exitDy=0;entryX=0.5;entryY=0;entryDx=0;entryDy=0;" edge="1" parent="zpTVTdFHTJqUsnKjDufD-8" source="zpTVTdFHTJqUsnKjDufD-1" target="zpTVTdFHTJqUsnKjDufD-48">
          <mxGeometry width="50" height="50" relative="1" as="geometry">
            <mxPoint x="890" y="263.33" as="sourcePoint" />
            <mxPoint x="940" y="213.32999999999998" as="targetPoint" />
          </mxGeometry>
        </mxCell>
        <mxCell id="zpTVTdFHTJqUsnKjDufD-60" value="Manages" style="endArrow=classic;html=1;rounded=0;exitX=0;exitY=1;exitDx=0;exitDy=0;entryX=0.5;entryY=0;entryDx=0;entryDy=0;" edge="1" parent="zpTVTdFHTJqUsnKjDufD-8" source="zpTVTdFHTJqUsnKjDufD-1" target="zpTVTdFHTJqUsnKjDufD-21">
          <mxGeometry width="50" height="50" relative="1" as="geometry">
            <mxPoint x="420" y="413.33" as="sourcePoint" />
            <mxPoint x="470" y="363.33" as="targetPoint" />
          </mxGeometry>
        </mxCell>
        <mxCell id="zpTVTdFHTJqUsnKjDufD-16" value="" style="group" vertex="1" connectable="0" parent="1">
          <mxGeometry x="830" y="401" width="70" height="126" as="geometry" />
        </mxCell>
        <mxCell id="zpTVTdFHTJqUsnKjDufD-13" value="" style="shape=image;html=1;verticalAlign=top;verticalLabelPosition=bottom;labelBackgroundColor=#ffffff;imageAspect=0;aspect=fixed;image=https://cdn2.iconfinder.com/data/icons/browsers/Firefox.png" vertex="1" parent="zpTVTdFHTJqUsnKjDufD-16">
          <mxGeometry x="10" y="60" width="50" height="50" as="geometry" />
        </mxCell>
        <mxCell id="zpTVTdFHTJqUsnKjDufD-14" value="" style="dashed=0;outlineConnect=0;html=1;align=center;labelPosition=center;verticalLabelPosition=bottom;verticalAlign=top;shape=mxgraph.weblogos.chrome" vertex="1" parent="zpTVTdFHTJqUsnKjDufD-16">
          <mxGeometry x="13.099999999999994" y="6" width="43.8" height="44.15" as="geometry" />
        </mxCell>
        <mxCell id="zpTVTdFHTJqUsnKjDufD-15" value="Host&lt;br&gt;Browser" style="rounded=0;whiteSpace=wrap;html=1;fillColor=none;labelPosition=center;verticalLabelPosition=bottom;align=center;verticalAlign=top;" vertex="1" parent="zpTVTdFHTJqUsnKjDufD-16">
          <mxGeometry width="70" height="126" as="geometry" />
        </mxCell>
        <mxCell id="zpTVTdFHTJqUsnKjDufD-43" value="HTTP" style="endArrow=classic;html=1;rounded=0;entryX=1;entryY=0.5;entryDx=0;entryDy=0;" edge="1" parent="1" source="zpTVTdFHTJqUsnKjDufD-15" target="zpTVTdFHTJqUsnKjDufD-20">
          <mxGeometry width="50" height="50" relative="1" as="geometry">
            <mxPoint x="350" y="710" as="sourcePoint" />
            <mxPoint x="400" y="660" as="targetPoint" />
            <Array as="points" />
          </mxGeometry>
        </mxCell>
        <mxCell id="zpTVTdFHTJqUsnKjDufD-55" value="" style="endArrow=none;html=1;rounded=0;exitX=0.666;exitY=0.512;exitDx=0;exitDy=0;exitPerimeter=0;" edge="1" parent="1" source="zpTVTdFHTJqUsnKjDufD-50">
          <mxGeometry width="50" height="50" relative="1" as="geometry">
            <mxPoint x="200" y="640" as="sourcePoint" />
            <mxPoint x="290" y="510" as="targetPoint" />
            <Array as="points">
              <mxPoint x="290" y="560" />
            </Array>
          </mxGeometry>
        </mxCell>
        <mxCell id="zpTVTdFHTJqUsnKjDufD-56" value="" style="endArrow=none;html=1;rounded=0;" edge="1" parent="1">
          <mxGeometry width="50" height="50" relative="1" as="geometry">
            <mxPoint x="260" y="470" as="sourcePoint" />
            <mxPoint x="290" y="510" as="targetPoint" />
            <Array as="points">
              <mxPoint x="290" y="470" />
            </Array>
          </mxGeometry>
        </mxCell>
        <mxCell id="zpTVTdFHTJqUsnKjDufD-58" value="HTTP" style="endArrow=classic;html=1;rounded=0;exitX=0.5;exitY=0;exitDx=0;exitDy=0;entryX=1;entryY=0.5;entryDx=0;entryDy=0;" edge="1" parent="1" source="zpTVTdFHTJqUsnKjDufD-15" target="zpTVTdFHTJqUsnKjDufD-1">
          <mxGeometry x="0.5021" width="50" height="50" relative="1" as="geometry">
            <mxPoint x="970" y="390" as="sourcePoint" />
            <mxPoint x="1020" y="340" as="targetPoint" />
            <Array as="points">
              <mxPoint x="865" y="270" />
            </Array>
            <mxPoint as="offset" />
          </mxGeometry>
        </mxCell>
      </root>
    </mxGraphModel>
  </diagram>
</mxfile>
